<svg width="51" height="33" viewBox="0 0 51 33" fill="none" xmlns="http://www.w3.org/2000/svg">
<path d="M23.2202 26.7497C23.4879 26.5243 23.755 26.2775 24.0015 26.0302L25.5211 24.5054L27.0406 26.0302C27.2971 26.2882 27.5648 26.5243 27.8325 26.7497L26.2806 28.3065C26.0347 28.5538 25.7776 28.7899 25.5211 29.0047C25.264 28.7899 25.0181 28.5538 24.7722 28.3065L23.2202 26.7497Z" fill="#0BC6D7"/>
<path d="M23.2202 6.79845L24.7722 5.24166C25.0181 4.99434 25.264 4.75824 25.5211 4.54346C25.7776 4.75824 26.0347 4.99434 26.2806 5.24166L27.8325 6.79845C27.5648 7.02389 27.2971 7.25999 27.0406 7.51796L25.5211 9.04278L24.0015 7.51796C23.755 7.2712 23.4879 7.02389 23.2202 6.79845Z" fill="#09CFD6"/>
<path d="M32.4406 15.9767C32.8804 16.4174 32.8804 17.1311 32.4406 17.5718L25.5208 24.5055L27.0404 26.0303C27.2975 26.2883 27.5652 26.5244 27.8323 26.7498L36.9797 17.5712C37.4188 17.1306 37.4188 16.4179 36.9797 15.9773L27.8323 6.79868C27.5652 7.02413 27.2975 7.26023 27.0404 7.5182L25.5208 9.04302L32.4406 15.9767ZM4.81436 28.3072C7.76796 31.2817 11.6632 32.774 15.5479 32.774C19.1006 32.774 22.6745 31.5178 25.5208 29.0048C25.2643 28.79 25.0179 28.5539 24.772 28.3072L23.2205 26.7498C21.0052 28.6184 18.2763 29.5421 15.5479 29.5527C12.4764 29.5421 9.42667 28.3823 7.08335 26.0303C4.52599 23.4747 3.26296 20.1245 3.26296 16.7743C3.26296 13.4134 4.52599 10.0738 7.08335 7.51819C9.42667 5.16618 12.4764 3.99579 15.5479 3.99579C18.2763 3.99579 21.0052 4.93009 23.2205 6.79868L24.772 5.24133C25.0179 4.99458 25.2643 4.75848 25.5208 4.54369C24.2265 3.38395 22.7818 2.51415 21.2517 1.89109C19.4214 1.15027 17.4849 0.774534 15.5479 0.774534C11.6632 0.774534 7.76796 2.26683 4.81436 5.24133C1.63666 8.41996 0.0528402 12.608 0.0528398 16.7743C0.0528394 20.941 1.63666 25.1285 4.81436 28.3072Z" fill="url(#paint0_linear_4482_1532)"/>
<path d="M27.8323 6.79832C30.0476 4.92972 32.7654 3.99542 35.5049 3.99542C38.5653 3.99542 41.6262 5.16638 43.9695 7.51783C46.5162 10.0734 47.7899 13.413 47.7899 16.7739C47.7899 20.1241 46.5162 23.4744 43.9695 26.0305C41.6262 28.382 38.5653 29.5417 35.5049 29.5524C32.7654 29.5417 30.0476 28.6181 27.8323 26.7495L26.2809 28.3068C26.0344 28.5536 25.7779 28.7902 25.5208 29.005C28.3671 31.5174 31.9416 32.7742 35.5049 32.7742C39.3784 32.7742 43.2737 31.2813 46.2379 28.3068C49.4056 25.1282 51 20.9407 51 16.7739C51 12.6077 49.4056 8.4196 46.2379 5.24153C43.2737 2.26647 39.3784 0.774169 35.5049 0.774169C31.9416 0.774168 28.3671 2.03037 25.5208 4.54333C25.7779 4.75811 26.0344 4.99421 26.2809 5.24153L27.8323 6.79832ZM23.22 26.7495C23.4877 26.524 23.7554 26.2773 24.0013 26.0305L25.5208 24.5057L18.5197 17.4798C18.1308 17.0895 18.1309 16.4583 18.5197 16.068L25.5208 9.04265L24.0013 7.51783C23.7554 7.27107 23.4877 7.02376 23.22 6.79832L13.9823 16.068C13.5935 16.4582 13.5935 17.0895 13.9823 17.4798L23.22 26.7495Z" fill="url(#paint1_linear_4482_1532)"/>
<path d="M32.1115 26.0299C31.9543 26.1871 32.0611 26.4595 32.2835 26.4595H35.2999C35.8987 26.4595 36.4731 26.2216 36.8966 25.7981L45.1227 17.572C45.5636 17.1311 45.5636 16.4163 45.1227 15.9753L36.9072 7.75941C36.4838 7.33591 35.9094 7.09799 35.3105 7.09799H32.2794C32.0619 7.09799 31.958 7.36337 32.1115 7.51748L40.5699 15.9753C41.0108 16.4162 41.0108 17.1311 40.5699 17.5721L32.1115 26.0299Z" fill="#09CFD6"/>
<path d="M18.9707 26.0299C19.128 26.1871 19.0212 26.4595 18.7988 26.4595H15.7824C15.1835 26.4595 14.6092 26.2216 14.1857 25.7981L5.95962 17.572C5.51872 17.1311 5.51871 16.4163 5.9596 15.9753L14.1751 7.75941C14.5985 7.33591 15.1729 7.09799 15.7718 7.09799H18.8028C19.0203 7.09799 19.1242 7.36337 18.9707 7.51748L10.5124 15.9753C10.0714 16.4162 10.0714 17.1311 10.5124 17.5721L18.9707 26.0299Z" fill="url(#paint2_linear_4482_1532)"/>
<defs>
<linearGradient id="paint0_linear_4482_1532" x1="18.9134" y1="0.774534" x2="4.50024" y2="0.774411" gradientUnits="userSpaceOnUse">
<stop stop-color="#09CFD6"/>
<stop offset="1" stop-color="#1A94E1"/>
</linearGradient>
<linearGradient id="paint1_linear_4482_1532" x1="48.5" y1="0.77417" x2="3.99999" y2="0.774166" gradientUnits="userSpaceOnUse">
<stop offset="0.166667" stop-color="#02E4D1"/>
<stop offset="1" stop-color="#1A94E1"/>
</linearGradient>
<linearGradient id="paint2_linear_4482_1532" x1="22" y1="26" x2="6.84262" y2="26.4594" gradientUnits="userSpaceOnUse">
<stop stop-color="#09CFD6"/>
<stop offset="1" stop-color="#1A94E1"/>
</linearGradient>
</defs>
</svg>
