<svg width="64" height="40" viewBox="0 0 64 40" fill="none" xmlns="http://www.w3.org/2000/svg">
<path d="M34.8971 7.53076C34.5608 7.81257 34.2252 8.12101 33.9156 8.43015L32.0067 10.3362L30.0979 8.43015C29.7756 8.10769 29.4394 7.81257 29.1031 7.53076L31.0527 5.58478C31.3616 5.27563 31.6845 4.98051 32.0067 4.71203C32.3297 4.98051 32.6386 5.27563 32.9475 5.58478L34.8971 7.53076Z" fill="#02E4D1"/>
<path d="M34.8971 32.4701L32.9475 34.4161C32.6386 34.7252 32.3297 35.0203 32.0067 35.2888C31.6845 35.0203 31.3616 34.7252 31.0527 34.4161L29.1031 32.4701C29.4394 32.1883 29.7756 31.8932 30.0979 31.5707L32.0067 29.6647L33.9156 31.5707C34.2252 31.8791 34.5608 32.1883 34.8971 32.4701Z" fill="#1A94E1"/>
<path d="M22.3147 20.0005L32.0071 10.3364L30.0983 8.4304C29.7753 8.10794 29.439 7.81282 29.1035 7.53101L16.6148 20.0005L29.1035 32.4699C29.439 32.1881 29.7753 31.893 30.0983 31.5705L32.0071 29.6645L22.3147 20.0005ZM58.0186 5.58432C54.3083 1.8662 49.415 0.000823975 44.5351 0.000823975C40.0722 0.000823975 35.5826 1.57108 32.0071 4.71227C32.3294 4.98076 32.639 5.27588 32.9479 5.58432L34.8967 7.53101C37.6796 5.19527 41.1077 4.04071 44.5351 4.02739C48.3935 4.04071 52.2246 5.49039 55.1683 8.4304C58.3808 11.6249 59.9674 15.8127 59.9674 20.0005C59.9674 24.2016 58.3808 28.3761 55.1683 31.5705C52.2246 34.5106 48.3935 35.9736 44.5351 35.9736C41.1077 35.9736 37.6796 34.8057 34.8967 32.4699L32.9479 34.4166C32.639 34.7251 32.3294 35.0202 32.0071 35.2887C33.6331 36.7383 35.4478 37.8256 37.37 38.6044C39.6692 39.5304 42.1018 40.0001 44.5351 40.0001C49.415 40.0001 54.3083 38.1347 58.0186 34.4166C62.0104 30.4433 64 25.2082 64 20.0005C64 14.792 62.0104 9.55761 58.0186 5.58432Z" fill="#1A94E1"/>
<path d="M24.218 32.1064H18.4915L6.36646 19.9994L18.4781 7.90498H24.2047C24.0165 8.08023 23.8284 8.25408 23.6536 8.42933L12.0656 19.9994L23.6536 31.5695C23.8417 31.7573 24.0299 31.9319 24.218 32.1064Z" fill="#1A94E1"/>
<path d="M39.7901 32.1064H45.5167L57.6417 19.9994L45.53 7.90498H39.8034C39.9916 8.08023 40.1797 8.25408 40.3545 8.42933L51.9425 19.9994L40.3545 31.5695C40.1664 31.7573 39.9782 31.9319 39.7901 32.1064Z" fill="#02E4D1"/>
<path d="M29.1032 32.4699C26.3203 34.8057 22.9063 35.9736 19.4649 35.9736C15.6205 35.9736 11.7754 34.5099 8.83172 31.5705C5.6325 28.3761 4.03254 24.2016 4.03254 20.0005C4.03254 15.8127 5.6325 11.6249 8.83172 8.4297C11.7754 5.49039 15.6205 4.04071 19.4649 4.02739C22.9063 4.04071 26.3203 5.19526 29.1032 7.53101L31.0521 5.58432C31.3617 5.27588 31.684 4.98005 32.0069 4.71157C28.4314 1.57107 23.9411 0.00012207 19.4649 0.00012207C14.599 0.00012207 9.70576 1.86619 5.98212 5.58432C2.00293 9.55761 0 14.792 0 20.0005C0 25.2082 2.00293 30.4433 5.98212 34.4159C9.70576 38.1348 14.599 40.0001 19.4649 40.0001C23.9411 40.0001 28.4314 38.4299 32.0069 35.2887C31.684 35.0202 31.3617 34.7251 31.0521 34.4159L29.1032 32.4699ZM34.8972 7.53101C34.5609 7.81281 34.2246 8.12126 33.9157 8.4297L32.0069 10.3357L41.6853 20.0005L32.0069 29.6645L33.9157 31.5705C34.2246 31.879 34.5609 32.1881 34.8972 32.4699L47.3852 20.0005L34.8972 7.53101Z" fill="#02E4D1"/>
</svg>
