<svg width="119" height="31" viewBox="0 0 119 31" fill="none" xmlns="http://www.w3.org/2000/svg">
<path d="M26.3514 5.71483C26.0975 5.92868 25.8441 6.16274 25.6103 6.39734L24.1689 7.84375L22.7275 6.39734C22.4842 6.15263 22.2302 5.92868 21.9763 5.71483L23.4485 4.23809C23.6817 4.00349 23.9256 3.77954 24.1689 3.57579C24.4128 3.77954 24.646 4.00349 24.8793 4.23809L26.3514 5.71483Z" fill="#02E4D1"/>
<path d="M26.3514 24.6403L24.8793 26.117C24.646 26.3516 24.4128 26.5756 24.1689 26.7793C23.9256 26.5756 23.6817 26.3516 23.4485 26.117L21.9763 24.6403C22.2302 24.4264 22.4842 24.2025 22.7275 23.9578L24.1689 22.5113L25.6103 23.9578C25.8441 24.1918 26.0975 24.4264 26.3514 24.6403Z" fill="#1A94E1"/>
<path d="M16.8502 15.1775L24.1691 7.84385L22.7277 6.39744C22.4839 6.15273 22.2299 5.92878 21.9765 5.71493L12.5461 15.1775L21.9765 24.6401C22.2299 24.4263 22.4839 24.2023 22.7277 23.9576L24.1691 22.5112L16.8502 15.1775ZM43.8108 4.23766C41.0091 1.41612 37.3141 0.000556946 33.6292 0.000556946C30.2592 0.000556946 26.8691 1.19216 24.1691 3.5759C24.4125 3.77964 24.6463 4.0036 24.8795 4.23766L26.3511 5.71493C28.4526 3.94242 31.0412 3.06627 33.6292 3.05617C36.5428 3.06627 39.4357 4.16638 41.6585 6.39744C44.0844 8.82161 45.2824 11.9996 45.2824 15.1775C45.2824 18.3656 44.0844 21.5334 41.6585 23.9576C39.4357 26.1887 36.5428 27.2989 33.6292 27.2989C31.0412 27.2989 28.4526 26.4126 26.3511 24.6401L24.8795 26.1174C24.6463 26.3515 24.4125 26.5754 24.1691 26.7792C25.3969 27.8793 26.7673 28.7043 28.2188 29.2953C29.9549 29.9981 31.7918 30.3545 33.6292 30.3545C37.3141 30.3545 41.0091 28.9389 43.8108 26.1174C46.8251 23.1022 48.3275 19.1295 48.3275 15.1775C48.3275 11.225 46.8251 7.25284 43.8108 4.23766Z" fill="#1A94E1"/>
<path d="M18.2874 24.3643H13.9632L4.80737 15.1767L13.9531 5.99869H18.2773C18.1353 6.13169 17.9932 6.26361 17.8612 6.3966L9.11093 15.1767L17.8612 23.9568C18.0033 24.0993 18.1453 24.2318 18.2874 24.3643Z" fill="#1A94E1"/>
<path d="M30.0461 24.3643H34.3704L43.5262 15.1767L34.3804 5.99869H30.0562C30.1983 6.13169 30.3404 6.26361 30.4724 6.3966L39.2226 15.1767L30.4724 23.9568C30.3303 24.0993 30.1882 24.2318 30.0461 24.3643Z" fill="#02E4D1"/>
<path d="M21.9764 24.6401C19.8749 26.4126 17.2969 27.2989 14.6983 27.2989C11.7953 27.2989 8.8918 26.1881 6.66898 23.9576C4.2532 21.5334 3.04504 18.3656 3.04504 15.1775C3.04504 11.9996 4.2532 8.82161 6.66898 6.39691C8.8918 4.16638 11.7953 3.06627 14.6983 3.05617C17.2969 3.06627 19.8749 3.94242 21.9764 5.71493L23.448 4.23766C23.6818 4.0036 23.9251 3.77911 24.169 3.57537C21.469 1.19216 18.0783 2.86102e-05 14.6983 2.86102e-05C11.024 2.86102e-05 7.32899 1.41612 4.5172 4.23766C1.51245 7.25284 0 11.225 0 15.1775C0 19.1295 1.51245 23.1022 4.5172 26.1169C7.32899 28.9389 11.024 30.3545 14.6983 30.3545C18.0783 30.3545 21.469 29.1629 24.169 26.7792C23.9251 26.5754 23.6818 26.3515 23.448 26.1169L21.9764 24.6401ZM26.3515 5.71493C26.0975 5.92878 25.8436 6.16285 25.6104 6.39691L24.169 7.84332L31.4773 15.1775L24.169 22.5112L25.6104 23.9576C25.8436 24.1917 26.0975 24.4263 26.3515 24.6401L35.7813 15.1775L26.3515 5.71493Z" fill="#02E4D1"/>
<path d="M75.8829 23.3843H66.8081C64.4725 23.3843 62.5405 22.6188 61.0128 21.0885C59.4846 19.5581 58.7205 17.6252 58.7205 15.2915C58.7205 12.9717 59.4759 11.1013 60.989 9.67928C62.501 8.25673 64.4411 7.54573 66.8081 7.54573H75.8829V10.3049H66.8081C65.2712 10.3049 64.006 10.7922 63.0108 11.7664C62.0156 12.74 61.5183 13.9928 61.5183 15.5232C61.5183 17.0381 62.0156 18.2679 63.0108 19.2101C64.006 20.1527 65.2712 20.6251 66.8081 20.6251H75.8829V23.3843Z" fill="white"/>
<path d="M99.1813 23.3843L95.5842 23.3613L92.88 18.9325H85.2632L86.9559 16.1958H91.2111L88.4138 11.6271L81.172 23.3613H77.5754L86.2979 9.05315C86.5171 8.68216 86.8228 8.34214 87.2146 8.03308C87.6849 7.67758 88.1081 7.49982 88.4836 7.49982C88.8911 7.49982 89.3143 7.66957 89.7532 8.00959C90.1299 8.30317 90.4356 8.65067 90.6705 9.05315L99.1813 23.3843Z" fill="white"/>
<path d="M113.663 23.3843H99.8153V7.54573H102.613V20.6251H113.663V23.3843Z" fill="white"/>
<path d="M119 23.384H116.203V7.54549H119V23.384Z" fill="white"/>
</svg>
