<svg width="97" height="61" viewBox="0 0 97 61" fill="none" xmlns="http://www.w3.org/2000/svg">
<path d="M52.8909 11.4701C52.3812 11.8993 51.8726 12.3691 51.4033 12.84L48.5102 15.7432L45.6171 12.84C45.1287 12.3489 44.619 11.8993 44.1094 11.4701L47.0642 8.5061C47.5324 8.03524 48.0218 7.58572 48.5102 7.17678C48.9997 7.58572 49.4679 8.03524 49.936 8.5061L52.8909 11.4701Z" fill="#02E4D1"/>
<path d="M52.8909 49.4564L49.936 52.4204C49.4679 52.8913 48.9997 53.3408 48.5102 53.7498C48.0218 53.3408 47.5324 52.8913 47.0642 52.4204L44.1094 49.4564C44.619 49.0272 45.1287 48.5777 45.6171 48.0865L48.5102 45.1834L51.4033 48.0865C51.8726 48.5563 52.3812 49.0272 52.8909 49.4564Z" fill="#1A94E1"/>
<path d="M33.8205 30.4633L48.5106 15.7436L45.6175 12.8404C45.1281 12.3493 44.6184 11.8997 44.1098 11.4705L25.1816 30.4633L44.1098 49.456C44.6184 49.0268 45.1281 48.5773 45.6175 48.0861L48.5106 45.183L33.8205 30.4633ZM87.9342 8.50543C82.3108 2.84221 74.8945 0.000980377 67.4983 0.000980377C60.7343 0.000980377 53.9298 2.39269 48.5106 7.17718C48.999 7.58612 49.4683 8.03563 49.9364 8.50543L52.8902 11.4705C57.108 7.91285 62.3037 6.1543 67.4983 6.13401C73.3463 6.1543 79.1527 8.36236 83.6142 12.8404C88.4832 17.706 90.888 24.0847 90.888 30.4633C90.888 36.8622 88.4832 43.2205 83.6142 48.0861C79.1527 52.5642 73.3463 54.7925 67.4983 54.7925C62.3037 54.7925 57.108 53.0137 52.8902 49.456L49.9364 52.4211C49.4683 52.8909 48.999 53.3404 48.5106 53.7493C50.9749 55.9574 53.7255 57.6134 56.6388 58.7997C60.1235 60.2102 63.8104 60.9255 67.4983 60.9255C74.8945 60.9255 82.3108 58.0843 87.9342 52.4211C93.9843 46.3692 96.9998 38.3954 96.9998 30.4633C96.9998 22.53 93.9843 14.5573 87.9342 8.50543Z" fill="#1A94E1"/>
<path d="M36.7052 48.9021H28.0259L9.64893 30.4614L28.0057 12.0399H36.685C36.3998 12.3068 36.1147 12.5716 35.8497 12.8385L18.2868 30.4614L35.8497 48.0842C36.1349 48.3704 36.4201 48.6362 36.7052 48.9021Z" fill="#1A94E1"/>
<path d="M60.3066 48.9021H68.986L87.3629 30.4614L69.0062 12.0399H60.3269C60.612 12.3068 60.8972 12.5716 61.1621 12.8385L78.7251 30.4614L61.1621 48.0842C60.877 48.3704 60.5918 48.6362 60.3066 48.9021Z" fill="#02E4D1"/>
<path d="M44.1096 49.456C39.8918 53.0137 34.7174 54.7925 29.5015 54.7925C23.6748 54.7925 17.8471 52.5631 13.3856 48.0861C8.53676 43.2205 6.11182 36.8622 6.11182 30.4633C6.11182 24.0847 8.53676 17.706 13.3856 12.8393C17.8471 8.36235 23.6748 6.15429 29.5015 6.134C34.7174 6.15429 39.8918 7.91284 44.1096 11.4705L47.0634 8.50543C47.5326 8.03563 48.021 7.58505 48.5105 7.17611C43.0913 2.39268 36.2857 -9.53674e-05 29.5015 -9.53674e-05C22.1266 -9.53674e-05 14.7103 2.8422 9.06665 8.50543C3.0357 14.5573 0 22.53 0 30.4633C0 38.3954 3.0357 46.3692 9.06665 52.42C14.7103 58.0843 22.1266 60.9255 29.5015 60.9255C36.2857 60.9255 43.0913 58.5338 48.5105 53.7493C48.021 53.3404 47.5326 52.8909 47.0634 52.42L44.1096 49.456ZM52.8911 11.4705C52.3814 11.8997 51.8717 12.3695 51.4036 12.8393L48.5105 15.7425L63.1792 30.4633L48.5105 45.183L51.4036 48.0861C51.8717 48.5559 52.3814 49.0268 52.8911 49.456L71.8182 30.4633L52.8911 11.4705Z" fill="#02E4D1"/>
</svg>
