<svg width="24" height="24" viewBox="0 0 24 24" fill="none" xmlns="http://www.w3.org/2000/svg">
<path opacity="0.2" fill-rule="evenodd" clip-rule="evenodd" d="M12 24C18.6274 24 24 18.6274 24 12C24 5.37258 18.6274 0 12 0C5.37258 0 0 5.37258 0 12C0 18.6274 5.37258 24 12 24Z" fill="#A0AEC0"/>
<path fill-rule="evenodd" clip-rule="evenodd" d="M10.9486 6.46143C11.6077 6.46143 12.2643 6.46143 12.9233 6.46143C12.8846 6.90725 12.8434 7.35549 12.807 7.80132C13.5751 7.85704 14.3238 8.10418 14.9974 8.47005C14.7066 9.20178 14.4134 9.93351 14.1203 10.6652C13.5533 10.1831 12.807 9.91655 12.0632 9.92624C11.8766 9.93109 11.6828 9.96743 11.5277 10.074C11.426 10.1443 11.3508 10.2533 11.329 10.3745C11.3121 10.4714 11.3169 10.5804 11.3702 10.6677C11.4308 10.7646 11.5374 10.8227 11.644 10.8591C11.8621 10.9366 12.0971 10.9415 12.3249 10.9657C12.8603 11.0311 13.3982 11.1232 13.9046 11.3146C14.2971 11.4648 14.6727 11.6901 14.9417 12.0197C15.1961 12.3225 15.3439 12.7054 15.3996 13.0979C15.465 13.551 15.4456 14.021 15.3051 14.462C15.1961 14.8158 15.0095 15.1453 14.7672 15.4239C14.2656 16.0054 13.5291 16.3543 12.7731 16.444C12.7973 16.9213 12.8264 17.3962 12.8531 17.8735C12.2279 17.8735 11.6053 17.8735 10.9826 17.8735C11.0068 17.401 11.0383 16.9286 11.0601 16.4561C10.5585 16.4391 10.0618 16.3277 9.5942 16.1508C9.14111 15.9788 8.70983 15.751 8.30762 15.4845C8.60322 14.7237 8.89882 13.9629 9.19684 13.1996C9.53363 13.4831 9.89223 13.7472 10.2847 13.9483C10.7063 14.164 11.174 14.3021 11.6489 14.3069C11.8742 14.3094 12.1068 14.2972 12.32 14.2197C12.4509 14.1712 12.5793 14.0864 12.6374 13.9532C12.698 13.8127 12.6932 13.6358 12.6011 13.5098C12.5357 13.425 12.4436 13.3668 12.3467 13.3256C12.2158 13.2723 12.0801 13.2433 11.942 13.2215C11.4332 13.1391 10.922 13.0712 10.4301 12.9113C10.0352 12.7829 9.64993 12.6036 9.33495 12.3274C9.13627 12.1554 8.97151 11.9446 8.8552 11.7071C8.68075 11.3534 8.61533 10.9536 8.62018 10.5611C8.62018 10.1225 8.70983 9.67668 8.92789 9.29143C9.11688 8.94737 9.40521 8.66631 9.72989 8.45067C10.1224 8.19141 10.561 8.01454 11.0068 7.87158C10.9874 7.40153 10.968 6.93148 10.9486 6.46143Z" fill="#A0AEC0"/>
</svg>
