<svg width="224" height="124" viewBox="0 0 224 124" fill="none" xmlns="http://www.w3.org/2000/svg">
<g opacity="0.1">
<path d="M91.8732 8.81187C88.3582 5.89823 84.4801 3.45299 80.3359 1.53739C80.2984 1.51945 80.2562 1.5138 80.2153 1.52123C80.1744 1.52866 80.1369 1.5488 80.1081 1.57878C79.3056 2.39985 78.3658 3.49941 77.6788 4.3774C73.1179 2.39278 68.3905 1.12609 63.5459 0.590501C63.396 -0.535476 63.104 -1.94134 62.8172 -3.05429C62.8062 -3.09408 62.7835 -3.12963 62.752 -3.15629C62.7205 -3.18296 62.6816 -3.1995 62.6406 -3.20377C58.0938 -3.61879 53.5124 -3.44041 49.0116 -2.67312C48.9734 -2.66766 48.9379 -2.65047 48.9098 -2.62393C37.6872 7.20199 32.3622 18.2926 30.3489 30.1154C30.3444 30.1445 30.3457 30.1742 30.3529 30.2027C30.36 30.2312 30.3728 30.258 30.3905 30.2815C34.6376 35.5816 39.1279 39.3114 43.7362 42.2208C43.7722 42.243 43.814 42.2536 43.8562 42.2513C43.8984 42.2489 43.9388 42.2338 43.9721 42.2078C45.5962 40.9026 47.115 39.4743 48.5064 37.9173C48.5255 37.896 48.5399 37.8709 48.5486 37.8437C48.5573 37.8164 48.5601 37.7876 48.5569 37.7592C48.5537 37.7307 48.5445 37.7033 48.5299 37.6787C48.5153 37.6541 48.4956 37.6329 48.4722 37.6164C46.9616 36.5281 45.5691 35.3215 44.2657 34.0258C44.242 34.0018 44.2246 33.9723 44.215 33.94C44.2055 33.9077 44.204 33.8735 44.2108 33.8404C44.2176 33.8074 44.2324 33.7766 44.2539 33.7506C44.2754 33.7247 44.303 33.7044 44.3342 33.6916C44.7233 33.5356 45.1153 33.37 45.493 33.1977C45.5266 33.1824 45.5638 33.1767 45.6004 33.1814C45.637 33.1861 45.6715 33.2009 45.7002 33.2242C54.5797 40.5543 65.5325 43.4891 76.7679 41.5488C76.8047 41.542 76.8425 41.5458 76.8772 41.5597C76.9118 41.5736 76.9418 41.5971 76.9636 41.6274C77.2049 41.9654 77.4605 42.3075 77.722 42.6379C77.7428 42.6644 77.7567 42.6955 77.7626 42.7287C77.7685 42.7618 77.7662 42.7959 77.7558 42.8279C77.7454 42.8599 77.7273 42.8889 77.7031 42.9123C77.6789 42.9357 77.6493 42.9527 77.617 42.962C75.8352 43.449 74.0155 43.7847 72.1773 43.9654C72.1487 43.9683 72.121 43.9773 72.0961 43.9917C72.0713 44.0061 72.0497 44.0255 72.0328 44.0488C72.016 44.0721 72.0043 44.0987 71.9984 44.1268C71.9925 44.155 71.9926 44.184 71.9988 44.2121C72.4454 46.2588 73.0465 48.2552 73.7785 50.1917C73.7933 50.2316 73.8204 50.2657 73.8558 50.2894C73.8911 50.3131 73.9331 50.325 73.9756 50.3234C79.4455 50.1142 85.1991 49.1292 91.5272 46.663C91.5544 46.6525 91.5791 46.6363 91.5996 46.6155C91.62 46.5947 91.6358 46.5698 91.6459 46.5424C96.5079 33.5529 96.1636 21.0459 91.9339 8.90681C91.9257 8.86886 91.9042 8.83509 91.8732 8.81161L91.8732 8.81187ZM52.6331 28.5591C49.5873 27.7429 47.8267 24.2739 48.747 20.8395C49.6671 17.4055 52.8776 15.2684 55.9724 16.0977C59.0912 16.9333 60.8207 20.4203 59.8584 23.8171C58.9382 27.2512 55.7277 29.3883 52.6331 28.5591ZM73.1747 34.0632C70.1288 33.247 68.3682 29.7779 69.2885 26.3436C70.2086 22.9096 73.4189 20.7724 76.5137 21.6017C79.6325 22.4374 81.362 25.9243 80.3996 29.3211C79.4795 32.7552 76.2934 34.8988 73.1747 34.0632Z" fill="#121212"/>
</g>
<g opacity="0.1">
<path d="M190.532 5.83116C187.017 2.91751 183.138 0.472276 178.994 -1.44332C178.957 -1.46126 178.915 -1.46692 178.874 -1.45949C178.833 -1.45206 178.795 -1.43192 178.766 -1.40193C177.964 -0.580865 177.024 0.518694 176.337 1.39669C171.776 -0.587929 167.049 -1.85462 162.204 -2.39021C162.054 -3.51619 161.762 -4.92206 161.476 -6.035C161.465 -6.07479 161.442 -6.11034 161.41 -6.137C161.379 -6.16367 161.34 -6.18022 161.299 -6.18449C156.752 -6.59951 152.171 -6.42113 147.67 -5.65384C147.632 -5.64837 147.596 -5.63118 147.568 -5.60464C136.346 4.22128 131.021 15.3119 129.007 27.1347C129.003 27.1638 129.004 27.1935 129.011 27.222C129.018 27.2505 129.031 27.2773 129.049 27.3008C133.296 32.6009 137.786 36.3307 142.395 39.2401C142.431 39.2622 142.472 39.2729 142.515 39.2706C142.557 39.2682 142.597 39.2531 142.631 39.2271C144.255 37.9219 145.773 36.4936 147.165 34.9366C147.184 34.9153 147.198 34.8902 147.207 34.863C147.216 34.8357 147.219 34.8069 147.215 34.7785C147.212 34.75 147.203 34.7226 147.188 34.698C147.174 34.6734 147.154 34.6521 147.131 34.6357C145.62 33.5473 144.228 32.3408 142.924 31.0451C142.9 31.0211 142.883 30.9916 142.873 30.9593C142.864 30.9269 142.862 30.8928 142.869 30.8597C142.876 30.8267 142.891 30.7958 142.912 30.7699C142.934 30.7439 142.961 30.7237 142.993 30.7109C143.382 30.5549 143.774 30.3893 144.151 30.2169C144.185 30.2016 144.222 30.196 144.259 30.2007C144.295 30.2054 144.33 30.2202 144.359 30.2435C153.238 37.5736 164.191 40.5084 175.426 38.568C175.463 38.5613 175.501 38.5651 175.536 38.579C175.57 38.5929 175.6 38.6164 175.622 38.6467C175.863 38.9847 176.119 39.3268 176.38 39.6572C176.401 39.6836 176.415 39.7148 176.421 39.748C176.427 39.7811 176.425 39.8152 176.414 39.8472C176.404 39.8792 176.386 39.9082 176.361 39.9316C176.337 39.9549 176.308 39.972 176.275 39.9813C174.494 40.4683 172.674 40.804 170.836 40.9846C170.807 40.9876 170.779 40.9966 170.755 41.011C170.73 41.0253 170.708 41.0448 170.691 41.0681C170.674 41.0914 170.663 41.118 170.657 41.1461C170.651 41.1742 170.651 41.2033 170.657 41.2314C171.104 43.278 171.705 45.2744 172.437 47.211C172.452 47.2508 172.479 47.285 172.514 47.3087C172.55 47.3323 172.591 47.3442 172.634 47.3427C178.104 47.1334 183.858 46.1485 190.186 43.6823C190.213 43.6718 190.237 43.6556 190.258 43.6348C190.278 43.614 190.294 43.5891 190.304 43.5617C195.166 30.5721 194.822 18.0651 190.592 5.9261C190.584 5.88815 190.563 5.85438 190.532 5.8309L190.532 5.83116ZM151.292 25.5784C148.246 24.7622 146.485 21.2932 147.405 17.8588C148.325 14.4248 151.536 12.2877 154.631 13.117C157.75 13.9526 159.479 17.4396 158.517 20.8364C157.597 24.2705 154.386 26.4075 151.292 25.5784ZM171.833 31.0824C168.787 30.2663 167.027 26.7972 167.947 23.3629C168.867 19.9289 172.077 17.7917 175.172 18.621C178.291 19.4566 180.02 22.9436 179.058 26.3404C178.138 29.7745 174.952 31.9181 171.833 31.0824Z" fill="#121212"/>
</g>
<g opacity="0.1">
<path d="M181.861 79.2416C178.346 76.3279 174.468 73.8827 170.324 71.9671C170.287 71.9491 170.244 71.9435 170.203 71.9509C170.163 71.9583 170.125 71.9785 170.096 72.0085C169.294 72.8295 168.354 73.9291 167.667 74.8071C163.106 72.8225 158.379 71.5558 153.534 71.0202C153.384 69.8942 153.092 68.4883 152.805 67.3754C152.794 67.3356 152.772 67.3001 152.74 67.2734C152.709 67.2467 152.67 67.2302 152.629 67.2259C148.082 66.8109 143.501 66.9893 139 67.7566C138.962 67.762 138.926 67.7792 138.898 67.8058C127.675 77.6317 122.35 88.7223 120.337 100.545C120.333 100.574 120.334 100.604 120.341 100.632C120.348 100.661 120.361 100.688 120.379 100.711C124.626 106.011 129.116 109.741 133.724 112.651C133.76 112.673 133.802 112.683 133.844 112.681C133.887 112.679 133.927 112.663 133.96 112.638C135.584 111.332 137.103 109.904 138.495 108.347C138.514 108.326 138.528 108.301 138.537 108.273C138.545 108.246 138.548 108.217 138.545 108.189C138.542 108.16 138.533 108.133 138.518 108.108C138.503 108.084 138.484 108.063 138.46 108.046C136.95 106.958 135.557 105.751 134.254 104.456C134.23 104.431 134.213 104.402 134.203 104.37C134.194 104.337 134.192 104.303 134.199 104.27C134.206 104.237 134.221 104.206 134.242 104.18C134.264 104.154 134.291 104.134 134.322 104.121C134.712 103.965 135.103 103.8 135.481 103.627C135.515 103.612 135.552 103.606 135.589 103.611C135.625 103.616 135.66 103.631 135.688 103.654C144.568 110.984 155.521 113.919 166.756 111.978C166.793 111.972 166.831 111.975 166.865 111.989C166.9 112.003 166.93 112.027 166.952 112.057C167.193 112.395 167.449 112.737 167.71 113.068C167.731 113.094 167.745 113.125 167.751 113.158C167.757 113.192 167.754 113.226 167.744 113.258C167.734 113.29 167.715 113.319 167.691 113.342C167.667 113.365 167.637 113.382 167.605 113.392C165.823 113.879 164.004 114.214 162.165 114.395C162.137 114.398 162.109 114.407 162.084 114.421C162.059 114.436 162.038 114.455 162.021 114.479C162.004 114.502 161.992 114.528 161.987 114.557C161.981 114.585 161.981 114.614 161.987 114.642C162.434 116.688 163.035 118.685 163.767 120.621C163.781 120.661 163.809 120.695 163.844 120.719C163.879 120.743 163.921 120.755 163.964 120.753C169.434 120.544 175.187 119.559 181.515 117.093C181.543 117.082 181.567 117.066 181.588 117.045C181.608 117.024 181.624 116.999 181.634 116.972C186.496 103.983 186.152 91.4755 181.922 79.3365C181.914 79.2985 181.892 79.2648 181.861 79.2413L181.861 79.2416ZM142.621 98.9888C139.575 98.1726 137.815 94.7036 138.735 91.2692C139.655 87.8352 142.866 85.6981 145.961 86.5274C149.079 87.363 150.809 90.85 149.847 94.2468C148.926 97.6809 145.716 99.8179 142.621 98.9888ZM163.163 104.493C160.117 103.677 158.356 100.208 159.277 96.7733C160.197 93.3393 163.407 91.2021 166.502 92.0314C169.621 92.867 171.35 96.354 170.388 99.7508C169.468 103.185 166.282 105.329 163.163 104.493Z" fill="#121212"/>
</g>
<g opacity="0.1">
<path d="M82.2733 106.494C78.7584 103.581 74.8803 101.136 70.736 99.22C70.6985 99.2021 70.6563 99.1964 70.6154 99.2038C70.5745 99.2113 70.537 99.2314 70.5082 99.2614C69.7057 100.082 68.7659 101.182 68.079 102.06C63.518 100.075 58.7907 98.8087 53.9461 98.2731C53.7961 97.1471 53.5042 95.7413 53.2174 94.6283C53.2064 94.5885 53.1836 94.553 53.1521 94.5263C53.1206 94.4997 53.0818 94.4831 53.0407 94.4788C48.494 94.0638 43.9125 94.2422 39.4118 95.0095C39.3736 95.015 39.338 95.0321 39.31 95.0587C28.0874 104.885 22.7624 115.975 20.749 127.798C20.7445 127.827 20.7459 127.857 20.753 127.885C20.7602 127.914 20.773 127.941 20.7907 127.964C25.0378 133.264 29.5281 136.994 34.1363 139.903C34.1723 139.926 34.2142 139.936 34.2563 139.934C34.2985 139.932 34.339 139.916 34.3723 139.89C35.9964 138.585 37.5151 137.157 38.9066 135.6C38.9257 135.579 38.9401 135.554 38.9487 135.526C38.9574 135.499 38.9603 135.47 38.957 135.442C38.9538 135.413 38.9446 135.386 38.93 135.361C38.9154 135.337 38.8958 135.315 38.8724 135.299C37.3618 134.211 35.9693 133.004 34.6658 131.708C34.6421 131.684 34.6248 131.655 34.6152 131.623C34.6056 131.59 34.6042 131.556 34.6109 131.523C34.6177 131.49 34.6325 131.459 34.654 131.433C34.6756 131.407 34.7032 131.387 34.7344 131.374C35.1235 131.218 35.5154 131.053 35.8932 130.88C35.9267 130.865 35.9639 130.859 36.0005 130.864C36.0371 130.869 36.0717 130.884 36.1003 130.907C44.9798 138.237 55.9327 141.172 67.1681 139.231C67.2048 139.225 67.2427 139.228 67.2773 139.242C67.312 139.256 67.3419 139.28 67.3637 139.31C67.605 139.648 67.8607 139.99 68.1222 140.32C68.1429 140.347 68.1569 140.378 68.1628 140.411C68.1687 140.444 68.1663 140.479 68.1559 140.511C68.1456 140.543 68.1275 140.572 68.1033 140.595C68.0791 140.618 68.0495 140.635 68.0171 140.645C66.2354 141.132 64.4157 141.467 62.5774 141.648C62.5488 141.651 62.5212 141.66 62.4963 141.674C62.4714 141.689 62.4498 141.708 62.433 141.731C62.4161 141.755 62.4044 141.781 62.3985 141.809C62.3927 141.838 62.3928 141.867 62.3989 141.895C62.8455 143.941 63.4466 145.938 64.1786 147.874C64.1935 147.914 64.2205 147.948 64.2559 147.972C64.2913 147.996 64.3332 148.008 64.3758 148.006C69.8456 147.797 75.5993 146.812 81.9273 144.346C81.9546 144.335 81.9792 144.319 81.9997 144.298C82.0202 144.277 82.036 144.252 82.0461 144.225C86.9081 131.235 86.5638 118.728 82.334 106.589C82.3258 106.551 82.3043 106.518 82.2734 106.494L82.2733 106.494ZM43.0333 126.242C39.9874 125.426 38.2269 121.956 39.1471 118.522C40.0673 115.088 43.2778 112.951 46.3726 113.78C49.4914 114.616 51.2209 118.103 50.2585 121.5C49.3384 124.934 46.1279 127.071 43.0333 126.242ZM63.5748 131.746C60.5289 130.93 58.7684 127.461 59.6886 124.026C60.6088 120.592 63.819 118.455 66.9138 119.284C70.0326 120.12 71.7621 123.607 70.7998 127.004C69.8796 130.438 66.6936 132.581 63.5748 131.746Z" fill="#121212"/>
</g>
<g opacity="0.1">
<path d="M126.508 -44.7349C122.993 -47.6486 119.115 -50.0938 114.971 -52.0094C114.933 -52.0274 114.891 -52.033 114.85 -52.0256C114.809 -52.0182 114.772 -51.998 114.743 -51.968C113.94 -51.147 113.001 -50.0474 112.314 -49.1694C107.753 -51.154 103.025 -52.4207 98.1808 -52.9563C98.0309 -54.0823 97.7389 -55.4882 97.4521 -56.6011C97.4411 -56.6409 97.4184 -56.6764 97.3869 -56.7031C97.3553 -56.7298 97.3165 -56.7463 97.2755 -56.7506C92.7287 -57.1656 88.1473 -56.9872 83.6465 -56.2199C83.6083 -56.2145 83.5727 -56.1973 83.5447 -56.1707C72.3221 -46.3448 66.9971 -35.2542 64.9838 -23.4314C64.9792 -23.4023 64.9806 -23.3726 64.9878 -23.3441C64.9949 -23.3156 65.0077 -23.2888 65.0254 -23.2653C69.2725 -17.9652 73.7628 -14.2354 78.3711 -11.326C78.4071 -11.3039 78.4489 -11.2932 78.4911 -11.2956C78.5333 -11.2979 78.5737 -11.313 78.607 -11.339C80.2311 -12.6442 81.7499 -14.0726 83.1413 -15.6295C83.1604 -15.6508 83.1748 -15.6759 83.1835 -15.7031C83.1922 -15.7304 83.195 -15.7592 83.1918 -15.7876C83.1886 -15.8161 83.1793 -15.8435 83.1647 -15.8681C83.1502 -15.8927 83.1305 -15.914 83.1071 -15.9304C81.5965 -17.0188 80.204 -18.2253 78.9006 -19.521C78.8769 -19.545 78.8595 -19.5745 78.8499 -19.6068C78.8404 -19.6392 78.8389 -19.6733 78.8457 -19.7064C78.8525 -19.7394 78.8673 -19.7703 78.8888 -19.7962C78.9103 -19.8222 78.9379 -19.8424 78.9691 -19.8552C79.3582 -20.0112 79.7502 -20.1768 80.1279 -20.3492C80.1615 -20.3645 80.1987 -20.3701 80.2353 -20.3654C80.2719 -20.3607 80.3064 -20.3459 80.335 -20.3226C89.2146 -12.9925 100.167 -10.0577 111.403 -11.9981C111.44 -12.0048 111.477 -12.001 111.512 -11.9871C111.547 -11.9732 111.577 -11.9497 111.598 -11.9194C111.84 -11.5814 112.095 -11.2393 112.357 -10.9089C112.378 -10.8825 112.392 -10.8513 112.398 -10.8181C112.403 -10.785 112.401 -10.7509 112.391 -10.7189C112.38 -10.6869 112.362 -10.6579 112.338 -10.6345C112.314 -10.6112 112.284 -10.5941 112.252 -10.5848C110.47 -10.0978 108.65 -9.76213 106.812 -9.58146C106.784 -9.57849 106.756 -9.56952 106.731 -9.55514C106.706 -9.54076 106.685 -9.52129 106.668 -9.498C106.651 -9.47471 106.639 -9.44813 106.633 -9.41999C106.627 -9.39186 106.628 -9.3628 106.634 -9.33471C107.08 -7.28806 107.681 -5.29166 108.413 -3.35515C108.428 -3.31526 108.455 -3.28107 108.491 -3.25742C108.526 -3.23376 108.568 -3.22185 108.61 -3.22337C114.08 -3.43266 119.834 -4.4176 126.162 -6.88381C126.189 -6.89432 126.214 -6.91051 126.234 -6.9313C126.255 -6.9521 126.271 -6.97701 126.281 -7.00439C131.143 -19.994 130.799 -32.501 126.569 -44.64C126.561 -44.678 126.539 -44.7117 126.508 -44.7352L126.508 -44.7349ZM87.268 -24.9877C84.2221 -25.8039 82.4616 -29.2729 83.3818 -32.7073C84.302 -36.1413 87.5125 -38.2784 90.6073 -37.4491C93.7261 -36.6135 95.4556 -33.1265 94.4933 -29.7297C93.5731 -26.2956 90.3626 -24.1586 87.268 -24.9877ZM107.81 -19.4837C104.764 -20.2998 103.003 -23.7689 103.923 -27.2032C104.844 -30.6372 108.054 -32.7744 111.149 -31.9451C114.267 -31.1095 115.997 -27.6225 115.035 -24.2257C114.114 -20.7916 110.928 -18.648 107.81 -19.4837Z" fill="#121212"/>
</g>
<g opacity="0.1">
<path d="M266.691 71.3622C263.177 68.4485 259.298 66.0033 255.154 64.0877C255.117 64.0697 255.074 64.0641 255.034 64.0715C254.993 64.0789 254.955 64.0991 254.926 64.1291C254.124 64.9501 253.184 66.0497 252.497 66.9277C247.936 64.9431 243.209 63.6764 238.364 63.1408C238.214 62.0148 237.922 60.609 237.636 59.496C237.625 59.4562 237.602 59.4207 237.57 59.394C237.539 59.3673 237.5 59.3508 237.459 59.3465C232.912 58.9315 228.331 59.1099 223.83 59.8772C223.792 59.8826 223.756 59.8998 223.728 59.9264C212.506 69.7523 207.181 80.8429 205.167 92.6657C205.163 92.6948 205.164 92.7245 205.171 92.753C205.178 92.7815 205.191 92.8083 205.209 92.8318C209.456 98.1319 213.946 101.862 218.555 104.771C218.59 104.793 218.632 104.804 218.674 104.802C218.717 104.799 218.757 104.784 218.79 104.758C220.415 103.453 221.933 102.025 223.325 100.468C223.344 100.446 223.358 100.421 223.367 100.394C223.376 100.367 223.378 100.338 223.375 100.309C223.372 100.281 223.363 100.254 223.348 100.229C223.334 100.204 223.314 100.183 223.291 100.167C221.78 99.0783 220.387 97.8718 219.084 96.5761C219.06 96.5521 219.043 96.5226 219.033 96.4903C219.024 96.4579 219.022 96.4238 219.029 96.3907C219.036 96.3577 219.051 96.3268 219.072 96.3009C219.094 96.2749 219.121 96.2547 219.153 96.2419C219.542 96.0859 219.934 95.9203 220.311 95.748C220.345 95.7327 220.382 95.727 220.419 95.7317C220.455 95.7364 220.49 95.7512 220.518 95.7745C229.398 103.105 240.351 106.039 251.586 104.099C251.623 104.092 251.661 104.096 251.695 104.11C251.73 104.124 251.76 104.147 251.782 104.178C252.023 104.516 252.279 104.858 252.54 105.188C252.561 105.215 252.575 105.246 252.581 105.279C252.587 105.312 252.584 105.346 252.574 105.378C252.564 105.41 252.546 105.439 252.521 105.463C252.497 105.486 252.468 105.503 252.435 105.512C250.654 105.999 248.834 106.335 246.996 106.516C246.967 106.519 246.939 106.528 246.914 106.542C246.89 106.556 246.868 106.576 246.851 106.599C246.834 106.622 246.823 106.649 246.817 106.677C246.811 106.705 246.811 106.734 246.817 106.762C247.264 108.809 247.865 110.805 248.597 112.742C248.612 112.782 248.639 112.816 248.674 112.84C248.709 112.863 248.751 112.875 248.794 112.874C254.264 112.664 260.017 111.68 266.345 109.213C266.373 109.203 266.397 109.187 266.418 109.166C266.438 109.145 266.454 109.12 266.464 109.093C271.326 96.1032 270.982 83.5961 266.752 71.4571C266.744 71.4192 266.722 71.3854 266.692 71.3619L266.691 71.3622ZM227.451 91.1094C224.406 90.2932 222.645 86.8242 223.565 83.3898C224.485 79.9558 227.696 77.8187 230.791 78.648C233.91 79.4836 235.639 82.9706 234.677 86.3674C233.757 89.8015 230.546 91.9386 227.451 91.1094ZM247.993 96.6134C244.947 95.7973 243.187 92.3282 244.107 88.8939C245.027 85.4599 248.237 83.3227 251.332 84.152C254.451 84.9876 256.18 88.4746 255.218 91.8714C254.298 95.3055 251.112 97.4491 247.993 96.6134Z" fill="#121212"/>
</g>
</svg>
