<svg width="288" height="205" viewBox="0 0 288 205" fill="none" xmlns="http://www.w3.org/2000/svg">
<path d="M33.1967 100.233C32.5581 100.233 32.0047 99.6797 32.0047 99.0411C32.0047 98.4025 32.5581 97.8491 33.1967 97.8491C33.8352 97.8491 34.3887 98.4025 34.3887 99.0411C34.3887 99.6797 33.8352 100.233 33.1967 100.233Z" fill="#1A94E1"/>
<path d="M17.4456 12.8338C17.4456 13.4216 17.9221 13.8981 18.5099 13.8981C19.0977 13.8981 19.5742 13.4216 19.5742 12.8338C19.5742 12.246 19.0977 11.7695 18.5099 11.7695C17.9221 11.7695 17.4456 12.246 17.4456 12.8338Z" fill="#02E4D1"/>
<path d="M17.2326 12.8338C17.2326 12.1526 17.786 11.5566 18.5097 11.5566C19.1909 11.5566 19.7869 12.1101 19.7869 12.8338C19.7869 13.5575 19.2334 14.1109 18.5097 14.1109C17.786 14.0684 17.2326 13.5149 17.2326 12.8338ZM19.3186 12.8338C19.3186 12.3655 18.9354 11.9824 18.4671 11.9824C17.9989 11.9824 17.6157 12.3655 17.6157 12.8338C17.6157 13.3021 17.9989 13.6852 18.4671 13.6852C18.9354 13.6426 19.3186 13.3021 19.3186 12.8338Z" fill="#02E4D1"/>
<path d="M37.0709 64.0046C37.0709 64.2174 36.9006 64.4303 36.6452 64.4303C36.4324 64.4303 36.2195 64.26 36.2195 64.0046C36.2195 63.7917 36.3898 63.5789 36.6452 63.5789C36.9006 63.6214 37.0709 63.7917 37.0709 64.0046Z" fill="#02E4D1"/>
<path d="M36.049 64.0045C36.049 63.664 36.347 63.366 36.6876 63.366C37.0282 63.366 37.3262 63.664 37.3262 64.0045C37.3262 64.3451 37.0282 64.6431 36.6876 64.6431C36.347 64.6431 36.049 64.3451 36.049 64.0045ZM36.8579 64.0045C36.8579 63.8768 36.7727 63.7917 36.645 63.7917C36.5173 63.7917 36.4322 63.8768 36.4322 64.0045C36.4322 64.1323 36.5173 64.2174 36.645 64.2174C36.7727 64.2174 36.8579 64.1323 36.8579 64.0045Z" fill="#02E4D1"/>
<path d="M21.5323 47.785C21.1917 47.785 20.9363 47.5296 20.9363 47.189C20.9363 46.8484 21.1917 46.593 21.5323 46.593C21.8729 46.593 22.1283 46.8484 22.1283 47.189C22.1283 47.5296 21.8729 47.785 21.5323 47.785Z" fill="#111111"/>
<path d="M36.0067 166.985C35.6661 166.985 35.4107 166.73 35.4107 166.389C35.4107 166.048 35.6661 165.793 36.0067 165.793C36.3472 165.793 36.6027 166.048 36.6027 166.389C36.6027 166.73 36.3472 166.985 36.0067 166.985Z" fill="#111111"/>
<path d="M106.081 163.353C106.16 163.987 105.679 164.604 105.045 164.683C104.411 164.761 103.794 164.28 103.715 163.647C103.637 163.013 104.118 162.396 104.752 162.317C105.385 162.238 106.003 162.72 106.081 163.353Z" fill="#1A94E1"/>
<path d="M217.656 151.924C217.734 152.558 217.253 153.175 216.62 153.253C215.986 153.332 215.369 152.851 215.29 152.217C215.211 151.583 215.693 150.966 216.326 150.888C216.96 150.809 217.577 151.29 217.656 151.924Z" fill="#1A94E1"/>
<path d="M226.551 180.077C226.593 180.415 226.371 180.7 226.033 180.742C225.695 180.784 225.41 180.562 225.368 180.224C225.326 179.886 225.548 179.601 225.886 179.559C226.224 179.517 226.514 179.782 226.551 180.077Z" fill="#02E4D1"/>
<path d="M226.059 180.953C225.636 181.006 225.209 180.673 225.157 180.25C225.104 179.828 225.437 179.4 225.86 179.348C226.282 179.296 226.71 179.629 226.762 180.051C226.82 180.516 226.524 180.896 226.059 180.953ZM225.912 179.77C225.701 179.797 225.553 179.987 225.579 180.198C225.605 180.409 225.795 180.557 226.007 180.531C226.218 180.505 226.366 180.315 226.34 180.104C226.314 179.892 226.124 179.744 225.912 179.77Z" fill="#02E4D1"/>
<path d="M21.2835 189.737C21.8668 189.664 22.2811 189.133 22.2088 188.549C22.1365 187.966 21.605 187.552 21.0217 187.624C20.4383 187.697 20.0241 188.228 20.0964 188.811C20.1687 189.395 20.7002 189.809 21.2835 189.737Z" fill="#02E4D1"/>
<path d="M21.3098 189.948C20.6339 190.032 19.9743 189.556 19.8853 188.838C19.8015 188.162 20.2774 187.502 20.9956 187.413C21.7138 187.324 22.3311 187.805 22.4202 188.524C22.4669 189.247 21.9858 189.864 21.3098 189.948ZM21.0532 187.878C20.5885 187.936 20.2554 188.363 20.313 188.828C20.3706 189.292 20.798 189.625 21.2627 189.568C21.7274 189.51 22.0605 189.083 22.0029 188.618C21.903 188.159 21.5179 187.82 21.0532 187.878Z" fill="#02E4D1"/>
<path d="M69.6514 163.965C69.8626 163.939 70.0948 164.082 70.1262 164.335C70.1524 164.547 70.0096 164.779 69.7561 164.81C69.5449 164.836 69.3127 164.694 69.2813 164.44C69.2921 164.181 69.4401 163.991 69.6514 163.965Z" fill="#02E4D1"/>
<path d="M69.777 164.979C69.4391 165.021 69.1067 164.762 69.0648 164.424C69.0229 164.086 69.2819 163.754 69.6199 163.712C69.9579 163.67 70.2903 163.929 70.3322 164.267C70.3741 164.605 70.115 164.938 69.777 164.979ZM69.6775 164.177C69.5508 164.192 69.4768 164.287 69.4925 164.414C69.5082 164.541 69.6032 164.615 69.7299 164.599C69.8567 164.583 69.9307 164.488 69.915 164.362C69.8993 164.235 69.8043 164.161 69.6775 164.177Z" fill="#02E4D1"/>
<path d="M55.4665 181.381C55.5084 181.719 55.2863 182.004 54.9483 182.046C54.6103 182.088 54.3254 181.866 54.2835 181.528C54.2416 181.19 54.4637 180.905 54.8017 180.863C55.1397 180.821 55.4246 181.043 55.4665 181.381Z" fill="#111111"/>
<path d="M171.981 152.353C172.022 152.691 171.8 152.975 171.462 153.017C171.124 153.059 170.839 152.837 170.798 152.499C170.756 152.161 170.978 151.876 171.316 151.834C171.654 151.792 171.939 152.015 171.981 152.353Z" fill="#111111"/>
<path d="M167.229 71.1126C167.016 62.9815 165.867 24.9226 165.824 24.9226C120.485 26.5829 86.045 34.7566 86.045 44.5906C86.045 52.296 107.501 79.8823 138.067 74.05V73.0709C147.05 72.1343 156.884 71.4532 167.229 71.1126Z" fill="#A0AEC0"/>
<path opacity="0.15" d="M138.067 74.0927V73.1136C146.88 72.177 156.501 71.4958 166.675 71.1127C166.292 58.3413 165.867 44.4204 165.867 44.4204C132.32 45.655 104.777 50.4656 92.6863 56.8513C101.243 66.8981 117.633 77.9667 138.067 74.0927Z" fill="#121212"/>
<path d="M111.843 67.7923C111.673 67.7923 111.503 67.7072 111.375 67.5795C111.12 67.324 111.12 66.9409 111.375 66.6855L131.596 47.3155C131.767 47.1452 132.022 47.06 132.235 47.1026C132.49 47.1452 132.703 47.2729 132.831 47.4432L137.088 53.5735L152.84 33.352C153.01 33.1392 153.308 33.0114 153.606 33.054C153.904 33.0966 154.159 33.3094 154.244 33.5649L156.926 40.6743L171.869 22.2834C172.082 22.028 172.508 21.9854 172.763 22.1983C173.018 22.4112 173.061 22.8369 172.848 23.0923L157.395 42.1217C157.224 42.3346 156.926 42.4623 156.628 42.4197C156.33 42.3772 156.118 42.1643 155.99 41.9089L153.35 34.842L137.727 54.8932C137.556 55.106 137.301 55.1912 137.046 55.1912C136.79 55.1912 136.535 55.0635 136.407 54.8506L132.107 48.6352L112.269 67.6646C112.184 67.7497 112.014 67.7923 111.843 67.7923Z" fill="#02E4D1"/>
<path d="M172.721 27.6898C172.678 27.6898 172.678 27.6898 172.636 27.6898C172.295 27.6472 172.04 27.3492 172.082 26.9661L172.636 22.3258L168.123 23.7732C167.782 23.9009 167.442 23.6881 167.314 23.3475C167.186 23.0069 167.399 22.6664 167.74 22.5386L172.934 20.8358C173.189 20.7506 173.487 20.7932 173.7 20.9635C173.913 21.1338 174.04 21.4318 173.998 21.6872L173.359 27.0512C173.317 27.4344 173.061 27.6898 172.721 27.6898Z" fill="#02E4D1"/>
<path d="M134.534 54.5094H117.292C116.654 54.5094 116.1 53.9985 116.1 53.3174V38.2897C116.1 37.6511 116.611 37.0977 117.292 37.0977H134.534C135.172 37.0977 135.726 37.6085 135.726 38.2897V53.3599C135.683 53.9985 135.172 54.5094 134.534 54.5094Z" fill="#02E4D1"/>
<path d="M134.534 54.7227H117.292C116.526 54.7227 115.888 54.0841 115.888 53.3178V38.2901C115.888 37.5238 116.526 36.8853 117.292 36.8853H134.534C135.3 36.8853 135.939 37.5238 135.939 38.2901V53.3604C135.896 54.0841 135.3 54.7227 134.534 54.7227ZM117.292 37.311C116.782 37.311 116.313 37.7367 116.313 38.2901V53.3604C116.313 53.8713 116.739 54.3395 117.292 54.3395H134.534C135.045 54.3395 135.513 53.9138 135.513 53.3604V38.2901C135.513 37.7793 135.087 37.311 134.534 37.311H117.292Z" fill="#02E4D1"/>
<path d="M131.597 49.7841H120.358C120.017 49.7841 119.719 49.4861 119.719 49.1455V41.5678C119.719 41.2272 120.017 40.9292 120.358 40.9292H131.554C131.895 40.9292 132.193 41.2272 132.193 41.5678V49.1455C132.235 49.4861 131.937 49.7841 131.597 49.7841Z" fill="#EDF2F7"/>
<path d="M119.719 50.2948C119.677 50.2948 119.592 50.2523 119.549 50.2097C119.464 50.1245 119.506 49.9968 119.592 49.9117L125.679 44.8031C125.764 44.718 125.85 44.718 125.935 44.8031L132.193 49.8265C132.278 49.9117 132.278 50.0394 132.235 50.1245C132.15 50.2097 132.022 50.2097 131.937 50.1671L125.807 45.2288L119.847 50.2097C119.804 50.2948 119.762 50.2948 119.719 50.2948Z" fill="#02E4D1"/>
<path d="M119.719 41.0997L124.402 44.846C125.253 45.5271 126.488 45.5271 127.339 44.846L132.022 41.0571" fill="#EDF2F7"/>
<path d="M125.892 45.5696C125.339 45.5696 124.785 45.3993 124.274 45.0162L119.592 41.2699C119.506 41.1847 119.464 41.057 119.549 40.9719C119.634 40.8867 119.762 40.8442 119.847 40.9293L124.53 44.6756C125.339 45.3142 126.403 45.3142 127.212 44.6756L131.895 40.8867C131.98 40.8016 132.108 40.8442 132.193 40.9293C132.278 41.0145 132.235 41.1422 132.15 41.2273L127.467 45.0162C127.042 45.3993 126.446 45.5696 125.892 45.5696Z" fill="#02E4D1"/>
<path d="M280.001 44.5903C280.001 36.1611 254.628 28.924 218.698 25.9866C218.57 25.9866 218.485 59.7457 218.485 69.9203C229.043 70.7717 238.664 72.0063 247.05 73.4963C267.101 68.4729 280.001 50.5929 280.001 44.5903Z" fill="#A0AEC0"/>
<path opacity="0.15" d="M272.253 58.1285C262.121 53.2328 242.793 49.3588 218.74 47.3579C218.655 47.3579 218.613 58.5116 218.57 69.9208C229.085 70.7722 238.749 72.0068 247.093 73.4968C257.778 70.8148 266.463 64.4291 272.253 58.1285Z" fill="#121212"/>
<path d="M247.008 56.9361H231.767C231.171 56.9361 230.703 56.4678 230.703 55.8718V40.5887C230.703 39.9927 231.171 39.5244 231.767 39.5244H247.008C247.604 39.5244 248.072 39.9927 248.072 40.5887V55.8293C248.115 56.4678 247.604 56.9361 247.008 56.9361Z" fill="#111111"/>
<path d="M240.111 53.2323C240.026 53.2323 239.898 53.1897 239.813 53.1046C239.728 53.0195 239.685 52.9343 239.685 52.8066V47.8683H234.747C234.619 47.8683 234.534 47.8257 234.449 47.7406C234.364 47.6555 234.321 47.5703 234.321 47.4426C234.364 45.91 235.088 44.42 236.237 43.4409C237.429 42.4192 238.919 41.9509 240.494 42.1212C243.049 42.4192 245.135 44.4626 245.39 47.0169C245.56 48.592 245.092 50.082 244.07 51.274C243.091 52.466 241.644 53.1897 240.111 53.2323ZM239.898 47.4426H240.111V52.8066C241.516 52.7215 242.878 52.0829 243.815 51.0186C244.751 49.9117 245.177 48.5069 245.049 47.0595C244.794 44.718 242.878 42.8023 240.537 42.5469C239.089 42.3766 237.685 42.8023 236.578 43.7815C235.513 44.718 234.832 46.0803 234.79 47.4852L239.898 47.4426Z" fill="#EDF2F7"/>
<path d="M238.664 54.6798C238.621 54.6798 238.664 54.6798 238.664 54.6798C235.556 54.5521 233.044 52.0404 232.917 48.9326C232.917 48.8049 232.959 48.6772 233.044 48.5921C233.129 48.5069 233.257 48.4644 233.385 48.4644H238.706C238.962 48.4644 239.132 48.6772 239.132 48.8901V54.2115C239.132 54.3392 239.089 54.4669 239.004 54.5521C238.877 54.6372 238.749 54.6798 238.664 54.6798ZM233.342 48.8901C233.427 51.7849 235.769 54.1264 238.664 54.2115V48.8901H233.342Z" fill="#1A94E1"/>
<path d="M271.316 43.1428H246.88C246.241 43.1428 245.688 42.632 245.688 41.9508V19.7711C245.688 19.1325 246.199 18.5791 246.88 18.5791H271.316C271.955 18.5791 272.508 19.09 272.508 19.7711V41.9508C272.465 42.632 271.955 43.1428 271.316 43.1428Z" fill="#02E4D1"/>
<path d="M271.316 43.3559H246.88C246.114 43.3559 245.475 42.7173 245.475 41.951V19.7713C245.475 19.005 246.114 18.3665 246.88 18.3665H271.316C272.082 18.3665 272.721 19.005 272.721 19.7713V41.951C272.678 42.7173 272.082 43.3559 271.316 43.3559ZM246.88 18.7922C246.369 18.7922 245.901 19.2179 245.901 19.7713V41.951C245.901 42.4619 246.327 42.9302 246.88 42.9302H271.316C271.827 42.9302 272.295 42.5045 272.295 41.951V19.7713C272.295 19.2605 271.869 18.7922 271.316 18.7922H246.88Z" fill="#02E4D1"/>
<path d="M259.098 38.7154C263.424 38.7154 266.931 35.2083 266.931 30.8822C266.931 26.5561 263.424 23.0491 259.098 23.0491C254.772 23.0491 251.265 26.5561 251.265 30.8822C251.265 35.2083 254.772 38.7154 259.098 38.7154Z" fill="#EDF2F7"/>
<path d="M261.78 31.0952H258.885V26.4975C258.885 26.3698 258.97 26.2847 259.098 26.2847C259.226 26.2847 259.311 26.3698 259.311 26.4975V30.6695H261.78C261.908 30.6695 261.993 30.7547 261.993 30.8824C261.993 30.9675 261.908 31.0952 261.78 31.0952Z" fill="#02E4D1"/>
<path d="M221.635 52.4236C224.668 52.4236 227.127 49.9649 227.127 46.9319C227.127 43.8989 224.668 41.4402 221.635 41.4402C218.602 41.4402 216.143 43.8989 216.143 46.9319C216.143 49.9649 218.602 52.4236 221.635 52.4236Z" fill="#F7FAFC"/>
<path d="M221.55 48.4642C221.422 48.4642 221.295 48.4216 221.167 48.2939L219.209 46.3356C219.123 46.2505 219.123 46.1228 219.209 46.0376C219.294 45.9525 219.421 45.9525 219.507 46.0376L221.465 47.9959C221.507 48.0385 221.55 48.0385 221.593 47.9959L226.701 42.8873C226.786 42.8022 226.914 42.8022 226.999 42.8873C227.084 42.9725 227.084 43.1002 226.999 43.1853L221.891 48.2939C221.805 48.4216 221.678 48.4642 221.55 48.4642Z" fill="#111111"/>
<path d="M223.168 17.217C222.359 17.217 221.678 17.8982 221.678 18.707V28.9668C221.678 29.7756 222.359 30.4568 223.168 30.4568H225.892C227.084 30.4568 228.021 31.4359 228.021 32.5853V35.0119C228.021 35.4802 228.361 35.6505 228.489 35.6931C228.574 35.7356 228.957 35.8633 229.298 35.5228L233.768 31.0953C234.151 30.7122 234.705 30.4568 235.301 30.4568H240.792C241.601 30.4568 242.282 29.7756 242.282 28.9668V18.707C242.282 17.8982 241.601 17.217 240.792 17.217H223.168Z" fill="#F7FAFC"/>
<path d="M227.34 25.6888C226.531 25.6888 225.892 25.0502 225.892 24.2414C225.892 23.4325 226.531 22.7939 227.34 22.7939C228.148 22.7939 228.787 23.4325 228.787 24.2414C228.787 25.0502 228.148 25.6888 227.34 25.6888ZM227.34 23.2622C226.786 23.2622 226.318 23.7305 226.318 24.2839C226.318 24.8374 226.786 25.3057 227.34 25.3057C227.893 25.3057 228.361 24.8374 228.361 24.2839C228.361 23.6879 227.936 23.2622 227.34 23.2622Z" fill="#111111"/>
<path d="M231.937 25.6888C231.129 25.6888 230.49 25.0502 230.49 24.2414C230.49 23.4325 231.129 22.7939 231.937 22.7939C232.746 22.7939 233.385 23.4325 233.385 24.2414C233.385 25.0502 232.746 25.6888 231.937 25.6888ZM231.937 23.2622C231.384 23.2622 230.916 23.7305 230.916 24.2839C230.916 24.8374 231.384 25.3057 231.937 25.3057C232.491 25.3057 232.959 24.8374 232.959 24.2839C232.959 23.6879 232.491 23.2622 231.937 23.2622Z" fill="#111111"/>
<path d="M236.45 25.6888C235.641 25.6888 235.003 25.0502 235.003 24.2414C235.003 23.4325 235.641 22.7939 236.45 22.7939C237.259 22.7939 237.897 23.4325 237.897 24.2414C237.897 25.0502 237.259 25.6888 236.45 25.6888ZM236.45 23.2622C235.897 23.2622 235.428 23.7305 235.428 24.2839C235.428 24.8374 235.897 25.3057 236.45 25.3057C237.003 25.3057 237.472 24.8374 237.472 24.2839C237.472 23.6879 237.003 23.2622 236.45 23.2622Z" fill="#111111"/>
<path d="M104.947 27.0085C104.479 27.0085 104.095 27.3917 104.095 27.86V33.82C104.095 34.2883 104.479 34.6714 104.947 34.6714H108.097C108.438 34.6714 108.736 34.7991 108.991 35.0545L111.588 37.6514C111.758 37.8217 111.971 37.7791 112.056 37.7365C112.099 37.694 112.312 37.6088 112.312 37.3534V35.9485C112.312 35.2674 112.865 34.714 113.546 34.714H115.121C115.59 34.714 115.973 34.3308 115.973 33.8625V27.9025C115.973 27.4343 115.59 27.0511 115.121 27.0511H104.947V27.0085Z" fill="#1A94E1"/>
<path d="M112.695 32.0321C112.184 32.0321 111.758 31.6064 111.758 31.0955C111.758 30.5846 112.184 30.1589 112.695 30.1589C113.206 30.1589 113.631 30.5846 113.631 31.0955C113.631 31.6064 113.206 32.0321 112.695 32.0321ZM112.695 30.5846C112.439 30.5846 112.184 30.7975 112.184 31.0955C112.184 31.3509 112.397 31.6064 112.695 31.6064C112.95 31.6064 113.206 31.3935 113.206 31.0955C113.206 30.7975 112.993 30.5846 112.695 30.5846Z" fill="#111111"/>
<path d="M110.055 32.0321C109.544 32.0321 109.119 31.6064 109.119 31.0955C109.119 30.5846 109.544 30.1589 110.055 30.1589C110.566 30.1589 110.992 30.5846 110.992 31.0955C110.992 31.6064 110.566 32.0321 110.055 32.0321ZM110.055 30.5846C109.8 30.5846 109.544 30.7975 109.544 31.0955C109.544 31.3509 109.757 31.6064 110.055 31.6064C110.311 31.6064 110.566 31.3935 110.566 31.0955C110.566 30.7975 110.311 30.5846 110.055 30.5846Z" fill="#111111"/>
<path d="M107.416 32.0321C106.905 32.0321 106.479 31.6064 106.479 31.0955C106.479 30.5846 106.905 30.1589 107.416 30.1589C107.927 30.1589 108.353 30.5846 108.353 31.0955C108.353 31.6064 107.927 32.0321 107.416 32.0321ZM107.416 30.5846C107.161 30.5846 106.905 30.7975 106.905 31.0955C106.905 31.3509 107.118 31.6064 107.416 31.6064C107.671 31.6064 107.927 31.3935 107.927 31.0955C107.927 30.7975 107.714 30.5846 107.416 30.5846Z" fill="#111111"/>
<path d="M169.059 4.95665C169.059 5.59522 168.506 6.14865 167.867 6.14865C167.229 6.14865 166.675 5.59522 166.675 4.95665C166.675 4.31808 167.229 3.76465 167.867 3.76465C168.506 3.76465 169.059 4.31808 169.059 4.95665Z" fill="#1A94E1"/>
<path d="M85.7897 120.282C86.448 120.282 86.9817 119.749 86.9817 119.09C86.9817 118.432 86.448 117.898 85.7897 117.898C85.1313 117.898 84.5977 118.432 84.5977 119.09C84.5977 119.749 85.1313 120.282 85.7897 120.282Z" fill="#1A94E1"/>
<path d="M253.351 122.922C253.351 123.561 252.797 124.114 252.159 124.114C251.52 124.114 250.967 123.561 250.967 122.922C250.967 122.283 251.52 121.73 252.159 121.73C252.797 121.73 253.351 122.283 253.351 122.922Z" fill="#1A94E1"/>
<path d="M281.193 7.34044C281.193 7.97901 280.639 8.53244 280.001 8.53244C279.362 8.53244 278.809 7.97901 278.809 7.34044C278.809 6.70187 279.362 6.14844 280.001 6.14844C280.639 6.14844 281.193 6.70187 281.193 7.34044Z" fill="#1A94E1"/>
<path d="M286.557 36.3743C286.557 36.7149 286.301 36.9703 285.961 36.9703C285.62 36.9703 285.365 36.7149 285.365 36.3743C285.365 36.0337 285.62 35.7783 285.961 35.7783C286.301 35.7783 286.557 36.0763 286.557 36.3743Z" fill="#02E4D1"/>
<path d="M285.961 37.1831C285.535 37.1831 285.152 36.8 285.152 36.3743C285.152 35.9486 285.535 35.5654 285.961 35.5654C286.386 35.5654 286.77 35.9486 286.77 36.3743C286.77 36.8426 286.429 37.1831 285.961 37.1831ZM285.961 35.9911C285.748 35.9911 285.578 36.1614 285.578 36.3743C285.578 36.5871 285.748 36.7574 285.961 36.7574C286.174 36.7574 286.344 36.5871 286.344 36.3743C286.344 36.1614 286.174 35.9911 285.961 35.9911Z" fill="#02E4D1"/>
<path d="M121.124 123.518C121.124 123.859 120.869 124.114 120.528 124.114C120.187 124.114 119.932 123.859 119.932 123.518C119.932 123.178 120.187 122.922 120.528 122.922C120.869 122.922 121.124 123.178 121.124 123.518Z" fill="#02E4D1"/>
<path d="M120.528 124.327C120.102 124.327 119.719 123.944 119.719 123.518C119.719 123.092 120.102 122.709 120.528 122.709C120.954 122.709 121.337 123.092 121.337 123.518C121.337 123.986 120.996 124.327 120.528 124.327ZM120.528 123.135C120.315 123.135 120.145 123.305 120.145 123.518C120.145 123.731 120.315 123.901 120.528 123.901C120.741 123.901 120.911 123.731 120.911 123.518C120.911 123.305 120.741 123.135 120.528 123.135Z" fill="#02E4D1"/>
<path d="M81.6602 20.7077C82.248 20.7077 82.7245 20.2312 82.7245 19.6434C82.7245 19.0556 82.248 18.5791 81.6602 18.5791C81.0724 18.5791 80.5959 19.0556 80.5959 19.6434C80.5959 20.2312 81.0724 20.7077 81.6602 20.7077Z" fill="#02E4D1"/>
<path d="M81.6603 20.9207C80.9792 20.9207 80.3832 20.3673 80.3832 19.6436C80.3832 18.9625 80.9366 18.3665 81.6603 18.3665C82.384 18.3665 82.9375 18.9199 82.9375 19.6436C82.8949 20.3673 82.3415 20.9207 81.6603 20.9207ZM81.6603 18.8347C81.192 18.8347 80.8089 19.2179 80.8089 19.6862C80.8089 20.1545 81.192 20.5376 81.6603 20.5376C82.1286 20.5376 82.5118 20.1545 82.5118 19.6862C82.4692 19.2179 82.1286 18.8347 81.6603 18.8347Z" fill="#02E4D1"/>
<path d="M132.831 1.08252C133.044 1.08252 133.257 1.25281 133.257 1.50823C133.257 1.72109 133.086 1.93395 132.831 1.93395C132.618 1.93395 132.405 1.76366 132.405 1.50823C132.448 1.25281 132.618 1.08252 132.831 1.08252Z" fill="#02E4D1"/>
<path d="M132.831 2.10429C132.491 2.10429 132.193 1.80629 132.193 1.46572C132.193 1.12515 132.491 0.827148 132.831 0.827148C133.172 0.827148 133.47 1.12515 133.47 1.46572C133.47 1.80629 133.172 2.10429 132.831 2.10429ZM132.831 1.29543C132.703 1.29543 132.618 1.38058 132.618 1.50829C132.618 1.63601 132.703 1.72115 132.831 1.72115C132.959 1.72115 133.044 1.63601 133.044 1.50829C133.044 1.38058 132.959 1.29543 132.831 1.29543Z" fill="#02E4D1"/>
<path d="M116.611 16.6211C116.611 16.9617 116.356 17.2171 116.015 17.2171C115.675 17.2171 115.419 16.9617 115.419 16.6211C115.419 16.2806 115.675 16.0251 116.015 16.0251C116.356 16.0251 116.611 16.2806 116.611 16.6211Z" fill="#111111"/>
<path d="M81.192 70.3038C81.192 70.6443 80.9366 70.8998 80.596 70.8998C80.2554 70.8998 80 70.6443 80 70.3038C80 69.9632 80.2554 69.7078 80.596 69.7078C80.9366 69.7078 81.192 69.9632 81.192 70.3038Z" fill="#111111"/>
<path d="M235.812 2.14678C235.812 2.48735 235.556 2.74278 235.216 2.74278C234.875 2.74278 234.62 2.48735 234.62 2.14678C234.62 1.80621 234.875 1.55078 235.216 1.55078C235.556 1.55078 235.812 1.80621 235.812 2.14678Z" fill="#111111"/>
<path d="M287.153 109.299C287.153 109.639 286.897 109.895 286.557 109.895C286.216 109.895 285.961 109.639 285.961 109.299C285.961 108.958 286.216 108.703 286.557 108.703C286.897 108.703 287.153 109.001 287.153 109.299Z" fill="#111111"/>
<path d="M86.045 44.5906V94.7823C86.045 102.488 107.16 109.171 138.067 112.492V77.0726V62.3003C107.16 58.9797 86.045 52.296 86.045 44.5906Z" fill="#E2E8F0"/>
<path d="M132.661 73.0282C132.618 73.0282 132.618 73.0282 132.661 73.0282C107.118 70.261 91.2814 64.8119 91.2814 58.8093C91.2814 58.6816 91.3665 58.5964 91.4942 58.5964C91.6219 58.5964 91.7071 58.6816 91.7071 58.8093C91.7071 64.5139 107.799 69.9204 132.703 72.6024C132.831 72.6024 132.916 72.7302 132.874 72.8579C132.831 72.943 132.746 73.0282 132.661 73.0282Z" fill="#F6EEE3"/>
<path d="M110.736 77.7537H110.694C106.735 76.8171 103.286 75.7954 100.434 74.7311C100.306 74.6886 100.264 74.5608 100.306 74.4757C100.349 74.348 100.477 74.3054 100.562 74.348C103.372 75.4123 106.82 76.434 110.736 77.3706C110.864 77.4131 110.907 77.4983 110.907 77.626C110.949 77.6686 110.864 77.7537 110.736 77.7537Z" fill="#F6EEE3"/>
<path d="M132.661 81.2869C132.618 81.2869 132.618 81.2869 132.661 81.2869C127.212 80.6909 122.103 79.9672 117.463 79.1157C117.335 79.1157 117.25 78.988 117.293 78.8603C117.293 78.7326 117.42 78.6475 117.548 78.69C122.146 79.5415 127.254 80.2652 132.703 80.8186C132.831 80.8186 132.916 80.9463 132.874 81.074C132.831 81.2017 132.746 81.2869 132.661 81.2869Z" fill="#111111"/>
<path d="M92.6436 94.4416L98.5184 96.3147V87.9282L92.6436 85.6719V94.4416Z" fill="#111111"/>
<path d="M98.7312 96.6128L92.4307 94.612V80.2654L98.7312 82.692V96.6128ZM92.8564 94.2714L98.3055 96.0168V82.9474L92.8564 80.8614V94.2714Z" fill="#F6EEE3"/>
<path d="M107.203 99.2098L100.903 97.2089V89.248L107.203 91.6746V99.2098ZM101.328 96.9109L106.777 98.6563V91.9726L101.328 89.844V96.9109Z" fill="#F6EEE3"/>
<path d="M280 44.5906V94.7823C280 101.125 265.611 106.787 243.176 110.491C242.538 110.576 242.41 60.4272 242.963 60.342C265.484 56.6809 280 50.9763 280 44.5906Z" fill="#E2E8F0"/>
<path d="M264.377 65.5356C264.292 65.5356 264.207 65.4504 264.164 65.3653C264.121 65.2376 264.207 65.1524 264.334 65.1098C269.656 63.8327 273.657 62.3853 276.212 60.8101C276.297 60.7676 276.425 60.7676 276.51 60.8953C276.552 60.9804 276.552 61.1081 276.425 61.1933C273.828 62.811 269.783 64.2584 264.419 65.5356H264.377Z" fill="#111111"/>
<path d="M264.675 72.3898C264.59 72.3898 264.505 72.3046 264.462 72.2195C264.419 72.0918 264.505 72.0066 264.632 71.9641C269.826 70.7295 273.743 69.3246 276.212 67.7921C276.297 67.7495 276.425 67.7495 276.51 67.8772C276.552 67.9623 276.552 68.0901 276.425 68.1752C273.913 69.7504 269.954 71.1552 264.717 72.3898H264.675Z" fill="#F6EEE3"/>
<path opacity="0.69" d="M126.062 100.061L117.803 91.5469C117.548 91.2915 117.548 90.9083 117.803 90.6529C118.059 90.3975 118.442 90.3975 118.697 90.6529L126.105 98.2732L134.661 90.2698L145.177 98.4435C145.475 98.6563 145.517 99.0821 145.304 99.3375C145.091 99.6355 144.666 99.6781 144.41 99.4652L134.747 91.9726L126.062 100.061Z" fill="#1B1F38"/>
<path d="M120.4 91.0785C120.4 92.2705 119.421 93.2071 118.272 93.2071C117.08 93.2071 116.143 92.228 116.143 91.0785C116.143 89.8865 117.122 88.95 118.272 88.95C119.421 88.95 120.4 89.9291 120.4 91.0785Z" fill="#1A94E1"/>
<path d="M136.79 91.0785C136.79 92.2705 135.811 93.2071 134.662 93.2071C133.47 93.2071 132.533 92.228 132.533 91.0785C132.533 89.8865 133.512 88.95 134.662 88.95C135.854 88.95 136.79 89.9291 136.79 91.0785Z" fill="#1A94E1"/>
<path d="M128.191 98.9118C128.191 100.104 127.212 101.04 126.062 101.04C124.87 101.04 123.934 100.061 123.934 98.9118C123.934 97.7198 124.913 96.7832 126.062 96.7832C127.254 96.7832 128.191 97.7198 128.191 98.9118Z" fill="#1A94E1"/>
<path d="M146.88 98.9118C146.88 100.104 145.9 101.04 144.751 101.04C143.559 101.04 142.622 100.061 142.622 98.9118C142.622 97.7198 143.602 96.7832 144.751 96.7832C145.943 96.7832 146.88 97.7198 146.88 98.9118Z" fill="#1A94E1"/>
<path d="M231.852 73.9221H228.404V98.4858H231.852V73.9221Z" fill="#02E4D1"/>
<path d="M232.065 98.6989H228.191V73.7095H232.065V98.6989ZM228.617 98.2732H231.64V74.1352H228.617V98.2732Z" fill="#02E4D1"/>
<path d="M238.664 98.6989H234.79V67.0684H238.664V98.6989ZM235.216 98.2732H238.238V67.4941H235.216V98.2732Z" fill="#111111"/>
<path d="M252.372 98.6989H248.498V67.0684H252.372V98.6989ZM248.923 98.2732H251.946V67.4941H248.923V98.2732Z" fill="#111111"/>
<path opacity="0.46" d="M258.544 62.5557H255.096V98.486H258.544V62.5557Z" fill="white"/>
<path d="M258.544 75.0291H255.096V98.4859H258.544V75.0291Z" fill="#02E4D1"/>
<path d="M258.758 98.6987H254.884V74.8162H258.758V98.6987ZM255.309 98.273H258.332V75.2419H255.309V98.273Z" fill="#02E4D1"/>
<path d="M245.475 76.4766H242.027V98.486H245.475V76.4766Z" fill="#02E4D1"/>
<path d="M245.688 98.6988H241.814V76.2637H245.688V98.6988ZM242.24 98.2731H245.262V76.6894H242.24V98.2731Z" fill="#02E4D1"/>
<path d="M231.682 198.784C232.321 189.163 229.17 179.627 222.699 171.624L219.209 167.324L215.888 163.195L213.504 160.257L189.877 161.662L166.25 160.257L163.866 163.195L160.545 167.324L157.054 171.624C152.329 177.456 149.391 184.097 148.412 191.036C148.37 191.334 147.816 197.337 147.093 204.617H231.469L231.682 198.784Z" fill="#111111"/>
<path d="M158.672 205H158.629C158.416 204.957 158.246 204.787 158.246 204.532C158.715 199.806 159.098 195.677 159.353 193.25C159.481 191.718 159.566 191.079 159.566 190.951C160.588 183.97 163.61 177.201 168.336 171.326C168.463 171.156 168.761 171.113 168.932 171.241C169.102 171.368 169.145 171.666 169.017 171.837C164.419 177.541 161.439 184.182 160.46 191.036C160.46 191.122 160.375 192.016 160.247 193.293C160.034 195.762 159.608 199.891 159.14 204.617C159.055 204.872 158.885 205 158.672 205Z" fill="#02E4D1"/>
<path d="M220.103 72.5174C219.507 68.3454 217.378 64.7268 214.27 61.9171C213.546 61.1508 212.865 60.5123 212.269 59.9163C210.098 57.8728 207.118 55.7868 206.99 52.9771C206.48 43.2708 191.282 35.8208 186.386 40.078C186.258 40.2057 182.086 38.0346 176.296 39.2266C175.147 35.2674 171.528 32.3726 167.229 32.3726C161.992 32.3726 157.778 36.5871 157.778 41.8234C157.778 45.442 159.821 48.5923 162.801 50.1674C162.674 50.5931 162.546 51.0189 162.376 51.4446C160.502 56.5106 157.48 60.2143 152.967 64.0883L152.371 64.5991C144.07 71.7937 144.751 83.8414 151.094 89.0777L152.925 90.6103C153.223 90.8657 153.521 91.0786 153.819 91.2914C154.926 92.0577 155.479 93.2497 155.309 94.4843C155.011 96.7831 155.181 99.1671 155.947 101.551C158.8 110.406 168.889 116.238 179.83 115.174C187.408 114.45 193.836 110.789 197.667 105.723C202.265 99.678 207.884 94.1863 213.674 88.9074C218.442 84.6077 220.997 78.6477 220.103 72.5174Z" fill="#111111"/>
<path d="M207.374 76.4342L205.841 59.5333L198.348 59.4056L198.05 53.8713L195.752 59.1076L189.153 58.3413L187.62 55.7445C187.237 55.1059 186.599 54.8505 185.96 54.8931C185.449 60.9808 182.554 66.3022 179.617 66.7705L175.658 65.9191V65.8339L174.423 65.8765C171.145 65.9616 168.548 68.6862 168.591 71.9642V72.0919C168.676 75.3699 171.401 77.9668 174.679 77.9242L177.105 77.8816L176.254 99.7208C176.211 105.596 181.49 109.001 186.982 109.044H187.195C192.686 109.087 197.156 104.276 197.199 98.4011L197.242 90.7382C203.585 89.0779 207.97 83.1179 207.374 76.4342Z" fill="white"/>
<path d="M173.955 73.9224C173.827 73.9224 173.657 73.8372 173.614 73.7095C173.487 73.4967 173.529 73.2412 173.742 73.1135L175.275 72.1344L173.572 70.1761C173.402 70.0058 173.444 69.7504 173.614 69.5801C173.785 69.4098 174.04 69.4524 174.21 69.6227L176.254 71.9641C176.339 72.0492 176.382 72.1769 176.339 72.3047C176.339 72.4324 176.254 72.5175 176.126 72.6027L174.168 73.8372C174.083 73.8798 174.04 73.9224 173.955 73.9224Z" fill="#A0AEC0"/>
<path d="M197.284 90.7808C197.284 90.7808 185.577 91.2491 183.661 87.0771C181.746 82.9051 183.661 87.0771 183.661 87.0771C183.661 87.0771 183.108 93.4203 197.157 96.826L197.284 90.7808Z" fill="#A0AEC0"/>
<path d="M205.288 67.7497C205.288 68.3882 204.734 68.8991 204.096 68.8565C203.457 68.8565 202.946 68.3031 202.989 67.6645C202.989 67.0259 203.542 66.5151 204.181 66.5577C204.819 66.6002 205.33 67.1111 205.288 67.7497Z" fill="#111111"/>
<path d="M193.112 67.7497C193.112 68.3882 192.559 68.8991 191.92 68.8565C191.282 68.8565 190.771 68.3031 190.813 67.6645C190.813 67.0259 191.367 66.5151 192.005 66.5577C192.601 66.6002 193.112 67.1111 193.112 67.7497Z" fill="#111111"/>
<path d="M190.643 73.8374C187.621 73.8374 185.151 70.9851 185.109 67.4943C185.109 65.4083 187.876 64.4717 190.601 64.4291C193.368 64.3865 196.135 65.3231 196.135 67.4091C196.177 70.9426 193.751 73.8374 190.643 73.8374C190.686 73.8374 190.686 73.8374 190.643 73.8374ZM190.728 65.7063C190.686 65.7063 190.686 65.7063 190.643 65.7063C188.259 65.7063 186.429 66.5151 186.429 67.4943C186.429 70.304 188.344 72.6028 190.686 72.6028C190.686 72.6028 190.686 72.6028 190.728 72.6028C193.07 72.6028 194.943 70.2614 194.943 67.4517C194.9 66.4725 193.07 65.7063 190.728 65.7063Z" fill="#1A94E1"/>
<path d="M204.096 73.5819C202.606 73.5819 201.244 72.9007 200.179 71.7087C199.158 70.5167 198.562 68.9416 198.562 67.2387C198.562 65.1527 201.329 64.2162 204.053 64.1736C205.416 64.1736 206.693 64.3864 207.672 64.8122C208.906 65.323 209.588 66.1744 209.588 67.1536C209.588 68.8564 209.034 70.4316 208.055 71.6662C207.033 72.9007 205.628 73.5819 204.096 73.5819ZM204.138 65.4507C204.096 65.4507 204.096 65.4507 204.053 65.4507C201.669 65.4507 199.839 66.2596 199.839 67.2387C199.839 68.6436 200.307 69.9207 201.158 70.8999C201.967 71.8364 203.032 72.3473 204.138 72.3473C205.245 72.3473 206.31 71.7939 207.076 70.8573C207.885 69.8782 208.353 68.5584 208.31 67.1962C208.31 66.217 206.48 65.4507 204.138 65.4507Z" fill="#1A94E1"/>
<path d="M197.156 65.7063L197.242 69.5377C197.242 70.006 197.625 70.3892 198.093 70.3892H198.944C199.583 70.3892 200.136 70.9 200.136 71.5386C200.179 73.1137 198.902 74.4334 197.327 74.476L196.007 74.5186" fill="white"/>
<path d="M195.965 74.9019C195.752 74.9019 195.539 74.7316 195.539 74.4762C195.539 74.2208 195.709 74.0505 195.965 74.0505L197.284 74.0079C197.923 74.0079 198.561 73.7099 198.987 73.2416C199.455 72.7733 199.668 72.1348 199.668 71.4962C199.668 71.2833 199.583 71.113 199.455 70.9853C199.328 70.8576 199.115 70.7725 198.945 70.7725H198.093C197.753 70.7725 197.412 70.6448 197.199 70.4319C196.944 70.1765 196.816 69.8785 196.816 69.5379L196.731 65.7065C196.731 65.451 196.901 65.2808 197.157 65.2808C197.369 65.2808 197.582 65.451 197.582 65.7065L197.667 69.5379C197.667 69.6656 197.71 69.7508 197.795 69.8359C197.88 69.921 197.965 69.9636 198.093 69.9636H198.945C199.37 69.9636 199.753 70.1339 200.094 70.3893C200.392 70.6873 200.562 71.0705 200.562 71.4962C200.562 72.3902 200.264 73.199 199.626 73.8376C199.03 74.4762 198.178 74.8168 197.284 74.8593L195.965 74.9019Z" fill="#A0AEC0"/>
<path d="M185.705 68.6011C185.662 68.6011 185.577 68.6011 185.535 68.5585L176.595 65.8339C176.254 65.7488 176.084 65.3656 176.169 65.025C176.254 64.6845 176.637 64.5142 176.978 64.5993L185.918 67.3239C186.258 67.4091 186.429 67.7922 186.343 68.1328C186.258 68.4308 186.003 68.6011 185.705 68.6011Z" fill="#1A94E1"/>
<path d="M195.454 68.9843C195.241 68.9843 195.071 68.8991 194.943 68.7288C194.73 68.4308 194.815 68.0477 195.113 67.8348C195.965 67.2388 197.965 66.4726 199.668 67.8348C199.924 68.0477 200.009 68.4734 199.753 68.7288C199.541 68.9843 199.115 69.0694 198.859 68.814C197.497 67.7071 195.922 68.814 195.837 68.8566C195.709 68.9843 195.581 68.9843 195.454 68.9843Z" fill="#1A94E1"/>
<path d="M198.178 84.8634C198.136 84.8634 198.05 84.8634 198.008 84.8634C197.965 84.8208 196.688 84.3099 195.752 85.3316C195.666 85.4168 195.496 85.4168 195.411 85.3316C195.326 85.2465 195.326 85.0762 195.411 84.9911C196.56 83.7139 198.221 84.3951 198.221 84.3951C198.348 84.4376 198.391 84.6079 198.348 84.6931C198.306 84.7782 198.221 84.8208 198.178 84.8634Z" fill="#A0AEC0"/>
<path d="M187.791 63.2373C188.259 63.3224 188.77 63.1521 189.323 63.0244C189.834 62.8967 190.388 62.769 190.856 62.6413C191.324 62.5561 191.878 62.471 192.388 62.3858C192.899 62.3007 193.495 62.2156 193.836 61.9601C194.219 61.7047 194.262 61.1938 193.666 60.683C193.112 60.2147 191.792 59.8316 190.26 60.1296C188.727 60.4701 187.706 61.3216 187.408 62.0027C187.11 62.7264 187.365 63.1521 187.791 63.2373Z" fill="#111111"/>
<path d="M206.905 63.0671C206.565 63.1522 206.139 63.0245 205.713 62.9394C205.288 62.8542 204.862 62.7691 204.521 62.6839C204.138 62.6414 203.712 62.5562 203.287 62.5136C202.861 62.4711 202.435 62.4285 202.137 62.2156C201.839 62.0454 201.797 61.6196 202.222 61.1939C202.648 60.8108 203.67 60.4702 204.862 60.6405C206.096 60.8534 206.905 61.4919 207.161 62.0028C207.459 62.6414 207.246 62.9819 206.905 63.0671Z" fill="#111111"/>
<path d="M195.837 79.2866L192.474 79.0737C191.196 78.9886 190.217 77.9243 190.217 76.6472V76.1789C190.217 75.9235 190.43 75.7532 190.643 75.7532C190.898 75.7532 191.069 75.966 191.069 76.1789V76.6472C191.069 77.456 191.707 78.1797 192.516 78.2223L195.837 78.4352C196.092 78.4352 196.262 78.648 196.22 78.9035C196.262 79.1163 196.092 79.2866 195.837 79.2866Z" fill="#A0AEC0"/>
<path d="M176.637 118.112L200.562 117.984L200.69 117.601L207.97 99.2525C208.012 99.1673 208.097 99.1248 208.182 99.1248H169.059L176.424 117.601L176.637 118.112Z" fill="white"/>
<path opacity="0.46" d="M206.565 101.296L198.561 105.212C196.092 106.404 194.006 108.32 192.559 110.662L189.664 115.302L190.601 116.196L193.453 111.598C194.9 109.257 196.986 107.384 199.455 106.149L206.607 102.658L207.246 100.998C207.076 101.083 206.82 101.211 206.565 101.296Z" fill="#A0AEC0"/>
<path d="M187.28 144.804C187.535 145.4 188.046 145.698 188.6 145.741C189.153 145.698 189.664 145.4 189.919 144.804L200.605 117.941L176.68 118.069L187.28 144.804Z" fill="#A0AEC0"/>
<path d="M244.411 131.522L224.998 108.831C219.421 102.445 216.739 99.2951 208.395 99.0823C208.353 99.0823 208.31 99.0823 208.268 99.0823C208.183 99.0823 208.097 99.1248 208.055 99.21L200.775 117.558L200.647 117.941L189.962 144.804C189.707 145.4 189.196 145.698 188.642 145.741C188.089 145.698 187.578 145.4 187.323 144.804L176.68 118.069L176.467 117.558L169.102 99.0823C169.017 99.0823 168.974 99.0823 168.889 99.0823H168.847C161.269 99.21 152.584 102.318 145.943 107.384C139.387 112.365 136.152 120.496 137.173 128.542C137.386 130.202 137.812 131.82 138.365 133.395L138.791 134.587C140.196 138.631 141.814 142.633 143.602 146.549C144.24 147.954 144.751 149.104 144.751 149.104L149.476 149.955C149.562 150.04 149.732 150.04 149.817 149.955L162.333 165.792C162.333 165.877 162.376 165.962 162.461 166.005L172.252 169.623C177.531 171.454 183.065 172.348 188.6 172.305C194.134 172.348 199.668 171.454 204.947 169.623L217.123 164.898C217.208 164.855 217.293 164.727 217.25 164.642C217.25 164.642 227.638 150.083 227.723 149.998L244.411 131.82C244.496 131.735 244.496 131.607 244.411 131.522Z" fill="#02E4D1"/>
<path d="M213.163 168.261H186.727C185.066 168.261 183.747 166.941 183.747 165.281V129.861C183.747 128.201 185.066 126.881 186.727 126.881H213.163C214.824 126.881 216.143 128.201 216.143 129.861V165.281C216.143 166.941 214.824 168.261 213.163 168.261Z" fill="#231F20"/>
<path d="M204.862 127.35H195.113C194.389 127.35 193.836 126.754 193.836 126.072V125.008C193.836 124.284 194.432 123.731 195.113 123.731H204.862C205.586 123.731 206.139 124.327 206.139 125.008V126.072C206.139 126.754 205.543 127.35 204.862 127.35Z" fill="#F6EEE3"/>
<path d="M204.862 127.563H195.113C194.304 127.563 193.623 126.881 193.623 126.073V125.008C193.623 124.199 194.304 123.518 195.113 123.518H204.862C205.671 123.518 206.352 124.199 206.352 125.008V126.073C206.352 126.881 205.671 127.563 204.862 127.563ZM195.113 123.901C194.517 123.901 194.049 124.37 194.049 124.966V126.03C194.049 126.626 194.517 127.094 195.113 127.094H204.862C205.458 127.094 205.926 126.626 205.926 126.03V124.966C205.926 124.37 205.458 123.901 204.862 123.901H195.113Z" fill="#231F20"/>
<path d="M207.885 128.669H192.091C191.878 128.669 191.665 128.499 191.665 128.244V127.35C191.665 127.137 191.835 126.924 192.091 126.924H207.885C208.097 126.924 208.31 127.094 208.31 127.35V128.244C208.268 128.499 208.097 128.669 207.885 128.669Z" fill="#F6EEE3"/>
<path d="M207.885 128.882H192.091C191.75 128.882 191.452 128.584 191.452 128.244V127.35C191.452 127.009 191.75 126.711 192.091 126.711H207.885C208.225 126.711 208.523 127.009 208.523 127.35V128.244C208.481 128.584 208.225 128.882 207.885 128.882ZM192.091 127.179C191.963 127.179 191.878 127.265 191.878 127.392V128.286C191.878 128.414 191.963 128.499 192.091 128.499H207.885C208.012 128.499 208.097 128.414 208.097 128.286V127.392C208.097 127.265 208.012 127.179 207.885 127.179H192.091Z" fill="#231F20"/>
<path d="M191.026 152.467C191.452 154.085 192.942 153.999 194.389 153.659C193.538 154.042 192.899 154.595 193.197 155.702C193.538 157.703 195.411 157.788 197.029 157.32C195.666 158.171 197.412 160.257 199.498 160.257C202.478 160.385 205.415 160.47 208.353 160.641C210.439 160.768 212.44 160.641 214.27 159.661L216.527 159.747L216.058 144.123L212.354 144.804C211.929 144.506 211.46 144.208 211.035 143.953C211.035 143.953 203.202 140.419 200.349 139.781C200.051 139.695 199.711 139.653 199.413 139.695C199.115 139.738 198.774 139.866 198.646 140.164C198.434 140.504 198.561 140.973 198.732 141.356C199.242 142.505 199.668 143.527 200.136 144.421C199.03 144.463 198.732 144.506 197.412 144.549C194.687 144.847 190.132 144.761 190.728 148.295C191.026 149.529 192.048 149.7 193.07 149.572C191.58 149.913 190.345 150.764 191.026 152.467ZM193.24 154.085C193.495 153.999 193.708 153.957 193.878 153.914C193.708 153.957 193.453 154.042 193.24 154.085Z" fill="white"/>
<path opacity="0.36" d="M200.094 144.293L207.203 144.463C207.203 144.463 200.392 142.462 199.243 142.548L200.094 144.293Z" fill="#A0AEC0"/>
<path d="M216.229 162.471H219.847C220.443 162.471 220.911 162.003 220.911 161.407L220.954 142.718C220.954 142.122 220.486 141.654 219.89 141.654H216.271C215.675 141.654 215.207 142.122 215.207 142.718L215.164 161.407C215.207 162.003 215.675 162.471 216.229 162.471Z" fill="#F2F1EC"/>
<path d="M218.57 141.696V162.726C218.57 163.791 219.549 164.6 220.613 164.429L237.472 161.449C250.413 158.895 255.437 143.016 246.284 133.522L244.666 131.82L220.358 139.27C219.294 139.61 218.57 140.589 218.57 141.696Z" fill="#02E4D1"/>
<path d="M222.997 159.619C223.295 160.172 223.04 160.853 222.487 161.151C221.933 161.449 221.252 161.194 220.954 160.64C220.656 160.087 220.911 159.406 221.465 159.108C222.018 158.81 222.699 159.023 222.997 159.619Z" fill="#F2F1EC"/>
<path d="M192.729 149.657C192.644 149.657 192.516 149.572 192.516 149.487C192.516 149.359 192.559 149.274 192.687 149.231L197.029 148.593C197.157 148.593 197.242 148.635 197.284 148.763C197.284 148.891 197.242 148.976 197.114 149.018L192.729 149.657Z" fill="#A0AEC0"/>
<path d="M194.389 153.829C194.304 153.829 194.219 153.744 194.176 153.659C194.134 153.531 194.219 153.446 194.347 153.403L197.923 152.552C198.05 152.509 198.136 152.594 198.178 152.722C198.221 152.85 198.136 152.935 198.008 152.978L194.432 153.829H194.389Z" fill="#A0AEC0"/>
<path d="M196.816 157.66C196.731 157.66 196.646 157.618 196.603 157.49C196.561 157.362 196.646 157.277 196.774 157.235L200.222 156.298C200.35 156.256 200.435 156.341 200.477 156.468C200.52 156.596 200.435 156.681 200.307 156.724L196.859 157.66H196.816Z" fill="#A0AEC0"/>
<path d="M218.57 145.272C218.442 145.272 218.357 145.187 218.357 145.059V141.867C218.357 140.419 219.336 139.142 220.741 138.759L234.705 134.97C234.832 134.927 234.917 135.013 234.96 135.14C235.003 135.268 234.917 135.353 234.79 135.396L220.826 139.185C219.634 139.525 218.783 140.632 218.783 141.867V145.059C218.783 145.187 218.698 145.272 218.57 145.272Z" fill="#111111"/>
<path d="M223.083 138.589C222.997 138.589 222.955 138.546 222.912 138.504L217.676 129.649C217.633 129.564 217.633 129.436 217.761 129.351C217.846 129.308 217.974 129.308 218.059 129.436L223.295 138.291C223.338 138.376 223.338 138.504 223.21 138.589C223.168 138.589 223.125 138.589 223.083 138.589Z" fill="#111111"/>
<path d="M188.94 118.963L193.495 111.598C194.943 109.257 197.029 107.383 199.498 106.149L207.501 102.232C208.651 101.679 209.928 101.466 211.205 101.594L226.658 100.7C227.042 100.657 227.297 101.04 227.127 101.423C227.127 101.423 227.127 101.423 227.127 101.466C226.744 102.36 225.892 102.999 224.87 103.126L217.591 104.02L217.931 104.063C218.91 104.148 219.762 104.787 220.102 105.723L220.698 107.341L221.209 107.894C221.89 108.618 222.103 109.725 221.72 110.661L218.102 119.814C217.889 120.368 217.25 120.623 216.697 120.368C215.377 119.729 214.696 118.197 215.207 116.792L216.228 113.727L211.248 119.857C210.439 120.879 209.374 121.645 208.182 122.198L204.351 123.901L201.669 131.479L188.94 118.963Z" fill="white"/>
<path d="M217.718 104.447C217.676 104.447 217.633 104.489 217.633 104.489L212.354 104.702C212.227 104.702 212.099 104.617 212.099 104.447C212.099 104.319 212.184 104.191 212.354 104.191L217.633 103.978C217.761 103.978 217.889 104.063 217.889 104.234C217.846 104.276 217.804 104.404 217.718 104.447Z" fill="#A0AEC0"/>
<path d="M220.656 107.596C220.613 107.596 220.613 107.639 220.571 107.639L214.142 108.32C214.015 108.32 213.887 108.235 213.844 108.107C213.844 107.98 213.93 107.852 214.057 107.809L220.486 107.128C220.613 107.128 220.741 107.213 220.784 107.341C220.826 107.469 220.784 107.554 220.656 107.596Z" fill="#A0AEC0"/>
<path d="M216.441 113.94C216.399 113.982 216.314 113.982 216.228 113.94C216.101 113.897 216.016 113.727 216.101 113.599L216.782 111.854C216.824 111.726 216.995 111.641 217.122 111.726C217.25 111.768 217.335 111.939 217.25 112.067L216.569 113.812C216.526 113.854 216.484 113.897 216.441 113.94Z" fill="#A0AEC0"/>
<path d="M204.692 130.798L202.01 133.65C201.626 134.076 200.945 134.119 200.52 133.693L186.045 120.198C185.62 119.815 185.577 119.134 186.003 118.708L188.685 115.856C189.068 115.43 189.749 115.387 190.175 115.813L204.649 129.308C205.032 129.691 205.075 130.372 204.692 130.798Z" fill="#F2F1EC"/>
<path d="M146.326 152.637C147.093 154.042 148.157 155.958 149.391 158.001C153.223 164.43 160.588 167.197 167.314 165.622C169.783 165.068 172.125 163.919 174.211 162.131C177.744 159.151 181.533 155.83 185.194 152.51C192.857 145.656 200.137 138.929 203.883 135.566C204.692 134.842 204.692 133.565 203.883 132.799L187.408 117.516C186.897 117.048 186.088 117.005 185.535 117.473L165.526 134.928L141.133 139.696C141.218 139.738 144.198 148.593 146.326 152.637Z" fill="#02E4D1"/>
<path d="M162.716 166.175C162.333 166.175 161.95 166.175 161.567 166.132C161.439 166.132 161.354 166.005 161.354 165.919C161.354 165.792 161.482 165.707 161.567 165.707C167.356 166.005 173.104 163.919 177.318 160.002L183.619 154.127C183.704 154.042 183.832 154.042 183.917 154.127C184.002 154.212 184.002 154.34 183.917 154.425L177.616 160.3C173.614 164.046 168.208 166.175 162.716 166.175Z" fill="#111111"/>
<path d="M157.438 141.398C157.395 141.398 157.31 141.356 157.267 141.313C157.182 141.228 157.182 141.1 157.31 141.015L178.766 122.752C178.851 122.667 178.979 122.667 179.064 122.795C179.149 122.88 179.149 123.007 179.021 123.093L157.565 141.356C157.523 141.398 157.48 141.398 157.438 141.398Z" fill="#111111"/>
<path d="M163.142 136.545C163.057 136.545 163.014 136.502 162.972 136.46L154.5 121.858C154.457 121.773 154.457 121.645 154.585 121.56C154.67 121.517 154.798 121.517 154.883 121.645L163.355 136.247C163.397 136.332 163.397 136.46 163.27 136.545C163.185 136.545 163.142 136.545 163.142 136.545Z" fill="#111111"/>
<path d="M199.285 133.565C199.583 134.118 199.328 134.799 198.774 135.097C198.221 135.395 197.54 135.14 197.242 134.587C196.944 134.033 197.199 133.352 197.753 133.054C198.349 132.799 199.03 133.011 199.285 133.565Z" fill="#F2F1EC"/>
</svg>
