<svg width="280" height="260" viewBox="0 0 280 260" fill="none" xmlns="http://www.w3.org/2000/svg">
<path d="M49.1781 207.4C49.2779 208.205 48.6668 208.989 47.862 209.089C47.0571 209.188 46.2731 208.577 46.1733 207.772C46.0735 206.967 46.6846 206.183 47.4895 206.084C48.2943 205.984 49.0784 206.595 49.1781 207.4Z" fill="#1A94E1"/>
<path d="M190.886 192.884C190.986 193.689 190.375 194.473 189.57 194.573C188.765 194.672 187.981 194.061 187.882 193.256C187.782 192.451 188.393 191.667 189.198 191.568C190.003 191.468 190.787 192.079 190.886 192.884Z" fill="#1A94E1"/>
<path d="M202.184 228.641C202.237 229.071 201.955 229.433 201.526 229.486C201.097 229.539 200.735 229.257 200.682 228.828C200.628 228.398 200.91 228.037 201.34 227.983C201.769 227.93 202.137 228.266 202.184 228.641Z" fill="#02E4D1"/>
<path d="M201.559 229.754C201.023 229.82 200.48 229.397 200.413 228.861C200.347 228.324 200.77 227.781 201.306 227.715C201.843 227.648 202.386 228.071 202.452 228.608C202.525 229.198 202.149 229.681 201.559 229.754ZM201.373 228.252C201.105 228.285 200.917 228.526 200.95 228.794C200.983 229.063 201.224 229.251 201.493 229.217C201.761 229.184 201.949 228.943 201.916 228.675C201.882 228.406 201.641 228.218 201.373 228.252Z" fill="#02E4D1"/>
<path d="M2.90958 208.177C3.17787 208.144 3.47277 208.325 3.51268 208.647C3.54593 208.915 3.36456 209.21 3.04261 209.25C2.77432 209.284 2.47942 209.102 2.43951 208.78C2.45326 208.452 2.64128 208.21 2.90958 208.177Z" fill="#02E4D1"/>
<path d="M3.06919 209.465C2.63992 209.519 2.21775 209.19 2.16454 208.76C2.11133 208.331 2.44037 207.909 2.86964 207.856C3.29891 207.802 3.72108 208.132 3.77429 208.561C3.8275 208.99 3.49846 209.412 3.06919 209.465ZM2.94281 208.446C2.78183 208.466 2.68782 208.586 2.70778 208.747C2.72773 208.908 2.84835 209.002 3.00933 208.982C3.1703 208.963 3.26431 208.842 3.24436 208.681C3.2244 208.52 3.10378 208.426 2.94281 208.446Z" fill="#02E4D1"/>
<path d="M132.875 193.428C132.929 193.858 132.647 194.219 132.217 194.273C131.788 194.326 131.426 194.044 131.373 193.615C131.32 193.185 131.602 192.823 132.031 192.77C132.46 192.717 132.822 192.999 132.875 193.428Z" fill="#111111"/>
<path d="M126.84 90.247C126.57 79.9198 125.11 31.5822 125.056 31.5822C67.4725 33.6908 23.7307 44.0721 23.7307 56.562C23.7307 66.3485 50.9815 101.385 89.803 93.9777V92.7342C101.212 91.5446 113.701 90.6795 126.84 90.247Z" fill="#A0AEC0"/>
<path opacity="0.15" d="M89.8031 94.0315V92.7879C100.995 91.5984 113.215 90.7333 126.137 90.2467C125.651 74.026 125.11 56.3455 125.11 56.3455C82.5038 57.9135 47.5212 64.0232 32.1656 72.1336C43.0335 84.8939 63.85 98.9518 89.8031 94.0315Z" fill="#121212"/>
<path d="M56.4965 86.0293C56.2802 86.0293 56.0639 85.9212 55.9017 85.759C55.5773 85.4346 55.5773 84.9479 55.9017 84.6235L81.5845 60.0221C81.8008 59.8059 82.1252 59.6977 82.3955 59.7518C82.7199 59.8059 82.9903 59.9681 83.1525 60.1844L88.5594 67.9703L108.565 42.2875C108.781 42.0172 109.16 41.855 109.538 41.909C109.917 41.9631 110.241 42.2335 110.349 42.5579L113.756 51.5874L132.734 28.2296C133.004 27.9052 133.545 27.8511 133.869 28.1215C134.194 28.3918 134.248 28.9325 133.977 29.2569L114.35 53.4257C114.134 53.6961 113.756 53.8583 113.377 53.8042C112.999 53.7501 112.728 53.4798 112.566 53.1554L109.214 44.1799L89.3704 69.6464C89.1542 69.9168 88.8297 70.0249 88.5053 70.0249C88.1809 70.0249 87.8565 69.8627 87.6943 69.5924L82.2333 61.6983L57.0372 85.8671C56.9291 85.9752 56.7128 86.0293 56.4965 86.0293Z" fill="#02E4D1"/>
<path d="M133.815 35.0963C133.761 35.0963 133.761 35.0963 133.707 35.0963C133.275 35.0423 132.95 34.6638 133.004 34.1772L133.707 28.2836L127.976 30.122C127.543 30.2842 127.111 30.0138 126.949 29.5813C126.786 29.1487 127.057 28.7162 127.489 28.554L134.086 26.3912C134.41 26.2831 134.789 26.3372 135.059 26.5534C135.329 26.7697 135.491 27.1482 135.437 27.4726L134.626 34.2853C134.572 34.7719 134.248 35.0963 133.815 35.0963Z" fill="#02E4D1"/>
<path d="M85.3152 69.1594H63.4173C62.6062 69.1594 61.9033 68.5105 61.9033 67.6454V48.5591C61.9033 47.7481 62.5522 47.0452 63.4173 47.0452H85.3152C86.1262 47.0452 86.8291 47.694 86.8291 48.5591V67.6995C86.7751 68.5105 86.1262 69.1594 85.3152 69.1594Z" fill="#02E4D1"/>
<path d="M85.3152 69.4302H63.4173C62.444 69.4302 61.633 68.6191 61.633 67.6459V48.5595C61.633 47.5863 62.444 46.7753 63.4173 46.7753H85.3152C86.2885 46.7753 87.0995 47.5863 87.0995 48.5595V67.7C87.0454 68.6191 86.2885 69.4302 85.3152 69.4302ZM63.4173 47.316C62.7684 47.316 62.1737 47.8566 62.1737 48.5595V67.7C62.1737 68.3488 62.7144 68.9435 63.4173 68.9435H85.3152C85.964 68.9435 86.5588 68.4029 86.5588 67.7V48.5595C86.5588 47.9107 86.0181 47.316 85.3152 47.316H63.4173V47.316Z" fill="#02E4D1"/>
<path d="M81.5845 63.1577H67.3103C66.8777 63.1577 66.4993 62.7792 66.4993 62.3467V52.7224C66.4993 52.2899 66.8777 51.9114 67.3103 51.9114H81.5304C81.963 51.9114 82.3415 52.2899 82.3415 52.7224V62.3467C82.3955 62.7792 82.017 63.1577 81.5845 63.1577Z" fill="#EDF2F7"/>
<path d="M66.4994 63.8065C66.4454 63.8065 66.3372 63.7524 66.2832 63.6984C66.175 63.5902 66.2291 63.428 66.3372 63.3199L74.0691 56.8316C74.1772 56.7235 74.2854 56.7235 74.3935 56.8316L82.3416 63.2117C82.4498 63.3199 82.4498 63.4821 82.3957 63.5902C82.2876 63.6983 82.1254 63.6984 82.0172 63.6443L74.2313 57.3723L66.6616 63.6984C66.6076 63.8065 66.5535 63.8065 66.4994 63.8065Z" fill="#02E4D1"/>
<path d="M66.4993 52.1279L72.4468 56.886C73.5282 57.7511 75.0962 57.7511 76.1776 56.886L82.1252 52.0739" fill="#EDF2F7"/>
<path d="M74.3395 57.8051C73.6366 57.8051 72.9337 57.5888 72.2849 57.1022L66.3373 52.3442C66.2291 52.236 66.1751 52.0738 66.2832 51.9657C66.3913 51.8575 66.5536 51.8035 66.6617 51.9116L72.6093 56.6697C73.6366 57.4807 74.9883 57.4807 76.0156 56.6697L81.9632 51.8575C82.0713 51.7494 82.2336 51.8035 82.3417 51.9116C82.4498 52.0197 82.3958 52.1819 82.2876 52.2901L76.34 57.1022C75.7993 57.5888 75.0424 57.8051 74.3395 57.8051Z" fill="#02E4D1"/>
<path d="M270.069 56.5616C270.069 45.856 237.844 36.6642 192.21 32.9335C192.047 32.9335 191.939 75.8102 191.939 88.7326C205.348 89.814 217.568 91.382 228.22 93.2744C253.686 86.8943 270.069 64.1853 270.069 56.5616Z" fill="#A0AEC0"/>
<path opacity="0.15" d="M260.229 73.7559C247.36 67.5379 222.813 62.6177 192.264 60.0764C192.156 60.0764 192.102 74.2425 192.048 88.733C205.403 89.8143 217.676 91.3823 228.274 93.2748C241.845 89.8684 252.875 81.7581 260.229 73.7559Z" fill="#121212"/>
<path d="M228.166 72.2414H208.809C208.052 72.2414 207.457 71.6466 207.457 70.8897V51.4789C207.457 50.722 208.052 50.1272 208.809 50.1272H228.166C228.923 50.1272 229.517 50.722 229.517 51.4789V70.8356C229.571 71.6466 228.923 72.2414 228.166 72.2414Z" fill="#111111"/>
<path d="M219.406 67.5373C219.298 67.5373 219.136 67.4833 219.028 67.3751C218.92 67.267 218.866 67.1589 218.866 66.9967V60.7247H212.594C212.431 60.7247 212.323 60.6706 212.215 60.5625C212.107 60.4543 212.053 60.3462 212.053 60.184C212.107 58.2375 213.026 56.3451 214.486 55.1015C216 53.8038 217.892 53.2091 219.893 53.4254C223.137 53.8038 225.786 56.3991 226.111 59.6433C226.327 61.6438 225.732 63.5362 224.435 65.0502C223.191 66.5641 221.353 67.4833 219.406 67.5373ZM219.136 60.184H219.406V66.9967C221.191 66.8885 222.921 66.0775 224.11 64.7258C225.3 63.32 225.84 61.5357 225.678 59.6973C225.354 56.7236 222.921 54.2905 219.947 53.966C218.109 53.7498 216.324 54.2905 214.919 55.534C213.567 56.7236 212.702 58.4538 212.648 60.238L219.136 60.184Z" fill="#EDF2F7"/>
<path d="M217.568 69.3758C217.568 69.3758 217.514 69.3758 217.568 69.3758C213.621 69.2136 210.431 66.0235 210.269 62.0764C210.269 61.9142 210.323 61.752 210.431 61.6439C210.539 61.5358 210.701 61.4817 210.863 61.4817H217.622C217.946 61.4817 218.163 61.752 218.163 62.0224V68.781C218.163 68.9432 218.109 69.1054 218 69.2135C217.838 69.3217 217.676 69.3758 217.568 69.3758ZM210.809 62.0224C210.917 65.6991 213.891 68.6729 217.568 68.781V62.0224H210.809Z" fill="#1A94E1"/>
<path d="M259.039 54.7236H228.003C227.192 54.7236 226.489 54.0747 226.489 53.2096V25.0397C226.489 24.2287 227.138 23.5258 228.003 23.5258H259.039C259.85 23.5258 260.553 24.1746 260.553 25.0397V53.2096C260.499 54.0747 259.85 54.7236 259.039 54.7236Z" fill="#02E4D1"/>
<path d="M259.039 54.9937H228.003C227.03 54.9937 226.219 54.1827 226.219 53.2095V25.0395C226.219 24.0663 227.03 23.2552 228.003 23.2552H259.039C260.012 23.2552 260.823 24.0663 260.823 25.0395V53.2095C260.769 54.1827 260.012 54.9937 259.039 54.9937ZM228.003 23.7959C227.354 23.7959 226.76 24.3366 226.76 25.0395V53.2095C226.76 53.8583 227.3 54.453 228.003 54.453H259.039C259.688 54.453 260.282 53.9123 260.282 53.2095V25.0395C260.282 24.3907 259.742 23.7959 259.039 23.7959H228.003Z" fill="#02E4D1"/>
<path d="M243.521 49.1C249.016 49.1 253.47 44.6458 253.47 39.1513C253.47 33.6568 249.016 29.2026 243.521 29.2026C238.027 29.2026 233.572 33.6568 233.572 39.1513C233.572 44.6458 238.027 49.1 243.521 49.1Z" fill="#EDF2F7"/>
<path d="M246.928 39.4224H243.251V33.583C243.251 33.4208 243.359 33.3126 243.521 33.3126C243.683 33.3126 243.792 33.4208 243.792 33.583V38.8817H246.928C247.09 38.8817 247.198 38.9899 247.198 39.1521C247.198 39.2602 247.09 39.4224 246.928 39.4224Z" fill="#02E4D1"/>
<path d="M195.94 66.5105C199.792 66.5105 202.915 63.3877 202.915 59.5356C202.915 55.6834 199.792 52.5607 195.94 52.5607C192.088 52.5607 188.965 55.6834 188.965 59.5356C188.965 63.3877 192.088 66.5105 195.94 66.5105Z" fill="#F7FAFC"/>
<path d="M195.832 61.4816C195.67 61.4816 195.508 61.4276 195.346 61.2654L192.858 58.7782C192.75 58.6701 192.75 58.5079 192.858 58.3997C192.967 58.2916 193.129 58.2916 193.237 58.3997L195.724 60.8869C195.778 60.941 195.832 60.941 195.886 60.8869L202.375 54.3986C202.483 54.2905 202.645 54.2905 202.753 54.3986C202.861 54.5067 202.861 54.669 202.753 54.7771L196.265 61.2654C196.157 61.4276 195.994 61.4816 195.832 61.4816Z" fill="#111111"/>
<path d="M197.887 21.7954C196.86 21.7954 195.995 22.6605 195.995 23.6878V36.7184C195.995 37.7458 196.86 38.6109 197.887 38.6109H201.347C202.861 38.6109 204.051 39.8544 204.051 41.3143V44.3962C204.051 44.991 204.483 45.2073 204.646 45.2613C204.754 45.3154 205.24 45.4776 205.673 45.0451L211.35 39.4219C211.837 38.9353 212.54 38.6109 213.297 38.6109H220.272C221.299 38.6109 222.164 37.7458 222.164 36.7184V23.6878C222.164 22.6605 221.299 21.7954 220.272 21.7954H197.887Z" fill="#F7FAFC"/>
<path d="M203.186 32.5546C202.158 32.5546 201.347 31.7436 201.347 30.7163C201.347 29.689 202.158 28.8779 203.186 28.8779C204.213 28.8779 205.024 29.689 205.024 30.7163C205.024 31.7436 204.213 32.5546 203.186 32.5546ZM203.186 29.4727C202.483 29.4727 201.888 30.0674 201.888 30.7703C201.888 31.4732 202.483 32.068 203.186 32.068C203.888 32.068 204.483 31.4732 204.483 30.7703C204.483 30.0134 203.943 29.4727 203.186 29.4727Z" fill="#111111"/>
<path d="M209.025 32.5546C207.998 32.5546 207.187 31.7436 207.187 30.7163C207.187 29.689 207.998 28.8779 209.025 28.8779C210.052 28.8779 210.863 29.689 210.863 30.7163C210.863 31.7436 210.052 32.5546 209.025 32.5546ZM209.025 29.4727C208.322 29.4727 207.727 30.0674 207.727 30.7703C207.727 31.4732 208.322 32.068 209.025 32.068C209.728 32.068 210.323 31.4732 210.323 30.7703C210.323 30.0134 209.728 29.4727 209.025 29.4727Z" fill="#111111"/>
<path d="M214.756 32.5546C213.729 32.5546 212.918 31.7436 212.918 30.7163C212.918 29.689 213.729 28.8779 214.756 28.8779C215.784 28.8779 216.595 29.689 216.595 30.7163C216.595 31.7436 215.784 32.5546 214.756 32.5546ZM214.756 29.4727C214.053 29.4727 213.459 30.0674 213.459 30.7703C213.459 31.4732 214.053 32.068 214.756 32.068C215.459 32.068 216.054 31.4732 216.054 30.7703C216.054 30.0134 215.459 29.4727 214.756 29.4727Z" fill="#111111"/>
<path d="M47.7375 34.2314C47.1427 34.2314 46.6561 34.7181 46.6561 35.3128V42.8825C46.6561 43.4772 47.1427 43.9639 47.7375 43.9639H51.7386C52.1711 43.9639 52.5496 44.1261 52.874 44.4505L56.1722 47.7487C56.3885 47.965 56.6589 47.9109 56.767 47.8568C56.8211 47.8028 57.0914 47.6946 57.0914 47.3702V45.5859C57.0914 44.7208 57.7943 44.0179 58.6594 44.0179H60.66C61.2547 44.0179 61.7413 43.5313 61.7413 42.9365V35.3669C61.7413 34.7721 61.2547 34.2855 60.66 34.2855H47.7375V34.2314Z" fill="#1A94E1"/>
<path d="M57.578 40.6119C56.9292 40.6119 56.3885 40.0713 56.3885 39.4224C56.3885 38.7736 56.9292 38.2329 57.578 38.2329C58.2269 38.2329 58.7676 38.7736 58.7676 39.4224C58.7676 40.0713 58.2269 40.6119 57.578 40.6119ZM57.578 38.7736C57.2536 38.7736 56.9292 39.0439 56.9292 39.4224C56.9292 39.7468 57.1996 40.0713 57.578 40.0713C57.9025 40.0713 58.2269 39.8009 58.2269 39.4224C58.2269 39.0439 57.9565 38.7736 57.578 38.7736Z" fill="#111111"/>
<path d="M54.2256 40.6119C53.5768 40.6119 53.0361 40.0713 53.0361 39.4224C53.0361 38.7736 53.5768 38.2329 54.2256 38.2329C54.8745 38.2329 55.4152 38.7736 55.4152 39.4224C55.4152 40.0713 54.8745 40.6119 54.2256 40.6119ZM54.2256 38.7736C53.9012 38.7736 53.5768 39.0439 53.5768 39.4224C53.5768 39.7468 53.8472 40.0713 54.2256 40.0713C54.5501 40.0713 54.8745 39.8009 54.8745 39.4224C54.8745 39.0439 54.5501 38.7736 54.2256 38.7736Z" fill="#111111"/>
<path d="M50.8734 40.6119C50.2245 40.6119 49.6838 40.0713 49.6838 39.4224C49.6838 38.7736 50.2245 38.2329 50.8734 38.2329C51.5222 38.2329 52.0629 38.7736 52.0629 39.4224C52.0629 40.0713 51.5222 40.6119 50.8734 40.6119ZM50.8734 38.7736C50.549 38.7736 50.2245 39.0439 50.2245 39.4224C50.2245 39.7468 50.4949 40.0713 50.8734 40.0713C51.1978 40.0713 51.5222 39.8009 51.5222 39.4224C51.5222 39.0439 51.2518 38.7736 50.8734 38.7736Z" fill="#111111"/>
<path d="M129.165 6.22438C129.165 7.03541 128.462 7.73831 127.651 7.73831C126.84 7.73831 126.137 7.03541 126.137 6.22438C126.137 5.41335 126.84 4.71045 127.651 4.71045C128.462 4.71045 129.165 5.41335 129.165 6.22438Z" fill="#1A94E1"/>
<path d="M23.4064 152.697C24.2425 152.697 24.9203 152.019 24.9203 151.183C24.9203 150.347 24.2425 149.669 23.4064 149.669C22.5702 149.669 21.8924 150.347 21.8924 151.183C21.8924 152.019 22.5702 152.697 23.4064 152.697Z" fill="#1A94E1"/>
<path d="M236.222 156.049C236.222 156.86 235.519 157.563 234.708 157.563C233.897 157.563 233.194 156.86 233.194 156.049C233.194 155.238 233.897 154.535 234.708 154.535C235.519 154.535 236.222 155.238 236.222 156.049Z" fill="#1A94E1"/>
<path d="M271.583 9.25197C271.583 10.063 270.88 10.7659 270.069 10.7659C269.258 10.7659 268.555 10.063 268.555 9.25197C268.555 8.44093 269.258 7.73804 270.069 7.73804C270.88 7.73804 271.583 8.44093 271.583 9.25197Z" fill="#1A94E1"/>
<path d="M278.396 46.1274C278.396 46.56 278.071 46.8844 277.639 46.8844C277.206 46.8844 276.882 46.56 276.882 46.1274C276.882 45.6949 277.206 45.3705 277.639 45.3705C278.071 45.3705 278.396 45.749 278.396 46.1274Z" fill="#02E4D1"/>
<path d="M277.639 47.1545C277.098 47.1545 276.611 46.6679 276.611 46.1272C276.611 45.5865 277.098 45.0999 277.639 45.0999C278.179 45.0999 278.666 45.5865 278.666 46.1272C278.666 46.7219 278.234 47.1545 277.639 47.1545ZM277.639 45.6405C277.368 45.6405 277.152 45.8568 277.152 46.1272C277.152 46.3975 277.368 46.6138 277.639 46.6138C277.909 46.6138 278.125 46.3975 278.125 46.1272C278.125 45.8568 277.909 45.6405 277.639 45.6405Z" fill="#02E4D1"/>
<path d="M68.2836 156.806C68.2836 157.239 67.9592 157.563 67.5267 157.563C67.0941 157.563 66.7697 157.239 66.7697 156.806C66.7697 156.374 67.0941 156.049 67.5267 156.049C67.9592 156.049 68.2836 156.374 68.2836 156.806Z" fill="#02E4D1"/>
<path d="M67.5266 157.833C66.986 157.833 66.4993 157.347 66.4993 156.806C66.4993 156.265 66.986 155.779 67.5266 155.779C68.0673 155.779 68.554 156.265 68.554 156.806C68.554 157.401 68.1214 157.833 67.5266 157.833ZM67.5266 156.319C67.2563 156.319 67.04 156.536 67.04 156.806C67.04 157.076 67.2563 157.293 67.5266 157.293C67.797 157.293 68.0133 157.076 68.0133 156.806C68.0133 156.536 67.797 156.319 67.5266 156.319Z" fill="#02E4D1"/>
<path d="M18.1617 26.2294C18.9083 26.2294 19.5134 25.6243 19.5134 24.8777C19.5134 24.1312 18.9083 23.526 18.1617 23.526C17.4152 23.526 16.81 24.1312 16.81 24.8777C16.81 25.6243 17.4152 26.2294 18.1617 26.2294Z" fill="#02E4D1"/>
<path d="M18.1618 26.4996C17.2967 26.4996 16.5397 25.7967 16.5397 24.8776C16.5397 24.0125 17.2426 23.2555 18.1618 23.2555C19.081 23.2555 19.7838 23.9584 19.7838 24.8776C19.7298 25.7967 19.0269 26.4996 18.1618 26.4996ZM18.1618 23.8503C17.567 23.8503 17.0804 24.3369 17.0804 24.9316C17.0804 25.5264 17.567 26.013 18.1618 26.013C18.7565 26.013 19.2432 25.5264 19.2432 24.9316C19.1891 24.3369 18.7565 23.8503 18.1618 23.8503Z" fill="#02E4D1"/>
<path d="M83.1524 1.30408C83.4227 1.30408 83.6931 1.52035 83.6931 1.84477C83.6931 2.11511 83.4768 2.38546 83.1524 2.38546C82.882 2.38546 82.6117 2.16918 82.6117 1.84477C82.6657 1.52035 82.882 1.30408 83.1524 1.30408Z" fill="#02E4D1"/>
<path d="M83.1525 2.60168C82.72 2.60168 82.3415 2.2232 82.3415 1.79065C82.3415 1.3581 82.72 0.979614 83.1525 0.979614C83.5851 0.979614 83.9636 1.3581 83.9636 1.79065C83.9636 2.2232 83.5851 2.60168 83.1525 2.60168ZM83.1525 1.57437C82.9903 1.57437 82.8822 1.68251 82.8822 1.84472C82.8822 2.00692 82.9903 2.11506 83.1525 2.11506C83.3147 2.11506 83.4229 2.00692 83.4229 1.84472C83.4229 1.68251 83.3147 1.57437 83.1525 1.57437Z" fill="#02E4D1"/>
<path d="M62.5524 21.0388C62.5524 21.4714 62.2279 21.7958 61.7954 21.7958C61.3628 21.7958 61.0384 21.4714 61.0384 21.0388C61.0384 20.6063 61.3628 20.2819 61.7954 20.2819C62.2279 20.2819 62.5524 20.6063 62.5524 21.0388Z" fill="#111111"/>
<path d="M17.567 89.2199C17.567 89.6524 17.2426 89.9768 16.81 89.9768C16.3775 89.9768 16.053 89.6524 16.053 89.2199C16.053 88.7873 16.3775 88.4629 16.81 88.4629C17.2426 88.4629 17.567 88.7873 17.567 89.2199Z" fill="#111111"/>
<path d="M213.945 2.65565C213.945 3.0882 213.621 3.41261 213.189 3.41261C212.756 3.41261 212.432 3.0882 212.432 2.65565C212.432 2.2231 212.756 1.89868 213.189 1.89868C213.621 1.89868 213.945 2.2231 213.945 2.65565Z" fill="#111111"/>
<path d="M279.153 138.747C279.153 139.18 278.828 139.504 278.396 139.504C277.963 139.504 277.639 139.18 277.639 138.747C277.639 138.315 277.963 137.99 278.396 137.99C278.828 137.99 279.153 138.369 279.153 138.747Z" fill="#111111"/>
<path d="M23.7307 56.562V120.309C23.7307 130.096 50.5489 138.585 89.803 142.802V97.8166V79.0547C50.5489 74.8373 23.7307 66.3485 23.7307 56.562Z" fill="#E2E8F0"/>
<path d="M82.9363 92.6801C82.8823 92.6801 82.8823 92.6801 82.9363 92.6801C50.4949 89.1656 30.3813 82.2448 30.3813 74.6211C30.3813 74.4588 30.4894 74.3507 30.6516 74.3507C30.8138 74.3507 30.922 74.4588 30.922 74.6211C30.922 81.8663 51.3601 88.733 82.9904 92.1394C83.1526 92.1394 83.2607 92.3016 83.2067 92.4638C83.1526 92.5719 83.0445 92.6801 82.9363 92.6801Z" fill="#F6EEE3"/>
<path d="M55.0906 98.6815H55.0366C50.0081 97.492 45.6286 96.1943 42.0059 94.8426C41.8437 94.7885 41.7897 94.6263 41.8437 94.5182C41.8978 94.356 42.06 94.3019 42.1681 94.356C45.7367 95.7077 50.1163 97.0053 55.0906 98.1949C55.2528 98.2489 55.3069 98.3571 55.3069 98.5193C55.361 98.5733 55.2528 98.6815 55.0906 98.6815Z" fill="#F6EEE3"/>
<path d="M82.9364 103.169C82.8823 103.169 82.8823 103.169 82.9364 103.169C76.0156 102.412 69.5273 101.493 63.6338 100.412C63.4716 100.412 63.3634 100.249 63.4175 100.087C63.4175 99.9251 63.5797 99.8169 63.7419 99.871C69.5813 100.952 76.0696 101.872 82.9905 102.574C83.1527 102.574 83.2608 102.737 83.2067 102.899C83.1527 103.061 83.0445 103.169 82.9364 103.169Z" fill="#111111"/>
<path d="M32.1114 119.877L39.5729 122.256V111.604L32.1114 108.739V119.877Z" fill="#111111"/>
<path d="M39.8432 122.634L31.841 120.093V101.872L39.8432 104.954V122.634ZM32.3817 119.661L39.3025 121.877V105.278L32.3817 102.629V119.661Z" fill="#F6EEE3"/>
<path d="M50.6032 125.932L42.601 123.391V113.28L50.6032 116.362V125.932V125.932ZM43.1417 123.012L50.0625 125.229V116.74L43.1417 114.037V123.012Z" fill="#F6EEE3"/>
<path d="M270.069 56.5621V120.309C270.069 128.366 251.794 135.557 223.299 140.261C222.488 140.369 222.326 76.6758 223.029 76.5677C251.631 71.9177 270.069 64.6725 270.069 56.5621Z" fill="#E2E8F0"/>
<path d="M250.226 83.1635C250.118 83.1635 250.009 83.0554 249.955 82.9472C249.901 82.785 250.009 82.6769 250.172 82.6228C256.93 81.0007 262.013 79.1624 265.257 77.1619C265.365 77.1078 265.527 77.1078 265.635 77.27C265.689 77.3781 265.689 77.5403 265.527 77.6485C262.229 79.7031 257.092 81.5414 250.28 83.1635C250.28 83.1635 250.226 83.1635 250.226 83.1635Z" fill="#111111"/>
<path d="M250.604 91.8691C250.496 91.8691 250.388 91.761 250.334 91.6528C250.28 91.4906 250.388 91.3825 250.55 91.3284C257.147 89.7604 262.121 87.9761 265.257 86.0297C265.365 85.9756 265.527 85.9756 265.635 86.1378C265.689 86.2459 265.689 86.4081 265.527 86.5163C262.337 88.5168 257.309 90.3011 250.658 91.8691C250.658 91.8691 250.604 91.8691 250.604 91.8691Z" fill="#F6EEE3"/>
<path opacity="0.69" d="M74.5553 127.014L64.0659 116.2C63.7415 115.876 63.7415 115.389 64.0659 115.065C64.3903 114.741 64.8769 114.741 65.2013 115.065L74.6093 124.743L85.4772 114.578L98.8322 124.96C99.2107 125.23 99.2648 125.771 98.9944 126.095C98.7241 126.474 98.1834 126.528 97.859 126.257L85.5853 116.741L74.5553 127.014Z" fill="#1B1F38"/>
<path d="M67.3643 115.605C67.3643 117.119 66.1207 118.309 64.6608 118.309C63.1469 118.309 61.9574 117.065 61.9574 115.605C61.9574 114.091 63.201 112.902 64.6608 112.902C66.1207 112.902 67.3643 114.146 67.3643 115.605Z" fill="#1A94E1"/>
<path d="M88.1809 115.606C88.1809 117.119 86.9373 118.309 85.4775 118.309C83.9636 118.309 82.774 117.065 82.774 115.606C82.774 114.092 84.0176 112.902 85.4775 112.902C86.9914 112.902 88.1809 114.146 88.1809 115.606Z" fill="#1A94E1"/>
<path d="M77.2591 125.554C77.2591 127.068 76.0155 128.257 74.5556 128.257C73.0417 128.257 71.8522 127.014 71.8522 125.554C71.8522 124.04 73.0958 122.851 74.5556 122.851C76.0696 122.851 77.2591 124.04 77.2591 125.554Z" fill="#1A94E1"/>
<path d="M100.995 125.554C100.995 127.068 99.7516 128.257 98.2917 128.257C96.7778 128.257 95.5883 127.014 95.5883 125.554C95.5883 124.04 96.8319 122.851 98.2917 122.851C99.8057 122.851 100.995 124.04 100.995 125.554Z" fill="#1A94E1"/>
<path d="M208.917 93.8159H204.537V125.014H208.917V93.8159Z" fill="#02E4D1"/>
<path d="M209.188 125.284H204.267V93.5458H209.188V125.284ZM204.808 124.744H208.647V94.0865H204.808V124.744Z" fill="#02E4D1"/>
<path d="M217.568 125.284H212.648V85.1111H217.568V125.284ZM213.189 124.744H217.028V85.6518H213.189V124.744Z" fill="#111111"/>
<path d="M234.978 125.284H230.058V85.1111H234.978V125.284ZM230.599 124.744H234.438V85.6518H230.599V124.744Z" fill="#111111"/>
<path opacity="0.46" d="M242.818 79.3796H238.439V125.014H242.818V79.3796Z" fill="white"/>
<path d="M242.818 95.2212H238.439V125.013H242.818V95.2212Z" fill="#02E4D1"/>
<path d="M243.089 125.284H238.169V94.951H243.089V125.284ZM238.709 124.743H242.548V95.4917H238.709V124.743Z" fill="#02E4D1"/>
<path d="M226.219 97.0603H221.84V125.014H226.219V97.0603Z" fill="#02E4D1"/>
<path d="M226.49 125.284H221.569V96.7898H226.49V125.284ZM222.11 124.743H225.949V97.3305H222.11V124.743Z" fill="#02E4D1"/>
<path d="M208.701 252.401C209.512 240.181 205.511 228.07 197.292 217.905L192.858 212.444L188.641 207.199L185.613 203.468L155.605 205.252L125.597 203.468L122.569 207.199L118.351 212.444L113.918 217.905C107.916 225.312 104.185 233.747 102.942 242.56C102.888 242.938 102.185 250.562 101.266 259.808H208.43L208.701 252.401Z" fill="#111111"/>
<path d="M115.972 260.295H115.918C115.648 260.241 115.432 260.024 115.432 259.7C116.026 253.698 116.513 248.454 116.838 245.372C117 243.425 117.108 242.614 117.108 242.452C118.406 233.585 122.244 224.988 128.246 217.526C128.408 217.31 128.787 217.256 129.003 217.418C129.219 217.58 129.273 217.959 129.111 218.175C123.272 225.42 119.487 233.855 118.243 242.56C118.243 242.668 118.135 243.804 117.973 245.426C117.703 248.562 117.162 253.807 116.567 259.808C116.459 260.133 116.243 260.295 115.972 260.295Z" fill="#02E4D1"/>
<path d="M193.994 92.0318C193.237 86.7331 190.533 82.1372 186.586 78.5687C185.667 77.5954 184.802 76.7844 184.045 76.0274C181.288 73.4321 177.503 70.7827 177.341 67.2142C176.692 54.8865 157.389 45.4244 151.171 50.8313C151.009 50.9935 145.71 48.236 138.357 49.7499C136.897 44.7215 132.301 41.0448 126.84 41.0448C120.19 41.0448 114.837 46.3976 114.837 53.0481C114.837 57.644 117.432 61.6451 121.217 63.6456C121.055 64.1863 120.893 64.727 120.676 65.2677C118.297 71.7019 114.458 76.4059 108.727 81.3262L107.97 81.975C97.4267 91.1127 98.2918 106.414 106.348 113.065L108.673 115.011C109.052 115.336 109.43 115.606 109.808 115.876C111.214 116.849 111.917 118.363 111.701 119.931C111.322 122.851 111.539 125.879 112.512 128.907C116.135 140.153 128.949 147.561 142.845 146.209C152.469 145.29 160.633 140.64 165.5 134.206C171.339 126.528 178.476 119.553 185.829 112.848C191.885 107.387 195.129 99.8178 193.994 92.0318Z" fill="#111111"/>
<path d="M177.827 97.007L175.881 75.5416L166.365 75.3794L165.986 68.3505L163.066 75.0009L154.686 74.0277L152.739 70.7295C152.253 69.9185 151.442 69.5941 150.631 69.6481C149.982 77.38 146.305 84.1386 142.574 84.7334L137.546 83.652V83.5438L135.978 83.5979C131.815 83.706 128.516 87.1665 128.57 91.3298V91.492C128.679 95.6553 132.139 98.9535 136.302 98.8994L139.384 98.8454L138.303 126.583C138.249 134.044 144.953 138.37 151.928 138.424H152.199C159.173 138.478 164.851 132.368 164.905 124.907L164.959 115.174C173.015 113.066 178.584 105.496 177.827 97.007Z" fill="white"/>
<path d="M135.383 93.817C135.221 93.817 135.005 93.7089 134.951 93.5467C134.788 93.2763 134.842 92.9519 135.113 92.7897L137.059 91.5461L134.897 89.059C134.68 88.8427 134.734 88.5183 134.951 88.302C135.167 88.0857 135.491 88.1398 135.708 88.3561L138.303 91.3299C138.411 91.438 138.465 91.6002 138.411 91.7624C138.411 91.9246 138.303 92.0327 138.141 92.1409L135.653 93.7089C135.545 93.763 135.491 93.817 135.383 93.817Z" fill="#A0AEC0"/>
<path d="M165.013 115.228C165.013 115.228 150.144 115.823 147.711 110.524C145.278 105.226 147.711 110.524 147.711 110.524C147.711 110.524 147.008 118.581 164.851 122.906L165.013 115.228Z" fill="#A0AEC0"/>
<path d="M175.178 85.9768C175.178 86.7878 174.475 87.4367 173.664 87.3826C172.853 87.3826 172.204 86.6797 172.258 85.8687C172.258 85.0576 172.961 84.4088 173.772 84.4629C174.583 84.5169 175.232 85.1658 175.178 85.9768Z" fill="#111111"/>
<path d="M159.714 85.9768C159.714 86.7878 159.011 87.4367 158.2 87.3826C157.389 87.3826 156.74 86.6797 156.795 85.8687C156.795 85.0576 157.497 84.4088 158.308 84.4629C159.065 84.5169 159.714 85.1658 159.714 85.9768Z" fill="#111111"/>
<path d="M156.578 93.7094C152.74 93.7094 149.604 90.0868 149.549 85.6531C149.549 83.0038 153.064 81.8143 156.524 81.7602C160.039 81.7061 163.553 82.8956 163.553 85.545C163.607 90.0327 160.525 93.7094 156.578 93.7094C156.632 93.7094 156.632 93.7094 156.578 93.7094ZM156.687 83.3823C156.632 83.3823 156.632 83.3823 156.578 83.3823C153.551 83.3823 151.226 84.4096 151.226 85.6531C151.226 89.2217 153.659 92.1414 156.632 92.1414C156.632 92.1414 156.632 92.1414 156.687 92.1414C159.66 92.1414 162.039 89.1676 162.039 85.5991C161.985 84.3555 159.66 83.3823 156.687 83.3823Z" fill="#1A94E1"/>
<path d="M173.664 93.3845C171.772 93.3845 170.042 92.5194 168.69 91.0055C167.392 89.4916 166.635 87.491 166.635 85.3283C166.635 82.6789 170.15 81.4894 173.61 81.4353C175.34 81.4353 176.962 81.7056 178.206 82.2463C179.774 82.8952 180.639 83.9765 180.639 85.2201C180.639 87.3829 179.936 89.3834 178.693 90.9514C177.395 92.5194 175.611 93.3845 173.664 93.3845ZM173.718 83.0574C173.664 83.0574 173.664 83.0574 173.61 83.0574C170.582 83.0574 168.257 84.0847 168.257 85.3283C168.257 87.1125 168.852 88.7346 169.934 89.9782C170.961 91.1677 172.313 91.8165 173.718 91.8165C175.124 91.8165 176.476 91.1136 177.449 89.9241C178.476 88.6805 179.071 87.0044 179.017 85.2742C179.017 84.0306 176.692 83.0574 173.718 83.0574Z" fill="#1A94E1"/>
<path d="M164.851 83.3822L164.959 88.2484C164.959 88.8432 165.445 89.3298 166.04 89.3298H167.122C167.933 89.3298 168.636 89.9786 168.636 90.7896C168.69 92.7902 167.068 94.4663 165.067 94.5204L163.391 94.5745" fill="white"/>
<path d="M163.337 95.0608C163.067 95.0608 162.796 94.8445 162.796 94.5201C162.796 94.1957 163.013 93.9794 163.337 93.9794L165.013 93.9253C165.824 93.9253 166.635 93.5468 167.176 92.9521C167.771 92.3573 168.041 91.5463 168.041 90.7353C168.041 90.4649 167.933 90.2486 167.771 90.0864C167.608 89.9242 167.338 89.8161 167.122 89.8161H166.04C165.608 89.8161 165.175 89.6539 164.905 89.3835C164.581 89.0591 164.418 88.6806 164.418 88.2481L164.31 83.3819C164.31 83.0575 164.526 82.8412 164.851 82.8412C165.121 82.8412 165.392 83.0575 165.392 83.3819L165.5 88.2481C165.5 88.4103 165.554 88.5184 165.662 88.6266C165.77 88.7347 165.878 88.7888 166.04 88.7888H167.122C167.662 88.7888 168.149 89.005 168.582 89.3295C168.96 89.7079 169.176 90.1946 169.176 90.7353C169.176 91.8707 168.798 92.898 167.987 93.709C167.23 94.5201 166.149 94.9526 165.013 95.0067L163.337 95.0608Z" fill="#A0AEC0"/>
<path d="M150.306 87.0582C150.252 87.0582 150.144 87.0582 150.09 87.0041L138.736 83.5437C138.303 83.4355 138.087 82.9489 138.195 82.5164C138.303 82.0838 138.79 81.8675 139.222 81.9757L150.577 85.4361C151.009 85.5442 151.225 86.0309 151.117 86.4634C151.009 86.8419 150.685 87.0582 150.306 87.0582Z" fill="#1A94E1"/>
<path d="M162.688 87.5449C162.418 87.5449 162.202 87.4368 162.039 87.2205C161.769 86.842 161.877 86.3554 162.256 86.0851C163.337 85.3281 165.878 84.3549 168.041 86.0851C168.365 86.3554 168.474 86.8961 168.149 87.2205C167.879 87.5449 167.338 87.6531 167.014 87.3287C165.283 85.9229 163.283 87.3286 163.175 87.3827C163.013 87.5449 162.85 87.5449 162.688 87.5449Z" fill="#1A94E1"/>
<path d="M166.148 107.712C166.094 107.712 165.986 107.712 165.932 107.712C165.878 107.658 164.256 107.009 163.066 108.307C162.958 108.415 162.742 108.415 162.634 108.307C162.526 108.199 162.526 107.983 162.634 107.874C164.094 106.252 166.202 107.117 166.202 107.117C166.365 107.171 166.419 107.388 166.365 107.496C166.311 107.604 166.202 107.658 166.148 107.712Z" fill="#A0AEC0"/>
<path d="M152.956 80.2457C153.55 80.3539 154.199 80.1376 154.902 79.9754C155.551 79.8132 156.254 79.651 156.848 79.4888C157.443 79.3806 158.146 79.2725 158.795 79.1644C159.444 79.0562 160.201 78.9481 160.633 78.6237C161.12 78.2992 161.174 77.6504 160.417 77.0016C159.714 76.4068 158.038 75.9202 156.092 76.2987C154.145 76.7312 152.847 77.8126 152.469 78.6777C152.09 79.5969 152.415 80.1376 152.956 80.2457Z" fill="#111111"/>
<path d="M177.232 80.0293C176.8 80.1374 176.259 79.9752 175.719 79.8671C175.178 79.7589 174.637 79.6508 174.205 79.5426C173.718 79.4886 173.177 79.3804 172.637 79.3264C172.096 79.2723 171.555 79.2182 171.177 78.9479C170.798 78.7316 170.744 78.1909 171.285 77.6502C171.826 77.1636 173.123 76.7311 174.637 76.9473C176.205 77.2177 177.232 78.0287 177.557 78.6775C177.935 79.4886 177.665 79.9211 177.232 80.0293Z" fill="#111111"/>
<path d="M163.175 100.629L158.903 100.359C157.281 100.251 156.037 98.899 156.037 97.2769V96.6822C156.037 96.3578 156.308 96.1415 156.578 96.1415C156.903 96.1415 157.119 96.4118 157.119 96.6822V97.2769C157.119 98.3042 157.93 99.2234 158.957 99.2775L163.175 99.5478C163.499 99.5478 163.715 99.8182 163.661 100.143C163.715 100.413 163.499 100.629 163.175 100.629Z" fill="#A0AEC0"/>
<path d="M138.789 149.94L169.176 149.778L169.338 149.291L178.584 125.987C178.638 125.879 178.746 125.825 178.855 125.825H129.165L138.519 149.291L138.789 149.94Z" fill="white"/>
<path opacity="0.46" d="M176.8 128.582L166.635 133.557C163.499 135.071 160.85 137.504 159.011 140.478L155.335 146.371L156.524 147.507L160.147 141.667C161.985 138.693 164.634 136.314 167.77 134.746L176.854 130.313L177.665 128.204C177.449 128.312 177.124 128.474 176.8 128.582Z" fill="#A0AEC0"/>
<path d="M152.307 183.841C152.631 184.598 153.28 184.976 153.983 185.03C154.686 184.976 155.335 184.598 155.659 183.841L169.23 149.723L138.844 149.886L152.307 183.841Z" fill="#A0AEC0"/>
<path d="M224.867 166.971L200.212 138.153C193.129 130.042 189.722 126.041 179.125 125.771C179.071 125.771 179.017 125.771 178.963 125.771C178.855 125.771 178.746 125.825 178.692 125.933L169.447 149.237L169.284 149.723L155.713 183.841C155.389 184.598 154.74 184.976 154.037 185.03C153.334 184.976 152.685 184.598 152.361 183.841L138.844 149.886L138.573 149.237L129.219 125.771C129.111 125.771 129.057 125.771 128.949 125.771H128.895C119.271 125.933 108.241 129.88 99.8058 136.314C91.4791 142.64 87.3699 152.968 88.6676 163.187C88.9379 165.295 89.4786 167.35 90.1815 169.35L90.7222 170.864C92.5065 176.001 94.5611 181.083 96.832 186.058C97.643 187.842 98.2918 189.302 98.2918 189.302L104.293 190.383C104.402 190.491 104.618 190.491 104.726 190.383L120.622 210.497C120.622 210.605 120.676 210.713 120.785 210.767L133.22 215.363C139.925 217.688 146.954 218.824 153.983 218.77C161.012 218.824 168.041 217.688 174.745 215.363L190.209 209.361C190.317 209.307 190.425 209.145 190.371 209.037C190.371 209.037 203.564 190.545 203.672 190.437L224.867 167.35C224.975 167.242 224.975 167.08 224.867 166.971Z" fill="#02E4D1"/>
<path d="M185.181 213.633H151.604C149.495 213.633 147.819 211.957 147.819 209.848V164.863C147.819 162.754 149.495 161.078 151.604 161.078H185.181C187.289 161.078 188.966 162.754 188.966 164.863V209.848C188.966 211.957 187.289 213.633 185.181 213.633Z" fill="#231F20"/>
<path d="M174.637 161.673H162.255C161.336 161.673 160.633 160.916 160.633 160.051V158.699C160.633 157.78 161.39 157.077 162.255 157.077H174.637C175.556 157.077 176.259 157.834 176.259 158.699V160.051C176.259 160.916 175.502 161.673 174.637 161.673Z" fill="#F6EEE3"/>
<path d="M174.637 161.944H162.255C161.228 161.944 160.363 161.078 160.363 160.051V158.699C160.363 157.672 161.228 156.807 162.255 156.807H174.637C175.664 156.807 176.53 157.672 176.53 158.699V160.051C176.53 161.078 175.664 161.944 174.637 161.944ZM162.255 157.294C161.498 157.294 160.904 157.888 160.904 158.645V159.997C160.904 160.754 161.498 161.349 162.255 161.349H174.637C175.394 161.349 175.989 160.754 175.989 159.997V158.645C175.989 157.888 175.394 157.294 174.637 157.294H162.255Z" fill="#231F20"/>
<path d="M178.476 163.35H158.417C158.146 163.35 157.876 163.133 157.876 162.809V161.674C157.876 161.403 158.092 161.133 158.417 161.133H178.476C178.747 161.133 179.017 161.349 179.017 161.674V162.809C178.963 163.133 178.747 163.35 178.476 163.35Z" fill="#F6EEE3"/>
<path d="M178.476 163.62H158.417C157.984 163.62 157.606 163.241 157.606 162.809V161.673C157.606 161.241 157.984 160.862 158.417 160.862H178.476C178.909 160.862 179.287 161.241 179.287 161.673V162.809C179.233 163.241 178.909 163.62 178.476 163.62ZM158.417 161.457C158.254 161.457 158.146 161.565 158.146 161.727V162.863C158.146 163.025 158.254 163.133 158.417 163.133H178.476C178.638 163.133 178.747 163.025 178.747 162.863V161.727C178.747 161.565 178.638 161.457 178.476 161.457H158.417Z" fill="#231F20"/>
<path d="M157.065 193.574C157.605 195.628 159.498 195.52 161.336 195.087C160.255 195.574 159.444 196.277 159.822 197.683C160.255 200.224 162.634 200.332 164.688 199.737C162.958 200.819 165.175 203.468 167.825 203.468C171.609 203.63 175.34 203.739 179.071 203.955C181.72 204.117 184.261 203.955 186.586 202.711L189.452 202.819L188.857 182.976L184.153 183.841C183.613 183.463 183.018 183.084 182.477 182.76C182.477 182.76 172.529 178.272 168.906 177.461C168.527 177.353 168.095 177.299 167.716 177.353C167.338 177.407 166.905 177.569 166.743 177.948C166.473 178.38 166.635 178.975 166.851 179.462C167.5 180.921 168.041 182.219 168.636 183.355C167.23 183.409 166.851 183.463 165.175 183.517C161.715 183.895 155.929 183.787 156.686 188.275C157.065 189.843 158.362 190.059 159.66 189.897C157.768 190.329 156.2 191.411 157.065 193.574ZM159.876 195.628C160.201 195.52 160.471 195.466 160.687 195.412C160.471 195.466 160.147 195.574 159.876 195.628Z" fill="white"/>
<path opacity="0.36" d="M168.582 183.192L177.611 183.408C177.611 183.408 168.96 180.867 167.5 180.975L168.582 183.192Z" fill="#A0AEC0"/>
<path d="M189.074 206.28H193.67C194.427 206.28 195.021 205.685 195.021 204.928L195.075 181.192C195.075 180.435 194.481 179.84 193.724 179.84H189.128C188.371 179.84 187.776 180.435 187.776 181.192L187.722 204.928C187.776 205.685 188.371 206.28 189.074 206.28Z" fill="#F2F1EC"/>
<path d="M192.048 179.894V206.604C192.048 207.956 193.291 208.983 194.643 208.767L216.054 204.982C232.491 201.738 238.871 181.57 227.246 169.513L225.192 167.35L194.318 176.812C192.967 177.245 192.048 178.488 192.048 179.894Z" fill="#02E4D1"/>
<path d="M197.671 202.658C198.049 203.36 197.725 204.226 197.022 204.604C196.319 204.983 195.454 204.658 195.075 203.955C194.697 203.252 195.021 202.387 195.724 202.009C196.427 201.63 197.292 201.901 197.671 202.658Z" fill="#F2F1EC"/>
<path d="M159.228 190.006C159.119 190.006 158.957 189.897 158.957 189.789C158.957 189.627 159.011 189.519 159.174 189.465L164.689 188.654C164.851 188.654 164.959 188.708 165.013 188.87C165.013 189.032 164.959 189.14 164.797 189.194L159.228 190.006Z" fill="#A0AEC0"/>
<path d="M161.336 195.304C161.228 195.304 161.12 195.196 161.066 195.088C161.012 194.925 161.12 194.817 161.282 194.763L165.824 193.682C165.986 193.628 166.094 193.736 166.148 193.898C166.202 194.06 166.094 194.168 165.932 194.222L161.39 195.304H161.336Z" fill="#A0AEC0"/>
<path d="M164.418 200.17C164.31 200.17 164.202 200.116 164.148 199.954C164.094 199.791 164.202 199.683 164.364 199.629L168.744 198.44C168.906 198.386 169.014 198.494 169.068 198.656C169.122 198.818 169.014 198.926 168.852 198.98L164.472 200.17H164.418Z" fill="#A0AEC0"/>
<path d="M192.048 184.437C191.885 184.437 191.777 184.328 191.777 184.166V180.111C191.777 178.273 193.021 176.651 194.805 176.164L212.54 171.352C212.702 171.298 212.81 171.406 212.864 171.568C212.918 171.73 212.81 171.838 212.648 171.893L194.913 176.705C193.399 177.137 192.318 178.543 192.318 180.111V184.166C192.318 184.328 192.21 184.437 192.048 184.437Z" fill="#111111"/>
<path d="M197.779 175.947C197.671 175.947 197.617 175.893 197.562 175.839L190.912 164.593C190.858 164.485 190.858 164.322 191.02 164.214C191.128 164.16 191.29 164.16 191.399 164.322L198.049 175.569C198.103 175.677 198.103 175.839 197.941 175.947C197.887 175.947 197.833 175.947 197.779 175.947Z" fill="#111111"/>
<path d="M154.415 151.021L160.201 141.667C162.039 138.693 164.689 136.314 167.825 134.746L177.989 129.772C179.449 129.069 181.071 128.799 182.693 128.961L202.32 127.826C202.807 127.771 203.132 128.258 202.915 128.745C202.915 128.745 202.915 128.745 202.915 128.799C202.429 129.934 201.347 130.745 200.05 130.907L190.804 132.043L191.236 132.097C192.48 132.205 193.561 133.016 193.994 134.206L194.751 136.26L195.4 136.963C196.265 137.882 196.535 139.288 196.048 140.478L191.453 152.102C191.182 152.805 190.371 153.13 189.668 152.805C187.992 151.994 187.127 150.048 187.776 148.264L189.074 144.371L182.748 152.157C181.72 153.454 180.368 154.427 178.855 155.13L173.988 157.293L170.582 166.917L154.415 151.021Z" fill="white"/>
<path d="M190.966 132.584C190.912 132.584 190.858 132.638 190.858 132.638L184.153 132.909C183.991 132.909 183.829 132.801 183.829 132.584C183.829 132.422 183.937 132.26 184.153 132.26L190.858 131.99C191.02 131.99 191.182 132.098 191.182 132.314C191.128 132.368 191.074 132.53 190.966 132.584Z" fill="#A0AEC0"/>
<path d="M194.697 136.585C194.643 136.585 194.643 136.639 194.589 136.639L186.424 137.504C186.262 137.504 186.1 137.396 186.046 137.234C186.046 137.072 186.154 136.909 186.316 136.855L194.48 135.99C194.643 135.99 194.805 136.098 194.859 136.261C194.913 136.423 194.859 136.531 194.697 136.585Z" fill="#A0AEC0"/>
<path d="M189.344 144.641C189.29 144.695 189.182 144.695 189.073 144.641C188.911 144.587 188.803 144.371 188.911 144.209L189.776 141.992C189.83 141.83 190.047 141.722 190.209 141.83C190.371 141.884 190.479 142.1 190.371 142.262L189.506 144.479C189.452 144.533 189.398 144.587 189.344 144.641Z" fill="#A0AEC0"/>
<path d="M174.421 166.052L171.014 169.675C170.528 170.216 169.663 170.27 169.122 169.729L150.739 152.589C150.198 152.103 150.144 151.237 150.685 150.697L154.091 147.074C154.577 146.534 155.443 146.479 155.983 147.02L174.367 164.16C174.853 164.647 174.907 165.512 174.421 166.052Z" fill="#F2F1EC"/>
<path d="M100.293 193.79C101.266 195.574 102.617 198.007 104.185 200.602C109.052 208.767 118.406 212.281 126.949 210.281C130.085 209.578 133.058 208.118 135.708 205.847C140.195 202.062 145.008 197.845 149.657 193.628C159.39 184.922 168.636 176.38 173.394 172.108C174.421 171.189 174.421 169.567 173.394 168.594L152.469 149.183C151.82 148.588 150.793 148.534 150.09 149.129L124.678 171.297L93.6961 177.353C93.8042 177.407 97.5891 188.653 100.293 193.79Z" fill="#02E4D1"/>
<path d="M121.109 210.984C120.622 210.984 120.136 210.984 119.649 210.93C119.487 210.93 119.379 210.768 119.379 210.659C119.379 210.497 119.541 210.389 119.649 210.389C127.002 210.768 134.302 208.118 139.655 203.144L147.657 195.682C147.765 195.574 147.927 195.574 148.035 195.682C148.143 195.79 148.143 195.953 148.035 196.061L140.033 203.522C134.951 208.28 128.084 210.984 121.109 210.984Z" fill="#111111"/>
<path d="M114.405 179.516C114.351 179.516 114.242 179.462 114.188 179.408C114.08 179.299 114.08 179.137 114.242 179.029L141.493 155.834C141.601 155.725 141.764 155.725 141.872 155.888C141.98 155.996 141.98 156.158 141.818 156.266L114.567 179.462C114.513 179.516 114.459 179.516 114.405 179.516Z" fill="#111111"/>
<path d="M121.65 173.352C121.542 173.352 121.487 173.298 121.433 173.244L110.674 154.698C110.62 154.59 110.62 154.428 110.782 154.32C110.89 154.265 111.052 154.266 111.16 154.428L121.92 172.973C121.974 173.081 121.974 173.244 121.812 173.352C121.704 173.352 121.65 173.352 121.65 173.352Z" fill="#111111"/>
<path d="M167.554 169.567C167.933 170.27 167.608 171.135 166.905 171.513C166.203 171.892 165.337 171.568 164.959 170.865C164.58 170.162 164.905 169.297 165.608 168.918C166.365 168.594 167.23 168.864 167.554 169.567Z" fill="#F2F1EC"/>
</svg>
