<svg width="125" height="28" viewBox="0 0 125 28" fill="none" xmlns="http://www.w3.org/2000/svg">
<path d="M72.1515 21.5835C65.0645 21.5835 57.1558 18.4679 57.1558 14.0171C57.1558 9.56633 65.0645 6.45078 72.1515 6.45078C76.8762 6.45078 81.2585 7.61484 84.1686 9.63481L86.7022 6.00571C83.0731 3.47218 77.7664 2.03424 72.1515 2.03424C61.2642 2.03424 52.7393 7.30671 52.7393 14.0171C52.7393 20.7275 61.2642 26 72.1515 26C77.7664 26 86.7364 21.9943 86.7364 21.9943L84.2029 18.3994C84.2029 18.3994 76.8762 21.5835 72.1173 21.5835H72.1515Z" fill="#121212"/>
<path d="M110.484 21.5835V2H106.067V26H116.544V21.5835H110.484Z" fill="#121212"/>
<path d="M124.727 26V2.03424H120.31V26H124.727Z" fill="#121212"/>
<path fill-rule="evenodd" clip-rule="evenodd" d="M103.202 26H98.6824L97.6553 21.2411L96.8318 17.4474L96.6966 16.8245L95.7722 12.408L94.8821 16.8245L94.7852 17.3051L94.0988 20.7107L93.9919 21.2411L93.0333 26H88.514L89.5276 20.9966L90.3834 16.7719L93.2133 2.80146C93.3078 2.33518 93.7177 2 94.1934 2H98.0661L103.202 26Z" fill="#121212"/>
<path d="M84.2029 18.3994L86.7364 21.9943C86.7364 21.9943 88.2008 21.2717 89.5276 20.9966L90.3834 16.7719C88.0497 16.8526 84.2029 18.3994 84.2029 18.3994Z" fill="#121212"/>
<path d="M94.7852 17.3051L94.0988 20.7107C95.1902 20.7803 96.3793 20.9455 97.6553 21.2411L96.8318 17.4474C96.2076 17.4637 95.5226 17.4245 94.7852 17.3051Z" fill="#121212"/>
<path d="M20.108 22.5449C20.3403 22.3492 20.5722 22.135 20.7861 21.9204L22.105 20.5969L23.4239 21.9204C23.6465 22.1443 23.8789 22.3492 24.1112 22.5449L22.7642 23.8961C22.5508 24.1107 22.3276 24.3157 22.105 24.5021C21.8819 24.3157 21.6684 24.1107 21.455 23.8961L20.108 22.5449Z" fill="#0BC6D7"/>
<path d="M20.108 5.22844L21.455 3.87724C21.6684 3.66258 21.8819 3.45766 22.105 3.27124C22.3276 3.45766 22.5508 3.66258 22.7642 3.87724L24.1112 5.22844C23.8789 5.42412 23.6465 5.62904 23.4239 5.85294L22.105 7.1764L20.7861 5.85294C20.5722 5.63877 20.3403 5.42412 20.108 5.22844Z" fill="#09CFD6"/>
<path d="M28.0058 13.0895C28.4457 13.5303 28.4457 14.2439 28.0058 14.6846L22.105 20.5974L23.4239 21.9208C23.647 22.1447 23.8794 22.3496 24.1112 22.5453L31.9457 14.6841C32.3848 14.2435 32.3848 13.5307 31.9457 13.0901L24.1112 5.22886C23.8794 5.42453 23.647 5.62945 23.4239 5.85336L22.105 7.17682L28.0058 13.0895ZM4.13296 23.897C6.69652 26.4787 10.0774 27.7739 13.4491 27.7739C16.5326 27.7739 19.6346 26.6836 22.105 24.5025C21.8824 24.3161 21.6684 24.1112 21.455 23.897L20.1085 22.5453C18.1857 24.1672 15.8171 24.9688 13.4491 24.9781C10.7832 24.9688 8.13618 23.9622 6.10231 21.9208C3.88267 19.7027 2.78643 16.7949 2.78643 13.8871C2.78643 10.97 3.88267 8.07145 6.10232 5.85336C8.13618 3.81195 10.7832 2.79611 13.4491 2.79611C15.8171 2.79611 18.1857 3.60703 20.1085 5.22886L21.455 3.87717C21.6684 3.663 21.8824 3.45808 22.105 3.27166C20.9816 2.26507 19.7277 1.51013 18.3996 0.969353C16.811 0.326363 15.1303 0.000242601 13.4491 0.000242454C10.0774 0.000242159 6.69652 1.29547 4.13297 3.87717C1.3749 6.63604 0.000231799 10.2711 0.000231483 13.8871C0.000231166 17.5036 1.3749 21.1381 4.13296 23.897Z" fill="url(#paint0_linear_4055_30039)"/>
<path d="M24.1112 5.22837C26.034 3.60654 28.3929 2.79562 30.7706 2.79562C33.4268 2.79562 36.0835 3.81195 38.1174 5.85287C40.3278 8.07097 41.4333 10.9695 41.4333 13.8866C41.4333 16.7944 40.3278 19.7022 38.1174 21.9208C36.0835 23.9617 33.4268 24.9683 30.7706 24.9776C28.3929 24.9683 26.034 24.1667 24.1112 22.5448L22.7647 23.8965C22.5508 24.1107 22.3281 24.3161 22.105 24.5025C24.5754 26.6831 27.6779 27.7739 30.7706 27.7739C34.1326 27.7739 37.5135 26.4782 40.0863 23.8965C42.8356 21.1376 44.2195 17.5031 44.2195 13.8866C44.2195 10.2706 42.8356 6.63556 40.0863 3.87717C37.5135 1.29498 34.1326 -0.000245022 30.7706 -0.000245316C27.6779 -0.000245587 24.5754 1.09006 22.105 3.27117C22.3281 3.45759 22.5508 3.66251 22.7647 3.87717L24.1112 5.22837ZM20.108 22.5448C20.3403 22.3492 20.5727 22.135 20.7861 21.9208L22.105 20.5974L16.1213 14.5925C15.7325 14.2022 15.7325 13.571 16.1214 13.1807L22.105 7.17633L20.7861 5.85287C20.5727 5.6387 20.3404 5.42404 20.108 5.22837L12.1832 13.1807C11.7943 13.571 11.7943 14.2022 12.1832 14.5925L20.108 22.5448Z" fill="url(#paint1_linear_4055_30039)"/>
<path d="M27.8253 21.9204C27.6889 22.0568 27.7815 22.2932 27.9745 22.2932H30.4691C31.068 22.2932 31.6423 22.0553 32.0658 21.6318L39.0128 14.6848C39.4537 14.2439 39.4537 13.5291 39.0128 13.0882L32.075 6.14997C31.6516 5.72647 31.0772 5.48855 30.4783 5.48855H27.971C27.7822 5.48855 27.6921 5.71888 27.8253 5.85264L35.0612 13.0881C35.5022 13.529 35.5022 14.244 35.0612 14.6849L27.8253 21.9204Z" fill="#09CFD6"/>
<defs>
<linearGradient id="paint0_linear_4055_30039" x1="16.3701" y1="0.000242307" x2="3.86033" y2="0.000135263" gradientUnits="userSpaceOnUse">
<stop stop-color="#09CFD6"/>
<stop offset="1" stop-color="#1A94E1"/>
</linearGradient>
<linearGradient id="paint1_linear_4055_30039" x1="42.0496" y1="-0.00024433" x2="3.42614" y2="-0.000247707" gradientUnits="userSpaceOnUse">
<stop offset="0.166667" stop-color="#02E4D1"/>
<stop offset="1" stop-color="#1A94E1"/>
</linearGradient>
</defs>
</svg>
