<svg width="40" height="40" viewBox="0 0 40 40" fill="none" xmlns="http://www.w3.org/2000/svg">
<path d="M9.16663 1.66675C7.78591 1.66675 6.66663 2.78604 6.66663 4.16675V35.8334C6.66663 37.2141 7.78591 38.3334 9.16663 38.3334H30.8333C32.214 38.3334 33.3333 37.2141 33.3333 35.8334V11.6667L23.3333 1.66675H9.16663Z" fill="#20A464"/>
<path d="M9.16663 38.3334C7.78591 38.3334 6.66663 37.2141 6.66663 35.8334V35.4167C6.66663 36.7975 7.78591 37.9167 9.16663 37.9167H30.8333C32.214 37.9167 33.3333 36.7975 33.3333 35.4167V35.8334C33.3333 37.2141 32.214 38.3334 30.8333 38.3334H9.16663Z" fill="#149456"/>
<path d="M9.16663 1.66675C7.78591 1.66675 6.66663 2.78604 6.66663 4.16675V4.58342C6.66663 3.2027 7.78591 2.08341 9.16663 2.08341H23.75L23.3333 1.66675H9.16663Z" fill="#38AE74"/>
<path d="M33.3333 20.2083V11.6666L31.875 10.2083H24.8422C24.2854 10.2083 24.0065 10.8815 24.4003 11.2752L33.3333 20.2083Z" fill="url(#paint0_linear_4913_32514)"/>
<path d="M23.3334 1.66675L33.3334 11.6667H25.8334C24.4527 11.6667 23.3334 10.5475 23.3334 9.16675V1.66675Z" fill="#8ED1B1"/>
<path fill-rule="evenodd" clip-rule="evenodd" d="M26.6667 19.5833V31.6666H13.3334V19.5833H26.6667ZM19.1667 21.2499H15V23.3333H19.1667V21.2499ZM20.8334 23.3333V21.2499H25V23.3333H20.8334ZM19.1667 24.5833H15V26.6666H19.1667V24.5833ZM20.8334 26.6666V24.5833H25V26.6666H20.8334ZM19.1667 27.9166H15V29.9999H19.1667V27.9166ZM20.8334 29.9999V27.9166H25V29.9999H20.8334Z" fill="white"/>
<defs>
<linearGradient id="paint0_linear_4913_32514" x1="28.7746" y1="20.2083" x2="28.7746" y2="9.99992" gradientUnits="userSpaceOnUse">
<stop stop-color="#20A464"/>
<stop offset="1" stop-color="#207E55"/>
</linearGradient>
</defs>
</svg>
