<svg width="263" height="94" viewBox="0 0 263 94" fill="none" xmlns="http://www.w3.org/2000/svg">
<path d="M137.112 2.24489C137.112 3.05592 136.409 3.75882 135.598 3.75882C134.787 3.75882 134.085 3.05592 134.085 2.24489C134.085 1.43385 134.787 0.730957 135.598 0.730957C136.409 0.730957 137.112 1.43385 137.112 2.24489Z" fill="#1A94E1"/>
<path d="M167.353 52.7174C168.189 52.7174 168.867 52.0396 168.867 51.2035C168.867 50.3674 168.189 49.6896 167.353 49.6896C166.517 49.6896 165.839 50.3674 165.839 51.2035C165.839 52.0396 166.517 52.7174 167.353 52.7174Z" fill="#1A94E1"/>
<path d="M220.169 80.0698C220.169 80.8809 219.466 81.5838 218.655 81.5838C217.844 81.5838 217.141 80.8809 217.141 80.0698C217.141 79.2588 217.844 78.5559 218.655 78.5559C219.466 78.5559 220.169 79.2588 220.169 80.0698Z" fill="#1A94E1"/>
<path d="M255.53 13.2725C255.53 14.0835 254.827 14.7864 254.016 14.7864C253.205 14.7864 252.502 14.0835 252.502 13.2725C252.502 12.4614 253.205 11.7585 254.016 11.7585C254.827 11.7585 255.53 12.4614 255.53 13.2725Z" fill="#1A94E1"/>
<path d="M262.343 50.148C262.343 50.5805 262.018 50.9049 261.586 50.9049C261.153 50.9049 260.829 50.5805 260.829 50.148C260.829 49.7154 261.153 49.391 261.586 49.391C262.018 49.391 262.343 49.7695 262.343 50.148Z" fill="#02E4D1"/>
<path d="M261.586 51.175C261.045 51.175 260.558 50.6884 260.558 50.1477C260.558 49.607 261.045 49.1204 261.586 49.1204C262.126 49.1204 262.613 49.607 262.613 50.1477C262.613 50.7424 262.18 51.175 261.586 51.175ZM261.586 49.6611C261.315 49.6611 261.099 49.8773 261.099 50.1477C261.099 50.418 261.315 50.6343 261.586 50.6343C261.856 50.6343 262.072 50.418 262.072 50.1477C262.072 49.8773 261.856 49.6611 261.586 49.6611Z" fill="#02E4D1"/>
<path d="M100.23 56.8267C100.23 57.2592 99.906 57.5836 99.4735 57.5836C99.0409 57.5836 98.7165 57.2592 98.7165 56.8267C98.7165 56.3941 99.0409 56.0697 99.4735 56.0697C99.906 56.0697 100.23 56.3941 100.23 56.8267Z" fill="#02E4D1"/>
<path d="M51.4736 81.8539C50.9329 81.8539 50.4463 81.3673 50.4463 80.8266C50.4463 80.2859 50.9329 79.7993 51.4736 79.7993C52.0143 79.7993 52.5009 80.2859 52.5009 80.8266C52.5009 81.4214 52.0683 81.8539 51.4736 81.8539ZM51.4736 80.34C51.2032 80.34 50.9869 80.5563 50.9869 80.8266C50.9869 81.097 51.2032 81.3132 51.4736 81.3132C51.7439 81.3132 51.9602 81.097 51.9602 80.8266C51.9602 80.5563 51.7439 80.34 51.4736 80.34Z" fill="#02E4D1"/>
<path d="M2.10864 30.2501C2.85518 30.2501 3.46037 29.6449 3.46037 28.8984C3.46037 28.1518 2.85518 27.5466 2.10864 27.5466C1.36211 27.5466 0.75692 28.1518 0.75692 28.8984C0.75692 29.6449 1.36211 30.2501 2.10864 30.2501Z" fill="#02E4D1"/>
<path d="M2.1087 30.5203C1.2436 30.5203 0.486629 29.8174 0.486629 28.8982C0.486629 28.0331 1.18953 27.2761 2.1087 27.2761C3.02787 27.2761 3.73077 27.979 3.73077 28.8982C3.6767 29.8174 2.9738 30.5203 2.1087 30.5203ZM2.1087 27.8709C1.51394 27.8709 1.02732 28.3575 1.02732 28.9523C1.02732 29.547 1.51394 30.0336 2.1087 30.0336C2.70346 30.0336 3.19008 29.547 3.19008 28.9523C3.13601 28.3575 2.70346 27.8709 2.1087 27.8709Z" fill="#02E4D1"/>
<path d="M67.0993 5.32446C67.3696 5.32446 67.64 5.54074 67.64 5.86515C67.64 6.1355 67.4237 6.40584 67.0993 6.40584C66.8289 6.40584 66.5586 6.18957 66.5586 5.86515C66.6127 5.54074 66.8289 5.32446 67.0993 5.32446Z" fill="#02E4D1"/>
<path d="M67.0994 6.62207C66.6669 6.62207 66.2884 6.24359 66.2884 5.81103C66.2884 5.37848 66.6669 5 67.0994 5C67.532 5 67.9105 5.37848 67.9105 5.81103C67.9105 6.24359 67.532 6.62207 67.0994 6.62207ZM67.0994 5.59476C66.9372 5.59476 66.8291 5.7029 66.8291 5.8651C66.8291 6.02731 66.9372 6.13545 67.0994 6.13545C67.2617 6.13545 67.3698 6.02731 67.3698 5.8651C67.3698 5.7029 67.2617 5.59476 67.0994 5.59476Z" fill="#02E4D1"/>
<path d="M46.4993 25.0595C46.4993 25.492 46.1749 25.8164 45.7423 25.8164C45.3097 25.8164 44.9853 25.492 44.9853 25.0595C44.9853 24.6269 45.3097 24.3025 45.7423 24.3025C46.1749 24.3025 46.4993 24.6269 46.4993 25.0595Z" fill="#111111"/>
<path d="M73.514 93.2404C73.514 93.6729 73.1896 93.9973 72.757 93.9973C72.3245 93.9973 72.0001 93.6729 72.0001 93.2404C72.0001 92.8078 72.3245 92.4834 72.757 92.4834C73.1896 92.4834 73.514 92.8078 73.514 93.2404Z" fill="#111111"/>
<path d="M197.892 6.67615C197.892 7.10871 197.568 7.43312 197.135 7.43312C196.703 7.43312 196.378 7.10871 196.378 6.67615C196.378 6.2436 196.703 5.91919 197.135 5.91919C197.568 5.91919 197.892 6.2436 197.892 6.67615Z" fill="#111111"/>
<path d="M199.099 70.7677C199.099 71.2003 198.775 71.5247 198.342 71.5247C197.91 71.5247 197.585 71.2003 197.585 70.7677C197.585 70.3352 197.91 70.0107 198.342 70.0107C198.775 70.0107 199.099 70.3892 199.099 70.7677Z" fill="#111111"/>
</svg>
