<svg width="633" height="947" viewBox="0 0 633 947" fill="none" xmlns="http://www.w3.org/2000/svg">
<path d="M771.021 -45.4937C697.601 -1.50629 582.492 87.5131 641.052 368.525C715.574 726.132 897.683 632.449 816.802 908.461" stroke="url(#paint0_linear_4055_29994)" stroke-width="2"/>
<path d="M745.459 -21.9839C672.039 22.0035 556.93 111.023 615.49 392.035C690.012 749.642 872.121 655.959 791.24 931.971" stroke="url(#paint1_linear_4055_29994)" stroke-width="2"/>
<path d="M719.396 -9.87305C645.976 34.1143 530.867 123.134 589.427 404.145C663.949 761.753 846.058 668.07 765.177 944.082" stroke="url(#paint2_linear_4055_29994)" stroke-width="2"/>
<path d="M693.158 -7.95508C619.738 36.0323 504.629 125.052 563.19 406.063C637.712 763.671 819.82 669.988 738.939 946" stroke="url(#paint3_linear_4055_29994)" stroke-width="2"/>
<path d="M666.962 -14.1138C593.542 29.8736 478.433 118.893 536.994 399.905C611.516 757.512 793.624 663.829 712.743 939.841" stroke="url(#paint4_linear_4055_29994)" stroke-width="2"/>
<path d="M640.891 -25.9619C567.471 18.0255 452.362 107.045 510.923 388.057C585.445 745.664 767.553 651.981 686.672 927.993" stroke="url(#paint5_linear_4055_29994)" stroke-width="2"/>
<path d="M614.937 -41.3096C541.517 2.6778 426.408 91.6972 484.968 372.709C559.49 730.316 741.599 636.633 660.718 912.645" stroke="url(#paint6_linear_4055_29994)" stroke-width="2"/>
<path d="M589.05 -58.3525C515.63 -14.3652 400.521 74.6543 459.081 355.666C533.603 713.273 715.712 619.59 634.831 895.602" stroke="url(#paint7_linear_4055_29994)" stroke-width="2"/>
<path d="M563.175 -75.6812C489.755 -31.6938 374.646 57.3256 433.207 338.337C507.729 695.945 689.837 602.262 608.956 878.274" stroke="url(#paint8_linear_4055_29994)" stroke-width="2"/>
<path d="M537.268 -92.2334C463.848 -48.246 348.739 40.7734 407.299 321.785C481.821 679.392 663.93 585.709 583.049 861.722" stroke="url(#paint9_linear_4055_29994)" stroke-width="2"/>
<path d="M511.3 -107.235C437.881 -63.2475 322.772 25.7719 381.332 306.784C455.854 664.391 637.962 570.708 557.082 846.72" stroke="url(#paint10_linear_4055_29994)" stroke-width="2"/>
<path d="M485.261 -120.133C411.842 -76.1459 296.733 12.8735 355.293 293.885C429.815 651.492 611.923 557.809 531.043 833.822" stroke="url(#paint11_linear_4055_29994)" stroke-width="2"/>
<path d="M459.151 -130.55C385.731 -86.5624 270.623 2.45699 329.183 283.469C403.705 641.076 585.813 547.393 504.933 823.405" stroke="url(#paint12_linear_4055_29994)" stroke-width="2"/>
<path d="M432.82 -138.345C359.4 -94.3574 244.291 -5.33793 302.851 275.674C377.373 633.281 559.482 539.598 478.601 815.61" stroke="url(#paint13_linear_4055_29994)" stroke-width="2"/>
<path d="M406.621 -144.345C333.202 -100.358 218.093 -11.3384 276.653 269.673C351.175 627.28 533.283 533.597 452.403 809.61" stroke="url(#paint14_linear_4055_29994)" stroke-width="2"/>
<path d="M380.404 -148.847C306.984 -104.859 191.876 -15.8399 250.436 265.172C324.958 622.779 507.066 529.096 426.186 805.108" stroke="url(#paint15_linear_4055_29994)" stroke-width="2"/>
<path d="M354.171 -151.643C280.752 -107.655 165.643 -18.6358 224.203 262.376C298.725 619.983 480.833 526.3 399.953 802.312" stroke="url(#paint16_linear_4055_29994)" stroke-width="2"/>
<path d="M327.93 -152.477C254.511 -108.49 139.402 -19.4703 197.962 261.541C272.484 619.149 454.592 525.466 373.712 801.478" stroke="url(#paint17_linear_4055_29994)" stroke-width="2"/>
<path d="M301.691 -151.02C228.271 -107.032 113.162 -18.0127 171.722 262.999C246.244 620.606 428.353 526.923 347.472 802.935" stroke="url(#paint18_linear_4055_29994)" stroke-width="2"/>
<path d="M275.47 -146.835C202.05 -102.848 86.9413 -13.8287 145.502 267.183C220.024 624.79 402.132 531.107 321.251 807.12" stroke="url(#paint19_linear_4055_29994)" stroke-width="2"/>
<path d="M249.296 -139.343C175.876 -95.3554 60.7674 -6.33598 119.328 274.676C193.85 632.283 375.958 538.6 295.077 814.612" stroke="url(#paint20_linear_4055_29994)" stroke-width="2"/>
<path d="M223.218 -127.716C149.799 -83.7289 34.6897 5.29048 93.2499 286.302C167.772 643.909 349.88 550.226 269 826.239" stroke="url(#paint21_linear_4055_29994)" stroke-width="2"/>
<path d="M197.326 -110.772C123.906 -66.7846 8.79721 22.2348 67.3574 303.247C141.879 660.854 323.988 567.171 243.107 843.183" stroke="url(#paint22_linear_4055_29994)" stroke-width="2"/>
<path d="M171.798 -86.8159C98.3777 -42.8286 -16.7311 46.1909 41.8292 327.203C116.351 684.81 298.46 591.127 217.579 867.139" stroke="url(#paint23_linear_4055_29994)" stroke-width="2"/>
<path d="M147.017 -54.8604C73.5973 -10.873 -41.5114 78.1464 17.0488 359.158C91.5708 716.765 273.679 623.082 192.799 899.095" stroke="url(#paint24_linear_4055_29994)" stroke-width="2"/>
<defs>
<linearGradient id="paint0_linear_4055_29994" x1="731.046" y1="-45.4937" x2="812.083" y2="-45.4938" gradientUnits="userSpaceOnUse">
<stop stop-color="#09CFD6"/>
<stop offset="1" stop-color="#1A94E1"/>
</linearGradient>
<linearGradient id="paint1_linear_4055_29994" x1="705.484" y1="-21.9839" x2="786.521" y2="-21.984" gradientUnits="userSpaceOnUse">
<stop stop-color="#09CFD6"/>
<stop offset="1" stop-color="#1A94E1"/>
</linearGradient>
<linearGradient id="paint2_linear_4055_29994" x1="679.421" y1="-9.87306" x2="760.458" y2="-9.87319" gradientUnits="userSpaceOnUse">
<stop stop-color="#09CFD6"/>
<stop offset="1" stop-color="#1A94E1"/>
</linearGradient>
<linearGradient id="paint3_linear_4055_29994" x1="653.183" y1="-7.95509" x2="734.22" y2="-7.95522" gradientUnits="userSpaceOnUse">
<stop stop-color="#09CFD6"/>
<stop offset="1" stop-color="#1A94E1"/>
</linearGradient>
<linearGradient id="paint4_linear_4055_29994" x1="626.987" y1="-14.1138" x2="708.024" y2="-14.1139" gradientUnits="userSpaceOnUse">
<stop stop-color="#09CFD6"/>
<stop offset="1" stop-color="#1A94E1"/>
</linearGradient>
<linearGradient id="paint5_linear_4055_29994" x1="600.916" y1="-25.9619" x2="681.953" y2="-25.9621" gradientUnits="userSpaceOnUse">
<stop stop-color="#09CFD6"/>
<stop offset="1" stop-color="#1A94E1"/>
</linearGradient>
<linearGradient id="paint6_linear_4055_29994" x1="574.962" y1="-41.3096" x2="655.999" y2="-41.3097" gradientUnits="userSpaceOnUse">
<stop stop-color="#09CFD6"/>
<stop offset="1" stop-color="#1A94E1"/>
</linearGradient>
<linearGradient id="paint7_linear_4055_29994" x1="549.075" y1="-58.3526" x2="630.112" y2="-58.3527" gradientUnits="userSpaceOnUse">
<stop stop-color="#09CFD6"/>
<stop offset="1" stop-color="#1A94E1"/>
</linearGradient>
<linearGradient id="paint8_linear_4055_29994" x1="523.2" y1="-75.6812" x2="604.237" y2="-75.6813" gradientUnits="userSpaceOnUse">
<stop stop-color="#09CFD6"/>
<stop offset="1" stop-color="#1A94E1"/>
</linearGradient>
<linearGradient id="paint9_linear_4055_29994" x1="497.293" y1="-92.2334" x2="578.33" y2="-92.2335" gradientUnits="userSpaceOnUse">
<stop stop-color="#09CFD6"/>
<stop offset="1" stop-color="#1A94E1"/>
</linearGradient>
<linearGradient id="paint10_linear_4055_29994" x1="471.326" y1="-107.235" x2="552.363" y2="-107.235" gradientUnits="userSpaceOnUse">
<stop stop-color="#09CFD6"/>
<stop offset="1" stop-color="#1A94E1"/>
</linearGradient>
<linearGradient id="paint11_linear_4055_29994" x1="445.287" y1="-120.133" x2="526.324" y2="-120.133" gradientUnits="userSpaceOnUse">
<stop stop-color="#09CFD6"/>
<stop offset="1" stop-color="#1A94E1"/>
</linearGradient>
<linearGradient id="paint12_linear_4055_29994" x1="419.177" y1="-130.55" x2="500.214" y2="-130.55" gradientUnits="userSpaceOnUse">
<stop stop-color="#09CFD6"/>
<stop offset="1" stop-color="#1A94E1"/>
</linearGradient>
<linearGradient id="paint13_linear_4055_29994" x1="392.845" y1="-138.345" x2="473.882" y2="-138.345" gradientUnits="userSpaceOnUse">
<stop stop-color="#09CFD6"/>
<stop offset="1" stop-color="#1A94E1"/>
</linearGradient>
<linearGradient id="paint14_linear_4055_29994" x1="366.647" y1="-144.345" x2="447.684" y2="-144.345" gradientUnits="userSpaceOnUse">
<stop stop-color="#09CFD6"/>
<stop offset="1" stop-color="#1A94E1"/>
</linearGradient>
<linearGradient id="paint15_linear_4055_29994" x1="340.429" y1="-148.847" x2="421.467" y2="-148.847" gradientUnits="userSpaceOnUse">
<stop stop-color="#09CFD6"/>
<stop offset="1" stop-color="#1A94E1"/>
</linearGradient>
<linearGradient id="paint16_linear_4055_29994" x1="314.197" y1="-151.643" x2="395.234" y2="-151.643" gradientUnits="userSpaceOnUse">
<stop stop-color="#09CFD6"/>
<stop offset="1" stop-color="#1A94E1"/>
</linearGradient>
<linearGradient id="paint17_linear_4055_29994" x1="287.956" y1="-152.477" x2="368.993" y2="-152.477" gradientUnits="userSpaceOnUse">
<stop stop-color="#09CFD6"/>
<stop offset="1" stop-color="#1A94E1"/>
</linearGradient>
<linearGradient id="paint18_linear_4055_29994" x1="261.716" y1="-151.02" x2="342.753" y2="-151.02" gradientUnits="userSpaceOnUse">
<stop stop-color="#09CFD6"/>
<stop offset="1" stop-color="#1A94E1"/>
</linearGradient>
<linearGradient id="paint19_linear_4055_29994" x1="235.495" y1="-146.835" x2="316.532" y2="-146.836" gradientUnits="userSpaceOnUse">
<stop stop-color="#09CFD6"/>
<stop offset="1" stop-color="#1A94E1"/>
</linearGradient>
<linearGradient id="paint20_linear_4055_29994" x1="209.321" y1="-139.343" x2="290.359" y2="-139.343" gradientUnits="userSpaceOnUse">
<stop stop-color="#09CFD6"/>
<stop offset="1" stop-color="#1A94E1"/>
</linearGradient>
<linearGradient id="paint21_linear_4055_29994" x1="183.244" y1="-127.716" x2="264.281" y2="-127.716" gradientUnits="userSpaceOnUse">
<stop stop-color="#09CFD6"/>
<stop offset="1" stop-color="#1A94E1"/>
</linearGradient>
<linearGradient id="paint22_linear_4055_29994" x1="157.351" y1="-110.772" x2="238.388" y2="-110.772" gradientUnits="userSpaceOnUse">
<stop stop-color="#09CFD6"/>
<stop offset="1" stop-color="#1A94E1"/>
</linearGradient>
<linearGradient id="paint23_linear_4055_29994" x1="131.823" y1="-86.8159" x2="212.86" y2="-86.8161" gradientUnits="userSpaceOnUse">
<stop stop-color="#09CFD6"/>
<stop offset="1" stop-color="#1A94E1"/>
</linearGradient>
<linearGradient id="paint24_linear_4055_29994" x1="107.042" y1="-54.8604" x2="188.08" y2="-54.8605" gradientUnits="userSpaceOnUse">
<stop stop-color="#09CFD6"/>
<stop offset="1" stop-color="#1A94E1"/>
</linearGradient>
</defs>
</svg>
