<svg width="16" height="16" viewBox="0 0 16 16" fill="none" xmlns="http://www.w3.org/2000/svg">
<path d="M12.6953 5.7793V8.45263" stroke="#121212" stroke-linecap="square" stroke-linejoin="round"/>
<path d="M14.0587 7.1158H11.332" stroke="#121212" stroke-linecap="square" stroke-linejoin="round"/>
<path d="M9.06053 4.77974C9.06053 6.13116 7.96479 7.22623 6.61404 7.22623V8.22623C8.51688 8.22623 10.0605 6.68364 10.0605 4.77974H9.06053ZM6.61404 7.22623C5.26234 7.22623 4.16669 6.13106 4.16669 4.77974H3.16669C3.16669 6.68373 4.71044 8.22623 6.61404 8.22623V7.22623ZM4.16669 4.77974C4.16669 3.42842 5.26234 2.33325 6.61404 2.33325V1.33325C4.71044 1.33325 3.16669 2.87575 3.16669 4.77974H4.16669ZM6.61404 2.33325C7.96479 2.33325 9.06053 3.42832 9.06053 4.77974H10.0605C10.0605 2.87584 8.51688 1.33325 6.61404 1.33325V2.33325Z" fill="#121212"/>
<path d="M6.63666 9.87917C8.80757 9.87362 10.6534 10.8704 11.3319 13.0161C9.96434 13.8498 8.35458 14.1709 6.63666 14.1667C4.91874 14.1709 3.30898 13.8498 1.94141 13.0161C2.62067 10.8681 4.46342 9.87361 6.63666 9.87917Z" stroke="#121212" stroke-linecap="square"/>
</svg>
