<svg width="324" height="288" viewBox="0 0 324 288" fill="none" xmlns="http://www.w3.org/2000/svg">
<mask id="mask0_1418_21134" style="mask-type:alpha" maskUnits="userSpaceOnUse" x="95" y="91" width="182" height="197">
<path d="M119.011 92.4506L263.129 126.838C271.498 128.834 277.086 136.73 276.187 145.286L262.672 273.974C261.826 282.038 254.602 287.888 246.539 287.041C246.451 287.032 246.362 287.022 246.274 287.011L108.077 269.954C100.617 269.033 95.0581 262.627 95.1975 255.112L97.9121 108.792C98.0876 99.3349 105.897 91.8104 115.354 91.9859C116.586 92.0087 117.813 92.1645 119.011 92.4506Z" fill="white"/>
</mask>
<g mask="url(#mask0_1418_21134)">
<path d="M119.011 92.4506L263.129 126.838C271.498 128.834 277.086 136.73 276.187 145.286L262.672 273.974C261.826 282.038 254.602 287.888 246.539 287.041C246.451 287.032 246.362 287.022 246.274 287.011L108.077 269.954C100.617 269.033 95.0581 262.627 95.1975 255.112L97.9121 108.792C98.0876 99.3349 105.897 91.8104 115.354 91.9859C116.586 92.0087 117.813 92.1645 119.011 92.4506Z" fill="#02E4D1"/>
<path fill-rule="evenodd" clip-rule="evenodd" d="M94.9522 248.975L180.586 188.176L210.646 211.245L169.226 282.026L97.2242 275.21C96.0507 267.498 95.2934 261.672 94.9522 257.733C94.6111 253.794 94.6111 250.875 94.9522 248.975Z" fill="#21A1F1"/>
</g>
<path d="M176.568 106.71C176.569 106.757 176.567 106.805 176.56 106.854L172.695 134.892C174.73 135.485 176.217 137.364 176.217 139.591C176.217 142.277 174.052 144.458 171.372 144.484L169.025 161.511C170.97 162.158 172.372 163.993 172.372 166.156C172.372 168.78 170.305 170.923 167.711 171.044L163.453 201.927C163.387 202.405 162.946 202.74 162.468 202.674C161.99 202.608 161.655 202.167 161.721 201.689L165.978 170.815C164.009 170.181 162.585 168.335 162.585 166.156C162.585 163.515 164.677 161.362 167.294 161.265L169.649 144.19C167.771 143.506 166.43 141.705 166.43 139.591C166.43 137.012 168.425 134.899 170.955 134.711L174.829 106.615C174.834 106.577 174.842 106.54 174.852 106.504L125.536 124.736L156.82 101.317L192.822 109.881L207.502 141.688L176.568 106.71ZM249.662 173.781L251.324 174.323L216.11 282.297L214.448 281.755L249.662 173.781ZM137.595 219.285L95.4765 248.645L97.9232 106.735L105.197 126.552L137.595 219.285Z" fill="#1A94E1"/>
<path d="M196.447 88.6257L192.687 109.869L156.685 101.48L164.1 57.2755C164.164 56.153 164.294 55.0222 164.494 53.8877L168.997 28.3533C171.746 12.7643 186.611 2.35526 202.2 5.10402L219.535 8.1606C235.124 10.9094 245.533 25.775 242.784 41.364L238.282 66.8984C235.533 82.4874 220.667 92.8964 205.078 90.1476L196.447 88.6257Z" fill="white"/>
<path d="M196.809 88.2749C196.809 88.2749 177.149 85.8222 175.505 76.4995C173.861 67.1767 175.505 76.4995 175.505 76.4995C175.505 76.4995 172.236 89.6566 194.358 100.931L196.809 88.2749Z" fill="#E0E0E0"/>
<path d="M198.537 33.7509C199.857 34.6097 201.51 35.1406 203.254 35.8034C204.872 36.4 206.616 37.0627 208.108 37.5932C209.565 38.1893 211.275 38.9177 212.859 39.58C214.443 40.2423 216.279 41.0368 217.495 41.1719C218.837 41.3732 219.376 40.6514 218.022 38.9377C216.759 37.3557 213.155 34.7147 208.37 32.7936C203.55 30.9381 199.833 30.6641 198.399 31.2517C196.93 31.9049 197.344 32.9583 198.537 33.7509Z" fill="#111111"/>
<path fill-rule="evenodd" clip-rule="evenodd" d="M169.053 33.857L237.737 8.8653L197.652 0.126953L165.908 6.21794L169.053 33.857Z" fill="black"/>
<path d="M154.298 15.8103L152.247 15.3742C142.05 13.2069 132.027 19.7158 129.86 29.9123L129.424 31.9637C127.257 42.1602 133.765 52.183 143.962 54.3503L146.013 54.7864C156.21 56.9537 166.233 50.4448 168.4 40.2483L168.836 38.1969C171.003 28.0005 164.494 17.9776 154.298 15.8103Z" fill="black"/>
<path fill-rule="evenodd" clip-rule="evenodd" d="M205.405 71.9562L211.415 76.7641C212.632 77.7381 214.072 78.3952 215.605 78.6769L219.769 79.4416C221.099 79.686 222.474 79.4396 223.637 78.748L228.299 75.9759L224.785 72.4614C224.14 71.8162 223.22 71.5264 222.322 71.6849L220.784 71.9562L217.857 70.2264C217.266 69.8772 216.567 69.7575 215.894 69.8902L205.405 71.9562Z" fill="black"/>
<path d="M242.281 43.4692C237.358 41.7463 232.03 42.3622 225.939 44.7118" stroke="#111827" stroke-width="1.24753" stroke-linecap="round" stroke-linejoin="round"/>
<path fill-rule="evenodd" clip-rule="evenodd" d="M215.038 66.8307L226.374 69.0286C227.322 69.2123 228.239 68.5931 228.423 67.6456C228.474 67.3792 228.463 67.1045 228.39 66.8432C227.071 62.1143 226.354 58.4322 226.239 55.7969C226.104 52.6744 225.521 51.3928 224.492 51.9521L224.979 43.5739L224.105 43.5739C219.995 53.6476 217.722 59.4149 217.287 60.8758C217.017 61.7847 213.332 62.2079 212.957 64.011C212.888 64.3429 212.994 64.8191 213.276 65.4396C213.603 66.1614 214.26 66.6798 215.038 66.8307Z" fill="#A0AEC0"/>
<path d="M257.826 106.145L251.856 104.985L235.845 187.354L241.815 188.515L257.826 106.145Z" fill="#8C8C8C"/>
<path d="M250.327 132.15L249.067 131.905C245.087 131.132 241.234 133.731 240.461 137.71L231.236 185.169C230.462 189.149 233.061 193.002 237.041 193.775L238.301 194.02C242.28 194.794 246.133 192.195 246.907 188.215L256.132 140.756C256.906 136.777 254.307 132.924 250.327 132.15Z" fill="#111827"/>
<path fill-rule="evenodd" clip-rule="evenodd" d="M256.311 94.4087L257.571 94.6537C261.551 95.4272 264.15 99.2802 263.376 103.26L262.121 109.716C261.75 111.625 260.116 113.029 258.173 113.107C256.395 113.179 254.883 113.093 253.639 112.852C252.336 112.598 250.753 112.062 248.891 111.243C247.097 110.454 246.089 108.527 246.463 106.603L247.705 100.213C248.478 96.2341 252.331 93.6352 256.311 94.4087Z" fill="#111827"/>
<path fill-rule="evenodd" clip-rule="evenodd" d="M225.551 87.6431C218.161 75.8156 217.648 61.9398 221.656 49.7607C224.749 40.3635 230.226 31.9687 239.215 26.3517C246.252 21.9546 253.742 20.2761 261.328 20.0504C265.878 19.915 270.519 19.8819 274.96 21.2737C279.441 22.6779 285.259 25.37 289.291 28.2644C294.144 31.7479 297.042 35.737 300.293 40.9395C304.323 47.3888 306.416 54.5796 306.943 61.6449C307.222 65.3875 306.569 70.3576 305.894 73.8786C304.874 79.1968 303.248 82.9188 300.301 87.6851C296.916 93.1601 292.468 98.5825 286.629 102.231C282.219 104.987 277.593 106.999 272.863 107.958C265.854 109.379 258.637 108.73 251.716 106.735C247.106 105.406 241.857 103.135 237.735 100.443C232.677 97.1399 228.939 93.0653 225.551 87.6431ZM230.703 84.5369C241.889 102.438 265.355 107.953 283.116 96.8542C300.878 85.7557 306.208 62.2469 295.022 44.3457C283.836 26.4446 260.37 20.9299 242.609 32.0284C224.847 43.1268 219.517 66.6357 230.703 84.5369Z" fill="#898989"/>
<mask id="mask1_1418_21134" style="mask-type:alpha" maskUnits="userSpaceOnUse" x="223" y="25" width="79" height="78">
<path d="M262.666 102.567C271.182 102.567 279.149 99.4609 285.51 94.7017C287.06 93.5414 288.639 92.4604 290.011 91.1259C295.019 86.2529 298.467 80.1615 300.26 73.3818C301.027 70.4829 301.437 67.4242 301.437 64.2182C301.437 46.7455 289.231 32.8224 273.073 28.1972C269.645 27.216 266.414 25.8698 262.666 25.8698C250.371 25.8698 239.866 32.0974 232.763 40.9278C227.496 47.4759 223.895 55.2002 223.895 64.2182C223.895 71.5733 226.34 78.4775 229.97 84.3142C236.792 95.2845 248.69 102.567 262.666 102.567Z" fill="white"/>
</mask>
<g mask="url(#mask1_1418_21134)">
<path d="M230.145 84.5397C234.658 91.761 241.513 96.8717 248.92 99.744C250.726 100.444 252.479 101.21 254.338 101.666C261.124 103.331 268.117 103.027 274.817 100.955C277.682 100.07 280.493 98.7967 283.212 97.0978C298.03 87.8386 303.369 70.1092 298.729 53.9551C297.744 50.5283 297.173 47.0745 295.188 43.8966C288.672 33.4696 277.824 27.861 266.571 26.5167C258.227 25.5198 249.769 26.5596 242.121 31.3385C235.883 35.2361 231.324 40.968 228.298 47.1392C222.609 58.7381 222.739 72.687 230.145 84.5397Z" fill="white"/>
<path opacity="0.65332" fill-rule="evenodd" clip-rule="evenodd" d="M269.736 58.0572C268.068 57.351 266.814 56.9638 264.962 56.5702C263.034 56.1603 261.175 56.082 259.268 56.0602C257.043 56.0347 254.912 56.4418 252.717 56.9449C250.85 57.3726 248.048 58.3881 244.31 59.9913C246.83 62.8896 248.809 64.8963 250.247 66.0116C252.443 67.7139 254.518 69.3278 257.08 70.3177C258.137 70.7261 259.418 71.1768 260.641 71.5191L240.522 101.296L224.545 79.1002L282.042 18.8024L290.894 26.7431L269.736 58.0572ZM275.803 61.5131C275.001 60.9163 274.138 60.3481 273.246 59.8244L293.719 30.0223L295.929 30.6981L275.803 61.5131ZM268.748 72.3163L245.972 107.189L244.022 102.366L264.717 72.2408C265.271 72.2881 265.828 72.3216 266.402 72.3521C267.185 72.3938 267.967 72.378 268.748 72.3163Z" fill="#E0E0E0"/>
<path d="M269.803 73.171C268.626 73.3027 267.513 73.3317 266.378 73.2609C265.006 73.1752 264.004 73.0842 263.063 72.938L261.364 81.5164C261.272 81.9836 260.811 82.2808 260.335 82.1803C259.86 82.0797 259.549 81.6195 259.642 81.1523L261.337 72.595C259.971 72.2628 258.348 71.7236 256.731 71.0935C256.01 70.8127 255.319 70.4878 254.619 70.1026L249.558 74.3613C249.193 74.6684 248.639 74.6206 248.321 74.2545C248.002 73.8883 248.039 73.3426 248.404 73.0355L253.033 69.1404C252.538 68.8145 252.027 68.4558 251.487 68.0594C250.965 67.6758 250.571 67.3766 249.608 66.6359C248.097 65.4743 246.057 63.4327 243.464 60.4982C243.07 60.0518 243.223 59.3643 243.767 59.1385C247.548 57.5702 250.393 56.5781 252.325 56.1596C255.147 55.5486 257.063 55.2862 259.099 55.3295C261.569 55.382 263.232 55.5263 264.992 55.9121C266.955 56.3423 268.282 56.7642 270.055 57.5244C272.221 58.4527 274.42 59.7052 276.277 61.0791C277.905 62.2829 280.232 64.5189 283.283 67.8027C283.691 68.2419 283.551 68.9378 283.008 69.1735C280.202 70.3905 278.095 71.208 276.671 71.6295C274.734 72.2031 273.09 72.6258 271.595 72.9023L273.855 77.7292C274.06 78.1663 273.869 78.6772 273.43 78.8705C272.991 79.0637 272.469 78.866 272.265 78.4289L269.803 73.171ZM276.137 69.9712C277.29 69.6297 278.968 68.9933 281.163 68.0641C278.593 65.343 276.614 63.4699 275.243 62.4563C273.499 61.1666 271.422 59.9833 269.383 59.1094C267.716 58.3947 266.497 58.0072 264.644 57.6011C263.021 57.2454 261.46 57.1099 259.096 57.0596C257.228 57.0199 255.432 57.266 252.734 57.8502C251.113 58.2012 248.724 59.0121 245.584 60.2809C247.724 62.6519 249.424 64.3211 250.67 65.2791C251.622 66.0115 252.009 66.3058 252.517 66.6787C254.333 68.0132 255.778 68.8741 257.348 69.4857C259.058 70.1522 260.774 70.7116 262.114 71.0055C263.394 71.2858 264.531 71.4137 266.455 71.5338C269.233 71.7072 271.946 71.2122 276.137 69.9712ZM262.85 67.8658C261.757 67.6261 260.532 66.4175 260.026 65.4682C259.596 64.6614 259.673 63.7986 259.875 62.8176C260.08 61.826 260.574 61.1092 261.296 60.5523C262.13 59.9098 263.252 59.5164 264.335 59.7539C265.568 60.0241 267.182 60.6045 267.642 61.7355C267.938 62.4604 268.254 63.8874 268.082 64.7215C267.915 65.5341 267.245 66.3484 266.711 66.8819C265.842 67.7503 264.104 68.1405 262.85 67.8658Z" fill="#111827"/>
</g>
<path fill-rule="evenodd" clip-rule="evenodd" d="M190.263 43.6514C191.123 47.9648 194.661 51.1226 200.877 53.1248C207.093 55.127 211.786 54.5231 214.956 51.3131C212.665 46.1695 209.378 42.9264 205.094 41.5838C200.809 40.2411 195.866 40.9303 190.263 43.6514Z" fill="white"/>
<path fill-rule="evenodd" clip-rule="evenodd" d="M206.397 51.1508C207.411 51.2217 208.409 50.7372 209.004 49.9065C209.369 49.3963 209.543 48.7417 209.592 48.0456C209.642 47.331 209.575 46.6861 209.268 46.1209C208.79 45.239 207.857 44.5956 206.86 44.5259C205.983 44.4645 205.104 44.6745 204.514 45.3129C204.002 45.8663 203.724 46.7816 203.664 47.6311C203.606 48.4715 203.762 49.4287 204.183 50.045C204.678 50.7702 205.512 51.0889 206.397 51.1508Z" fill="black"/>
<path fill-rule="evenodd" clip-rule="evenodd" d="M190.114 43.6786C197.032 44.3677 202.393 45.294 206.197 46.4573C210.001 47.6207 212.987 49.2474 215.157 51.3374C214.13 46.0669 210.73 42.5995 204.955 40.9355C199.181 39.2714 194.234 40.1857 190.114 43.6786Z" fill="#A0AEC0"/>
<path fill-rule="evenodd" clip-rule="evenodd" d="M156.82 101.317L149.364 78.4332C146.176 68.6483 148.279 57.9105 154.923 50.0508L169.053 33.3327L156.82 101.317Z" fill="black"/>
<mask id="mask2_1418_21134" style="mask-type:alpha" maskUnits="userSpaceOnUse" x="180" y="134" width="91" height="77">
<path d="M180.934 189.1L235.361 139.148C236.916 137.721 238.82 136.728 240.881 136.27L239.832 140.814L258.861 134.307C261.328 133.463 264.024 134.703 264.99 137.125C265.179 137.601 265.408 138.106 265.677 138.643C267.565 142.413 267.565 145.82 265.677 148.865C268.437 149.735 270.034 151.838 270.47 155.172C270.906 158.507 270.107 161.117 268.073 163.002C271.359 169.125 269.059 176.752 262.936 180.037C262.589 180.224 262.234 180.393 261.871 180.546L260.667 181.053L217.533 195.408L209.254 210.197L180.934 189.1Z" fill="white"/>
</mask>
<g mask="url(#mask2_1418_21134)">
<path d="M180.934 189.1L235.361 139.148C236.916 137.721 238.82 136.728 240.881 136.27L239.832 140.814L258.861 134.307C261.328 133.463 264.024 134.703 264.99 137.125C265.179 137.601 265.408 138.106 265.677 138.643C267.565 142.413 267.565 145.82 265.677 148.865C268.437 149.735 270.034 151.838 270.47 155.172C270.906 158.507 270.107 161.117 268.073 163.002C271.359 169.125 269.059 176.752 262.936 180.037C262.589 180.224 262.234 180.393 261.871 180.546L260.667 181.053L217.533 195.408L209.254 210.197L180.934 189.1Z" fill="white"/>
<path fill-rule="evenodd" clip-rule="evenodd" d="M241.23 140.29L228.121 145.883C230.777 142.011 233.108 139.273 235.113 137.668C237.119 136.064 239.449 135.074 242.104 134.697L241.23 140.29Z" fill="#A0AEC0"/>
<path d="M267.654 162.939C267.886 162.766 268.215 162.813 268.388 163.045C268.561 163.278 268.514 163.606 268.282 163.779C266.769 164.908 264.961 165.752 262.86 166.313C262.58 166.387 262.293 166.221 262.218 165.941C262.144 165.661 262.31 165.374 262.59 165.299C264.566 164.772 266.253 163.985 267.654 162.939ZM265.046 148.577C265.281 148.409 265.609 148.463 265.777 148.698C265.946 148.934 265.892 149.261 265.657 149.43C264.087 150.554 262.237 151.36 260.11 151.848C259.828 151.912 259.547 151.736 259.482 151.454C259.417 151.172 259.594 150.89 259.876 150.826C261.871 150.368 263.593 149.618 265.046 148.577Z" fill="#A0AEC0"/>
</g>
<path fill-rule="evenodd" clip-rule="evenodd" d="M165.908 58.1496C173.05 58.1496 178.84 52.5941 178.84 45.7412C178.84 38.8882 173.05 33.3327 165.908 33.3327C158.765 33.3327 152.975 38.8882 152.975 45.7412C152.975 51.0973 156.512 55.6609 161.467 57.3989C162.852 57.8846 164.347 58.1496 165.908 58.1496Z" fill="white"/>
<path d="M164.048 51.4899C163.776 51.4899 163.413 51.3084 163.322 51.036C163.05 50.5822 163.14 50.0375 163.594 49.7652L166.862 47.6775L163.231 43.502C162.868 43.1389 162.959 42.5942 163.322 42.2311C163.685 41.8681 164.23 41.9588 164.593 42.3219L168.95 47.3144C169.131 47.4959 169.222 47.7682 169.131 48.0406C169.131 48.3129 168.95 48.4944 168.677 48.676L164.502 51.3084C164.32 51.3991 164.23 51.4899 164.048 51.4899Z" fill="#A0AEC0"/>
<path fill-rule="evenodd" clip-rule="evenodd" d="M46.4974 154.612L53.126 171.033L40.2848 169.341L52.7885 175.558C43.4626 182.49 38.7996 185.956 38.7996 185.956C38.7996 185.956 44.5456 183.827 56.0374 179.57L60.5581 194.377L60.0137 179.539L74.3003 186.969L63.1969 175.234L77.3211 166.321L62.0194 171.803L68.354 155.247L57.8687 168.654L46.4974 154.612Z" fill="#111827"/>
<path d="M53.4112 208.97C72.6171 203.824 84.0147 184.083 78.8685 164.877C73.7223 145.671 53.9811 134.273 34.7752 139.42C15.5694 144.566 4.17181 164.307 9.318 183.513C14.4642 202.719 34.2054 214.116 53.4112 208.97Z" fill="#05D1C0"/>
<path d="M34.9603 178.642L35.8128 181.824L32.8822 182.609L33.5217 184.996L29.7538 186.005L29.1144 183.619L18.7736 186.39L17.9211 183.208L25.8276 171.352L29.5954 170.343L32.0297 179.428L34.9603 178.642ZM21.982 182.12L28.2618 180.437L26.8372 175.12L21.982 182.12ZM46.0745 181.856C40.2553 183.416 36.7742 181.477 35.4673 176.599C34.1661 171.743 36.2169 168.344 42.0361 166.785C47.8345 165.231 51.3365 167.165 52.6321 172C53.9334 176.857 51.8729 180.303 46.0745 181.856ZM45.2276 178.696C48.535 177.809 49.599 175.752 48.8643 173.01C48.1351 170.288 46.1905 169.06 42.8831 169.946C39.5757 170.832 38.5005 172.848 39.2352 175.59C39.9756 178.353 41.9202 179.582 45.2276 178.696ZM71.3831 168.883L72.2357 172.065L69.3051 172.85L69.9445 175.236L66.1766 176.246L65.5372 173.859L55.1965 176.63L54.3439 173.448L62.2504 161.593L66.0183 160.583L68.4525 169.668L71.3831 168.883ZM58.4049 172.36L64.6847 170.678L63.26 165.361L58.4049 172.36Z" fill="white"/>
<path fill-rule="evenodd" clip-rule="evenodd" d="M203.594 58.8218C202.842 58.6481 202.651 58.0149 202.782 57.4506C202.912 56.8863 203.314 56.6047 204.066 56.7784C204.818 56.9521 205.009 57.5854 204.879 58.1496C204.748 58.7139 204.347 58.9955 203.594 58.8218ZM210.934 58.4723C210.182 58.2986 209.991 58.0149 210.122 57.4506C210.252 56.8863 210.654 56.2552 211.406 56.4289C212.159 56.6026 212.349 57.2358 212.219 57.8001C212.089 58.3644 211.687 58.646 210.934 58.4723ZM207.789 62.3172C207.036 62.1435 206.846 61.5102 206.976 60.9459C207.106 60.3816 207.508 60.1 208.26 60.2737C209.013 60.4474 209.203 60.9059 209.073 61.4702C208.943 62.0345 208.541 62.4909 207.789 62.3172ZM200.798 63.3658C200.046 63.1921 199.68 62.9083 199.811 62.344C199.941 61.7798 200.517 61.1486 201.27 61.3223C202.022 61.496 202.038 61.9545 201.908 62.5188C201.777 63.0831 201.55 63.5395 200.798 63.3658ZM195.905 57.4237C195.152 57.25 194.787 56.7915 194.917 56.2272C195.047 55.6629 195.624 55.2065 196.376 55.3802C197.129 55.5539 197.319 56.362 197.189 56.9263C197.059 57.4906 196.657 57.5974 195.905 57.4237Z" fill="#A0AEC0"/>
</svg>
