<svg width="25" height="25" viewBox="0 0 25 25" fill="none" xmlns="http://www.w3.org/2000/svg">
<path d="M9.49512 7.85791H19.1372" stroke="black" stroke-width="1.5" stroke-linecap="square"/>
<path fill-rule="evenodd" clip-rule="evenodd" d="M9.51039 7.79792C9.51039 6.35584 8.33265 5.18652 6.88019 5.18652C5.42774 5.18652 4.25 6.35584 4.25 7.79792C4.25 9.23999 5.42774 10.4093 6.88019 10.4093C8.33265 10.4093 9.51039 9.23999 9.51039 7.79792Z" stroke="black" stroke-width="1.5" stroke-linecap="square"/>
<path d="M15.0049 17.4707H5.36285" stroke="black" stroke-width="1.5" stroke-linecap="square"/>
<path fill-rule="evenodd" clip-rule="evenodd" d="M14.9896 17.4102C14.9896 15.9681 16.1674 14.7988 17.6198 14.7988C19.0723 14.7988 20.25 15.9681 20.25 17.4102C20.25 18.8523 19.0723 20.0216 17.6198 20.0216C16.1674 20.0216 14.9896 18.8523 14.9896 17.4102Z" stroke="black" stroke-width="1.5" stroke-linecap="square"/>
</svg>
