<svg width="24" height="24" viewBox="0 0 24 24" fill="none" xmlns="http://www.w3.org/2000/svg">
<path d="M16.1484 7.5C15.4688 3.31406 13.8656 0.375 12 0.375C10.1344 0.375 8.53125 3.31406 7.85156 7.5H16.1484ZM7.5 12C7.5 13.0406 7.55625 14.0391 7.65469 15H16.3406C16.4391 14.0391 16.4953 13.0406 16.4953 12C16.4953 10.9594 16.4391 9.96094 16.3406 9H7.65469C7.55625 9.96094 7.5 10.9594 7.5 12ZM22.7203 7.5C21.3797 4.31719 18.6656 1.85625 15.3141 0.8625C16.4578 2.44687 17.2453 4.83281 17.6578 7.5H22.7203ZM8.68125 0.8625C5.33437 1.85625 2.61562 4.31719 1.27969 7.5H6.34219C6.75 4.83281 7.5375 2.44687 8.68125 0.8625ZM23.2219 9H17.8453C17.9438 9.98438 18 10.9922 18 12C18 13.0078 17.9438 14.0156 17.8453 15H23.2172C23.475 14.0391 23.6203 13.0406 23.6203 12C23.6203 10.9594 23.475 9.96094 23.2219 9ZM6 12C6 10.9922 6.05625 9.98438 6.15469 9H0.778125C0.525 9.96094 0.375 10.9594 0.375 12C0.375 13.0406 0.525 14.0391 0.778125 15H6.15C6.05625 14.0156 6 13.0078 6 12ZM7.85156 16.5C8.53125 20.6859 10.1344 23.625 12 23.625C13.8656 23.625 15.4688 20.6859 16.1484 16.5H7.85156ZM15.3187 23.1375C18.6656 22.1438 21.3844 19.6828 22.725 16.5H17.6625C17.25 19.1672 16.4625 21.5531 15.3187 23.1375ZM1.27969 16.5C2.62031 19.6828 5.33438 22.1438 8.68594 23.1375C7.54219 21.5531 6.75469 19.1672 6.34219 16.5H1.27969Z" fill="white"/>
</svg>
