<svg width="24" height="20" viewBox="0 0 24 20" fill="none" xmlns="http://www.w3.org/2000/svg">
<path d="M2.84594 3.88686C2.87576 3.59224 2.76341 3.30105 2.54342 3.10276L0.302521 0.403247V0H7.2605L12.6387 11.795L17.3669 0H24V0.403247L22.084 2.24026C21.9189 2.36617 21.8369 2.57311 21.8711 2.77793V16.2755C21.8369 16.4803 21.9189 16.6873 22.084 16.8132L23.9552 18.6502V19.0534H14.5434V18.6502L16.4818 16.7684C16.6723 16.5779 16.6723 16.5219 16.6723 16.2307V5.32062L11.2829 19.0086H10.5546L4.28011 5.32062V14.4945C4.2278 14.8802 4.35589 15.2685 4.62745 15.5474L7.14846 18.6054V19.0086H0V18.6054L2.52101 15.5474C2.79059 15.268 2.91122 14.8772 2.84594 14.4945V3.88686Z" fill="white"/>
</svg>
