<svg width="16" height="16" viewBox="0 0 16 16" fill="none" xmlns="http://www.w3.org/2000/svg">
<path d="M10.2085 5.00345C10.2085 6.24176 9.20442 7.24518 7.96672 7.24518V8.24518C9.75651 8.24518 11.2085 6.79424 11.2085 5.00345H10.2085ZM7.96672 7.24518C6.72812 7.24518 5.72418 6.24167 5.72418 5.00345H4.72418C4.72418 6.79434 6.17622 8.24518 7.96672 8.24518V7.24518ZM5.72418 5.00345C5.72418 3.76524 6.72812 2.76172 7.96672 2.76172V1.76172C6.17622 1.76172 4.72418 3.21257 4.72418 5.00345H5.72418ZM7.96672 2.76172C9.20442 2.76172 10.2085 3.76514 10.2085 5.00345H11.2085C11.2085 3.21266 9.75651 1.76172 7.96672 1.76172V2.76172Z" fill="#121212"/>
<path d="M7.98769 9.7488C10.0077 9.74363 11.7253 10.6711 12.3567 12.6677C11.0841 13.4435 9.58623 13.7423 7.98769 13.7384C6.38915 13.7423 4.89126 13.4435 3.61871 12.6677C4.25078 10.669 5.96547 9.74363 7.98769 9.7488Z" stroke="#121212" stroke-linecap="square"/>
<path d="M4.39642 9.1819C2.98018 9.17828 1.77599 9.82855 1.33336 11.2283C1.81648 11.5229 2.34594 11.7193 2.90784 11.8371" stroke="#121212" stroke-linecap="square"/>
<path d="M5.34125 3.6184L5.80293 3.81036L5.41901 4.73373L4.95733 4.54176L5.34125 3.6184ZM5.52144 6.74568L5.83415 6.35554L6.61444 6.98095L6.30174 7.3711L5.52144 6.74568ZM3.09806 5.30898C2.79644 6.03439 3.14021 6.86678 3.86528 7.16825L3.48135 8.09162C2.24651 7.57819 1.66097 6.16061 2.17469 4.92506L3.09806 5.30898ZM4.95733 4.54176C4.23226 4.24029 3.39967 4.58357 3.09806 5.30898L2.17469 4.92506C2.68842 3.68951 4.1064 3.10497 5.34125 3.6184L4.95733 4.54176ZM3.86528 7.16825C4.46335 7.41692 5.1353 7.22746 5.52144 6.74568L6.30174 7.3711C5.64444 8.19117 4.50125 8.51568 3.48135 8.09162L3.86528 7.16825Z" fill="#121212"/>
<path d="M11.6038 9.1819C13.02 9.17828 14.2242 9.82855 14.6668 11.2283C14.1837 11.5229 13.6542 11.7193 13.0923 11.8371" stroke="#121212" stroke-linecap="square"/>
<path d="M10.4656 6.7284L10.1587 6.33364L9.3692 6.94735L9.67605 7.34212L10.4656 6.7284ZM10.4593 3.71214L10.0172 3.94569L10.4843 4.8299L10.9264 4.59635L10.4593 3.71214ZM12.7118 4.98235C13.194 5.60261 13.0817 6.49618 12.4618 6.97809L13.0755 7.76762C14.1314 6.94687 14.3226 5.42509 13.5013 4.36863L12.7118 4.98235ZM12.4618 6.97809C11.8413 7.46042 10.9477 7.34859 10.4656 6.7284L9.67605 7.34212C10.4973 8.39865 12.0193 8.58865 13.0755 7.76762L12.4618 6.97809ZM10.9264 4.59635C11.5247 4.2803 12.2821 4.42957 12.7118 4.98235L13.5013 4.36863C12.7686 3.426 11.479 3.17348 10.4593 3.71214L10.9264 4.59635Z" fill="#121212"/>
</svg>
