<svg width="26" height="26" viewBox="0 0 26 26" fill="none" xmlns="http://www.w3.org/2000/svg">
<path opacity="0.2" d="M25.9295 13.0003C25.9295 20.1422 20.14 25.9319 12.9982 25.9319C5.85625 25.9319 0.0666504 20.1422 0.0666504 13.0003C0.0666504 5.85844 5.85625 0.0688477 12.9982 0.0688477C20.1399 0.0688477 25.9295 5.85844 25.9295 13.0003" fill="#00A478"/>
<path d="M11.6721 12.7739V10.5116H8.60376V8.52856H17.178V10.5395H14.1096V12.7739H11.6721Z" fill="#00A478"/>
<path fill-rule="evenodd" clip-rule="evenodd" d="M7.28467 13.0253C7.28467 12.2712 9.75084 11.6567 12.8192 11.6567C15.8876 11.6567 18.3538 12.2712 18.3538 13.0253C18.3538 13.7794 15.8876 14.3938 12.8192 14.3938C9.75084 14.3938 7.28467 13.7794 7.28467 13.0253ZM17.895 13.0253C17.6942 12.746 16.031 11.8802 12.8192 11.8802C9.60746 11.8802 7.94423 12.7181 7.74349 13.0253C7.94423 13.3046 9.60746 13.7235 12.8192 13.7235C16.0597 13.7235 17.6942 13.3046 17.895 13.0253Z" fill="#00A478"/>
<path d="M14.1095 13.4721V11.908C13.708 11.8801 13.2779 11.8522 12.8477 11.8522C12.4463 11.8522 12.0735 11.8522 11.7007 11.8801V13.4442C12.0448 13.4442 12.4463 13.4721 12.8477 13.4721C13.2779 13.5 13.708 13.5 14.1095 13.4721Z" fill="#00A478"/>
<path d="M12.8192 14.3938C12.4177 14.3938 12.0449 14.3938 11.6721 14.3658V18.5273H14.0809V14.3379C13.6795 14.3658 13.2493 14.3938 12.8192 14.3938Z" fill="#00A478"/>
</svg>
