<svg width="22" height="18" viewBox="0 0 22 18" fill="none" xmlns="http://www.w3.org/2000/svg">
<path d="M19.3501 4.85763C19.3629 5.03665 19.3629 5.21566 19.3629 5.39632C19.3629 10.9012 15.0289 17.25 7.10414 17.25V17.2467C4.76313 17.25 2.47075 16.6016 0.5 15.379C0.840402 15.4186 1.18251 15.4384 1.52547 15.4392C3.46551 15.4409 5.35009 14.8115 6.87636 13.6524C5.03272 13.6186 3.41603 12.4562 2.85125 10.7593C3.49708 10.8798 4.16252 10.855 4.7964 10.6875C2.78641 10.2949 1.34034 8.58722 1.34034 6.60405C1.34034 6.5859 1.34034 6.56857 1.34034 6.55125C1.93924 6.87381 2.60981 7.05282 3.29573 7.07262C1.40262 5.84922 0.819074 3.41397 1.96228 1.50999C4.14973 4.1127 7.37715 5.69495 10.8417 5.86242C10.4945 4.41546 10.9689 2.89921 12.0882 1.88205C13.8235 0.304745 16.5527 0.38559 18.1839 2.06271C19.1488 1.87875 20.0736 1.53639 20.9199 1.05132C20.5982 2.01569 19.9251 2.83486 19.0259 3.3554C19.8799 3.25806 20.7143 3.03697 21.5 2.69957C20.9216 3.53772 20.193 4.26779 19.3501 4.85763Z" fill="white"/>
</svg>
