<svg width="24" height="24" viewBox="0 0 24 24" fill="none" xmlns="http://www.w3.org/2000/svg">
<g clip-path="url(#clip0_1137_20460)">
<circle cx="12.0019" cy="12.0019" r="12.0019" fill="white"/>
<path d="M12.4025 23.9963C12.4062 23.9963 12.41 23.9963 12.4137 23.9963C12.5138 23.9852 12.614 23.9889 12.7142 23.9814C13.4821 23.9369 14.239 23.8219 14.9847 23.6327C16.9733 23.1244 18.717 22.1673 20.2158 20.7686C21.6108 19.4627 22.6347 17.9045 23.2877 16.1088C23.5585 15.3668 23.7514 14.6026 23.8664 13.8198C23.9332 13.3746 23.9777 12.9219 23.9926 12.4693C23.9926 12.4545 23.9963 12.4396 23.9963 12.4248C23.9963 12.4174 23.9963 12.4062 23.9963 12.3988C23.9963 12.3914 23.9963 12.384 24.0037 12.3766C24.0037 12.128 24.0037 11.8794 24.0037 11.6309C23.9963 11.6234 23.9963 11.616 23.9963 11.6086C23.9963 11.59 23.9963 11.5678 23.9963 11.5492C23.9852 11.4008 23.9777 11.2524 23.9666 11.104C23.9147 10.3546 23.7885 9.61632 23.5956 8.89287C23.1207 7.10836 22.2748 5.51677 21.0654 4.12181C19.7817 2.64523 18.2272 1.54707 16.4056 0.82733C15.5931 0.50456 14.7547 0.28196 13.8902 0.14469C13.4117 0.07049 12.9256 0.02226 12.4396 0.00742C12.4211 0.00742 12.4062 0.00742 12.3877 0.00371C12.384 0.00371 12.384 0 12.3803 0C12.1243 0 11.8683 0 11.6123 0C11.6049 0.00742 11.5938 0.00742 11.5826 0.00742C11.5789 0.00742 11.5789 0.00742 11.5752 0.00742C11.475 0.02226 11.3749 0.01484 11.2784 0.02226C10.6551 0.05936 10.043 0.14098 9.43453 0.27454C8.16571 0.54908 6.9748 1.01283 5.8618 1.67692C4.081 2.73798 2.66749 4.16633 1.61756 5.95826C0.99799 7.02303 0.5565 8.162 0.28938 9.36775C0.12985 10.0838 0.0371 10.8109 0.01113 11.5455C0.01113 11.5529 0.01113 11.5641 0.00742 11.5715C0.00742 11.5863 0.01113 11.6012 0 11.616C0 11.872 0 12.128 0 12.384C0.00742 12.3988 0.00742 12.4137 0.00742 12.4285C0.01855 12.525 0.01484 12.6214 0.02226 12.7179C0.08533 13.8012 0.28938 14.8586 0.63812 15.8825C1.27253 17.7338 2.29649 19.3365 3.71 20.6907C4.66718 21.607 5.7505 22.3416 6.95254 22.8981C7.85036 23.3136 8.78899 23.6142 9.76101 23.7959C10.3583 23.9072 10.9593 23.974 11.5641 23.9926C11.5789 23.9926 11.5938 23.9926 11.6086 23.9963C11.616 23.9963 11.6234 24 11.6309 24.0037C11.8794 24.0037 12.128 24.0037 12.3766 24.0037C12.3803 23.9926 12.3914 23.9963 12.4025 23.9963ZM14.2575 3.86953C14.265 3.7471 14.328 3.63209 14.4356 3.55789C14.5209 3.49853 14.6174 3.49853 14.7102 3.53192C14.7992 3.5616 14.8919 3.59499 14.981 3.62838C17.6336 4.5633 19.7187 6.70397 20.5794 9.3863C20.7723 9.98732 20.9059 10.6032 20.9726 11.2339C21.0097 11.5789 21.0283 11.9239 21.0246 12.269C20.9838 14.2872 20.3679 16.1051 19.1288 17.7041C18.0566 19.088 16.6876 20.0637 15.0403 20.6536C14.9253 20.6944 14.8103 20.7278 14.699 20.7797C14.5432 20.8502 14.3466 20.75 14.2798 20.572C14.2575 20.5126 14.2501 20.4495 14.2501 20.3827C14.2501 20.1601 14.2501 19.9375 14.2501 19.7149C14.2538 19.4181 14.3577 19.2735 14.6322 19.1659C15.7564 18.7392 16.7247 18.0825 17.5335 17.1921C18.1976 16.4613 18.6873 15.6265 19.0175 14.6953C19.203 14.1759 19.3402 13.6417 19.4107 13.0926C19.4775 12.5658 19.4886 12.0352 19.4404 11.5047C19.3514 10.5141 19.0842 9.57922 18.6168 8.69995C17.7301 7.02674 16.3982 5.84696 14.6248 5.17174C14.3948 5.0827 14.265 4.90462 14.2501 4.66718C14.239 4.40748 14.2427 4.13665 14.2575 3.86953ZM9.74988 20.3456C9.74988 20.4681 9.69052 20.572 9.6089 20.6573C9.52728 20.7426 9.41969 20.7575 9.30839 20.7204C8.80754 20.5534 8.31411 20.3605 7.84294 20.1119C5.65775 18.9544 4.18117 17.1959 3.40207 14.8511C3.21657 14.2909 3.09785 13.7122 3.03478 13.126C2.99397 12.7624 2.97171 12.3988 2.97542 12.0315C2.99397 10.5883 3.33158 9.22306 3.99938 7.94311C4.61153 6.76704 5.44628 5.77647 6.49992 4.9714C7.31983 4.34441 8.22136 3.88066 9.2008 3.5616C9.25645 3.54305 9.30097 3.50595 9.36033 3.49853C9.54954 3.47627 9.72391 3.61725 9.74246 3.8213C9.7573 3.98825 9.74617 4.15149 9.74988 4.31844C9.74988 4.43345 9.75359 4.55217 9.74617 4.66718C9.73504 4.88236 9.62003 5.03076 9.41969 5.10496C8.85206 5.32014 8.3104 5.59097 7.80955 5.93229C6.55557 6.7893 5.6392 7.92085 5.07899 9.33436C4.84155 9.93538 4.67089 10.5512 4.58927 11.1931C4.52249 11.7199 4.51136 12.2504 4.55959 12.7772C4.67089 14.009 5.06044 15.1479 5.73566 16.1867C6.43685 17.2738 7.36435 18.1196 8.51074 18.7244C8.80383 18.8802 9.10434 19.01 9.41227 19.1251C9.57551 19.1844 9.75359 19.433 9.75359 19.6036C9.75359 19.8596 9.75359 20.1008 9.74988 20.3456ZM11.6754 18.1493C11.4305 18.1456 11.2524 17.9564 11.2524 17.7115C11.2524 17.5335 11.2524 17.3554 11.2524 17.1773C11.2524 16.9918 11.2487 16.81 11.2524 16.6245C11.2524 16.5614 11.2339 16.5429 11.1708 16.5318C10.7998 16.4724 10.4362 16.3722 10.0949 16.209C9.32694 15.8417 8.84835 15.237 8.65172 14.4096C8.62575 14.3021 8.59607 14.1945 8.59978 14.0795C8.6072 13.8902 8.74447 13.7493 8.93368 13.7493C9.20451 13.7456 9.47905 13.7493 9.74988 13.7493C9.97619 13.7493 10.1023 13.8531 10.1506 14.072C10.184 14.2241 10.2285 14.3725 10.2953 14.5135C10.4548 14.8511 10.7182 15.0812 11.0669 15.1999C11.59 15.378 12.128 15.4113 12.6659 15.2592C13.0518 15.1516 13.3708 14.9328 13.5601 14.5655C13.7307 14.2316 13.7418 13.8828 13.6231 13.5341C13.5341 13.2707 13.33 13.1074 13.0852 12.9924C12.8255 12.8663 12.5472 12.7958 12.2653 12.729C11.9351 12.6511 11.5938 12.6214 11.2599 12.5621C10.8147 12.4804 10.3769 12.3729 9.96506 12.1762C9.50873 11.9573 9.14515 11.6457 8.93739 11.1708C8.82238 10.9111 8.77044 10.6329 8.75189 10.3509C8.72963 10.0615 8.74447 9.77585 8.81867 9.49389C8.97078 8.92997 9.30097 8.49219 9.77956 8.162C10.1877 7.88004 10.6477 7.72422 11.1337 7.65373C11.1857 7.64631 11.1894 7.62405 11.1894 7.58324C11.1894 7.23821 11.1857 6.88947 11.1894 6.54444C11.1894 6.39975 11.2487 6.27732 11.3563 6.17715C11.4231 6.11779 11.5047 6.09182 11.5938 6.09182C11.8349 6.09182 12.0723 6.08811 12.3135 6.09182C12.5546 6.09553 12.7401 6.28474 12.7401 6.52589C12.7401 6.89318 12.7401 7.26047 12.7401 7.63147C12.7401 7.67599 12.7476 7.69454 12.7995 7.70196C13.8865 7.81326 14.7955 8.65172 14.9884 9.72762C15.0292 9.94651 14.8697 10.1431 14.6471 10.1469C14.38 10.1506 14.1128 10.1506 13.842 10.1469C13.6825 10.1469 13.5452 10.0504 13.4933 9.89828C13.4488 9.77585 13.4005 9.65713 13.3375 9.54212C13.1705 9.24903 12.9294 9.04498 12.6066 8.94852C12.1243 8.80754 11.6346 8.80383 11.1523 8.93739C10.8814 9.01159 10.6514 9.15628 10.4993 9.40485C10.4103 9.54954 10.362 9.70536 10.3509 9.87231C10.3398 10.0318 10.3435 10.1877 10.3806 10.3435C10.4511 10.6551 10.6551 10.8518 10.9334 10.9853C11.2042 11.1152 11.4936 11.1819 11.7867 11.2376C12.2096 11.3118 12.6437 11.3489 13.0629 11.4416C13.4784 11.5344 13.8828 11.6531 14.2538 11.8646C14.8215 12.1874 15.1442 12.6734 15.2481 13.3152C15.2963 13.6157 15.3112 13.9199 15.2741 14.2241C15.2036 14.7769 14.9736 15.2555 14.584 15.6562C14.1462 16.1088 13.6046 16.3685 12.9961 16.5095C12.9627 16.5169 12.9256 16.5243 12.8923 16.5318C12.7958 16.5503 12.7958 16.5503 12.7958 16.6505C12.7958 17.0029 12.7995 17.3554 12.7958 17.7078C12.7958 17.8525 12.7327 17.975 12.6214 18.0714C12.5584 18.1271 12.4804 18.153 12.3951 18.153C12.1577 18.153 11.9165 18.1567 11.6754 18.1493Z" fill="#2673C6"/>
</g>
<defs>
<clipPath id="clip0_1137_20460">
<rect width="24" height="24" fill="white"/>
</clipPath>
</defs>
</svg>
