<svg width="25" height="24" viewBox="0 0 25 24" fill="none" xmlns="http://www.w3.org/2000/svg">
<path d="M15.5628 7.50518C15.5628 9.36265 14.0568 10.8678 12.2002 10.8678V12.3678C14.8849 12.3678 17.0628 10.1914 17.0628 7.50518H15.5628ZM12.2002 10.8678C10.3423 10.8678 8.83643 9.3625 8.83643 7.50518H7.33643C7.33643 10.1915 9.51449 12.3678 12.2002 12.3678V10.8678ZM8.83643 7.50518C8.83643 5.64785 10.3423 4.14258 12.2002 4.14258V2.64258C9.51449 2.64258 7.33643 4.81885 7.33643 7.50518H8.83643ZM12.2002 4.14258C14.0568 4.14258 15.5628 5.64771 15.5628 7.50518H17.0628C17.0628 4.81899 14.8849 2.64258 12.2002 2.64258V4.14258Z" fill="black"/>
<path d="M12.2317 14.6231C15.2618 14.6153 17.8382 16.0066 18.7852 19.0014C16.8763 20.1651 14.6295 20.6133 12.2317 20.6074C9.83388 20.6133 7.58704 20.1651 5.67822 19.0014C6.62632 16.0033 9.19836 14.6153 12.2317 14.6231Z" stroke="black" stroke-width="1.5" stroke-linecap="square"/>
<path d="M6.84473 13.773C4.72036 13.7675 2.91407 14.7429 2.25013 16.8426C2.97482 17.2844 3.769 17.5791 4.61185 17.7558" stroke="black" stroke-width="1.5" stroke-linecap="square"/>
<path d="M8.26203 5.42772L8.95455 5.71566L8.37867 7.10071L7.68615 6.81277L8.26203 5.42772ZM8.53232 10.1186L9.00138 9.53343L10.1718 10.4715L9.70276 11.0568L8.53232 10.1186ZM4.89724 7.96359C4.44482 9.05171 4.96047 10.3003 6.04807 10.7525L5.47218 12.1376C3.61991 11.3674 2.74161 9.24104 3.51219 7.38771L4.89724 7.96359ZM7.68615 6.81277C6.59855 6.36056 5.34966 6.87548 4.89724 7.96359L3.51219 7.38771C4.28278 5.53439 6.40976 4.65757 8.26203 5.42772L7.68615 6.81277ZM6.04807 10.7525C6.94518 11.1255 7.9531 10.8413 8.53232 10.1186L9.70276 11.0568C8.71681 12.2869 7.00203 12.7736 5.47218 12.1376L6.04807 10.7525Z" fill="black"/>
<path d="M17.6558 13.773C19.7801 13.7675 21.5864 14.7429 22.2504 16.8426C21.5257 17.2844 20.7315 17.5791 19.8886 17.7558" stroke="black" stroke-width="1.5" stroke-linecap="square"/>
<path d="M15.9485 10.0925L15.4882 9.50033L14.3039 10.4209L14.7642 11.0131L15.9485 10.0925ZM15.939 5.5681L15.2759 5.91842L15.9765 7.24473L16.6397 6.89441L15.939 5.5681ZM19.3178 7.4734C20.041 8.4038 19.8727 9.74414 18.9428 10.467L19.8633 11.6513C21.4471 10.4202 21.7339 8.13751 20.5021 6.55282L19.3178 7.4734ZM18.9428 10.467C18.012 11.1905 16.6716 11.0228 15.9485 10.0925L14.7642 11.0131C15.9961 12.5979 18.279 12.8829 19.8633 11.6513L18.9428 10.467ZM16.6397 6.89441C17.5371 6.42032 18.6733 6.64423 19.3178 7.4734L20.5021 6.55282C19.403 5.13887 17.4686 4.7601 15.939 5.5681L16.6397 6.89441Z" fill="black"/>
</svg>
