<svg width="516" height="324" viewBox="0 0 516 324" fill="none" xmlns="http://www.w3.org/2000/svg">
<path d="M234.771 263.013C237.481 260.73 240.186 258.232 242.681 255.729L258.064 240.292L273.447 255.729C276.044 258.34 278.754 260.73 281.464 263.013L265.753 278.773C263.263 281.276 260.661 283.667 258.064 285.841C255.462 283.667 252.972 281.276 250.483 278.773L234.771 263.013Z" fill="#0BC6D7"/>
<path d="M234.771 61.0335L250.483 45.2733C252.972 42.7696 255.462 40.3795 258.064 38.2051C260.661 40.3795 263.263 42.7696 265.753 45.2733L281.464 61.0335C278.754 63.3158 276.044 65.7059 273.447 68.3175L258.064 83.754L242.681 68.3175C240.186 65.8195 237.481 63.3158 234.771 61.0335Z" fill="#09CFD6"/>
<path d="M326.863 152.7C332.007 157.854 332.007 166.2 326.863 171.354L258.062 240.294L273.445 255.731C276.047 258.342 278.758 260.732 281.462 263.015L372.817 171.348C377.952 166.195 377.952 157.859 372.817 152.706L281.462 61.0392C278.758 63.3215 276.048 65.7116 273.445 68.3232L258.062 83.7597L326.863 152.7ZM48.4397 278.78C78.3405 308.893 117.774 324 157.101 324C193.067 324 229.247 311.283 258.062 285.843C255.465 283.669 252.97 281.279 250.481 278.781L234.775 263.015C212.348 281.931 184.722 291.282 157.101 291.39C126.006 291.282 95.1324 279.541 71.4098 255.731C45.5204 229.859 32.7341 195.943 32.7341 162.027C32.7341 128.003 45.5204 94.1946 71.4099 68.3232C95.1324 44.5126 126.006 32.6641 157.101 32.6641C184.722 32.6641 212.348 42.1225 234.775 61.0392L250.481 45.2734C252.97 42.7753 255.465 40.3852 258.062 38.2108C244.959 26.4702 230.334 17.6647 214.843 11.3572C196.314 3.85749 176.71 0.053693 157.101 0.0536913C117.774 0.0536878 78.3405 15.161 48.4398 45.2733C16.2703 77.4522 0.236455 119.85 0.236451 162.027C0.236448 204.209 16.2703 246.602 48.4397 278.78Z" fill="url(#paint0_linear_401_3483)"/>
<path d="M281.461 61.0333C303.888 42.1166 331.402 32.6582 359.136 32.6582C390.117 32.6582 421.104 44.5124 444.827 68.3173C470.609 94.1888 483.502 127.997 483.502 162.021C483.502 195.937 470.608 229.853 444.827 255.731C421.104 279.535 390.117 291.276 359.136 291.384C331.402 291.276 303.888 281.926 281.461 263.009L265.756 278.775C263.261 281.273 260.664 283.669 258.061 285.843C286.876 311.277 323.062 324 359.136 324C398.349 324 437.783 308.887 467.791 278.775C499.859 246.596 516 204.203 516 162.021C516 119.844 499.859 77.4464 467.791 45.2732C437.783 15.1551 398.349 0.0478413 359.136 0.0478378C323.062 0.0478347 286.876 12.765 258.061 38.2049C260.664 40.3793 263.261 42.7695 265.756 45.2732L281.461 61.0333ZM234.769 263.009C237.479 260.727 240.189 258.229 242.678 255.731L258.061 240.294L188.291 170.276C183.743 165.712 183.743 158.33 188.291 153.766L258.061 83.7539L242.678 68.3173C240.189 65.8193 237.479 63.3156 234.769 61.0333L142.357 153.766C137.809 158.33 137.809 165.712 142.357 170.276L234.769 263.009Z" fill="url(#paint1_linear_401_3483)"/>
<path d="M324.783 255.724C323.191 257.316 324.272 260.073 326.523 260.073H355.59C362.594 260.073 369.311 257.291 374.263 252.338L455.246 171.356C460.403 166.199 460.403 157.839 455.247 152.682L374.371 71.8025C369.419 66.8497 362.702 64.0672 355.697 64.0672H326.482C324.281 64.0672 323.229 66.7538 324.783 68.3139L409.156 152.682C414.313 157.839 414.313 166.2 409.156 171.356L324.783 255.724Z" fill="#09CFD6"/>
<path d="M191.752 255.724C193.343 257.316 192.262 260.073 190.011 260.073H160.944C153.941 260.073 147.224 257.291 142.271 252.338L61.2881 171.356C56.1317 166.199 56.1316 157.839 61.2878 152.682L142.163 71.8025C147.116 66.8497 153.833 64.0672 160.837 64.0672H190.052C192.254 64.0672 193.305 66.7538 191.752 68.3139L107.378 152.682C102.221 157.839 102.221 166.2 107.378 171.356L191.752 255.724Z" fill="url(#paint2_linear_401_3483)"/>
<defs>
<linearGradient id="paint0_linear_401_3483" x1="191.171" y1="0.0536895" x2="45.2598" y2="0.052441" gradientUnits="userSpaceOnUse">
<stop stop-color="#09CFD6"/>
<stop offset="1" stop-color="#1A94E1"/>
</linearGradient>
<linearGradient id="paint1_linear_401_3483" x1="490.691" y1="0.0478493" x2="40.1951" y2="0.04781" gradientUnits="userSpaceOnUse">
<stop offset="0.166667" stop-color="#02E4D1"/>
<stop offset="1" stop-color="#1A94E1"/>
</linearGradient>
<linearGradient id="paint2_linear_401_3483" x1="222.418" y1="255.422" x2="68.9726" y2="260.073" gradientUnits="userSpaceOnUse">
<stop stop-color="#09CFD6"/>
<stop offset="1" stop-color="#1A94E1"/>
</linearGradient>
</defs>
</svg>
